<?xml version="1.0" encoding="utf-8"?>
<!-- Generator: Adobe Illustrator 25.1.0, SVG Export Plug-In . SVG Version: 6.00 Build 0)  -->
<svg version="1.1" id="Layer_1" xmlns="http://www.w3.org/2000/svg" xmlns:xlink="http://www.w3.org/1999/xlink" x="0px" y="0px"
	 viewBox="0 0 668.68 192.83" style="enable-background:new 0 0 668.68 192.83;" xml:space="preserve">
<style type="text/css">
	.st0{clip-path:url(#SVGID_2_);}
	.st1{clip-path:url(#SVGID_4_);}
	.st2{clip-path:url(#SVGID_6_);fill:none;stroke:#4063D8;stroke-width:1.8568;stroke-miterlimit:1;}
	.st3{clip-path:url(#SVGID_6_);fill:#CB3C33;}
	.st4{clip-path:url(#SVGID_6_);fill:#389826;}
	.st5{clip-path:url(#SVGID_6_);fill:#9558B2;}
	.st6{clip-path:url(#SVGID_8_);}
	.st7{opacity:0;clip-path:url(#SVGID_8_);}
	.st8{opacity:0;clip-path:url(#SVGID_12_);}
	.st9{clip-path:url(#SVGID_14_);fill:none;stroke:#000000;stroke-width:0;stroke-miterlimit:10;}
	.st10{clip-path:url(#SVGID_16_);}
	.st11{clip-path:url(#SVGID_18_);}
	.st12{font-family:'BanglaMN';}
	.st13{font-size:41px;}
	.st14{clip-path:url(#SVGID_18_);fill:#CB3C33;}
	.st15{clip-path:url(#SVGID_18_);fill:#9558B2;}
	.st16{clip-path:url(#SVGID_18_);fill:#389826;}
	.st17{clip-path:url(#SVGID_18_);fill:#4063D8;}
</style>
<g>
	<g>
		<defs>
			<rect id="SVGID_1_" x="0" y="-4.35" width="197.59" height="197.17"/>
		</defs>
		<clipPath id="SVGID_2_">
			<use xlink:href="#SVGID_1_"  style="overflow:visible;"/>
		</clipPath>
		<g class="st0">
			<defs>
				<rect id="SVGID_3_" x="0" y="-4.35" width="197.59" height="197.17"/>
			</defs>
			<clipPath id="SVGID_4_">
				<use xlink:href="#SVGID_3_"  style="overflow:visible;"/>
			</clipPath>
			<g class="st1">
				<defs>
					<rect id="SVGID_5_" x="0" y="-4.35" width="197.59" height="197.17"/>
				</defs>
				<clipPath id="SVGID_6_">
					<use xlink:href="#SVGID_5_"  style="overflow:visible;"/>
				</clipPath>
				<path class="st2" d="M8.59,160.77l-0.04-0.05L8.5,160.6l-0.03-0.14l0-0.15l0.02-0.17l0.05-0.18l0.07-0.2l0.1-0.21l0.12-0.22
					l0.15-0.24l0.17-0.25l0.19-0.27l0.22-0.28L9.81,158l0.26-0.31l0.29-0.32l0.31-0.33l0.33-0.34l0.35-0.35l0.37-0.37l0.39-0.38
					l0.41-0.39l0.43-0.4l0.44-0.41l0.46-0.42l0.48-0.43l0.49-0.44l0.51-0.45l0.52-0.45l0.53-0.46l0.55-0.47l0.56-0.48l0.57-0.48
					l0.58-0.49l0.59-0.5l0.6-0.5l0.61-0.51l0.62-0.51l0.63-0.52l0.64-0.52l0.64-0.52l0.65-0.53l0.65-0.53l0.66-0.53l0.66-0.54
					l0.67-0.54l0.67-0.54l0.67-0.54l0.67-0.54l0.67-0.54l0.68-0.54l0.68-0.54l0.68-0.54l0.68-0.54l0.68-0.54l0.68-0.54l0.67-0.54
					l0.67-0.54l0.67-0.54l0.67-0.54l0.67-0.54l0.66-0.54l0.66-0.53l0.66-0.53l0.65-0.53l0.65-0.53l0.64-0.53l0.64-0.52l0.63-0.52
					l0.63-0.52l0.63-0.51l0.62-0.51l0.62-0.51l0.61-0.51l0.6-0.5l0.6-0.5l0.59-0.5l0.59-0.49l0.58-0.49l0.58-0.49l0.57-0.48
					l0.56-0.48l0.56-0.47l0.55-0.47l0.54-0.47l0.54-0.46l0.53-0.46l0.53-0.46l0.52-0.45l0.51-0.45l0.51-0.45l0.5-0.44l0.49-0.44
					l0.49-0.43l0.48-0.43l0.47-0.43l0.47-0.42l0.46-0.42l0.45-0.42l0.45-0.41l0.44-0.41l0.44-0.41l0.43-0.4l0.42-0.4l0.42-0.4
					l0.41-0.39l0.41-0.39l0.4-0.38l0.39-0.38l0.39-0.38l0.38-0.37l0.38-0.37l0.37-0.37l0.36-0.36l0.36-0.36l0.35-0.36l0.35-0.36
					l0.34-0.35l0.34-0.35l0.33-0.35l0.33-0.34l0.32-0.34l0.32-0.34l0.31-0.33l0.31-0.33l0.3-0.33l0.3-0.32l0.29-0.32l0.29-0.32
					l0.28-0.32l0.28-0.31l0.27-0.31l0.27-0.31l0.27-0.31l0.26-0.3l0.26-0.3l0.25-0.3l0.25-0.3l0.24-0.29l0.24-0.29l0.24-0.29
					l0.23-0.29l0.23-0.29l0.22-0.28l0.22-0.28l0.22-0.28l0.21-0.28l0.21-0.27l0.21-0.27l0.2-0.27l0.2-0.27l0.2-0.27l0.19-0.26
					l0.19-0.26l0.18-0.26l0.18-0.26l0.03-0.17l-0.31,0.03l-0.31,0.02l-0.3,0.02l-0.3,0.02l-0.3,0.02l-0.29,0.02l-0.29,0.01
					l-0.29,0.01l-0.28,0.01l-0.28,0.01l-0.28,0.01l-0.28,0.01l-0.27,0l-0.27,0l-0.27,0h-0.27l-0.26,0l-0.26,0l-0.26,0l-0.26-0.01
					l-0.25-0.01l-0.25-0.01l-0.25-0.01l-0.25-0.01L68.2,98.5l-0.24-0.01l-0.24-0.02l-0.24-0.02l-0.24-0.02l-0.23-0.02l-0.23-0.02
					l-0.23-0.02l-0.23-0.02l-0.23-0.02l-0.22-0.02l-0.22-0.03l-0.22-0.03l-0.22-0.03l-0.22-0.03l-0.21-0.03l-0.21-0.03l-0.21-0.03
					l-0.21-0.03l-0.21-0.03l-0.21-0.03l-0.2-0.03l-0.2-0.04l-0.2-0.04l-0.2-0.04l-0.2-0.04l-0.2-0.04l-0.19-0.04l-0.19-0.04
					l-0.19-0.04l-0.19-0.04l-0.19-0.05l-0.19-0.04l-0.19-0.05l-0.18-0.05l-0.18-0.05l-0.18-0.05l-0.18-0.05l-0.18-0.05l-0.18-0.05
					l-0.18-0.05l-0.18-0.05l-0.17-0.05l-0.17-0.05l-0.17-0.05l-0.17-0.05l-0.17-0.06l-0.17-0.06l-0.17-0.06l-0.17-0.06l-0.16-0.06
					l-0.16-0.06l-0.16-0.06l-0.16-0.06l-0.16-0.06l-0.16-0.06l-0.16-0.06l-0.16-0.06l-0.16-0.06l-0.16-0.06l-0.16-0.06l-0.15-0.06
					l-0.15-0.07l-0.15-0.07l-0.15-0.07l-0.15-0.07l-0.15-0.07l-0.15-0.07l-0.15-0.07l-0.15-0.07l-0.15-0.07l-0.14-0.07l-0.14-0.07
					l-0.14-0.07l-0.14-0.07l-0.14-0.07l-0.14-0.07l-0.14-0.07l-0.14-0.07l-0.14-0.07l-0.14-0.07l-0.14-0.07l-0.14-0.08l-0.14-0.08
					l-0.13-0.08l-0.13-0.08l-0.13-0.08l-0.13-0.08l-0.13-0.08l-0.13-0.08l-0.13-0.08l-0.13-0.08l-0.13-0.08l-0.13-0.08l-0.13-0.08
					l-0.13-0.08l-0.13-0.08l-0.13-0.08l-0.13-0.08l-0.13-0.08l-0.12-0.08l-0.12-0.08l-0.12-0.08l-0.12-0.08l-0.12-0.08l-0.12-0.08
					l-0.12-0.08l-0.12-0.08l-0.12-0.08l-0.12-0.08l-0.12-0.08l-0.12-0.08l-0.12-0.09l-0.12-0.09l-0.12-0.09l-0.12-0.09l-0.12-0.09
					l-0.12-0.09l-0.11-0.09l-0.11-0.09l-0.11-0.09l-0.11-0.09l-0.11-0.09l-0.11-0.09l-0.11-0.09l-0.11-0.09l-0.11-0.09l-0.11-0.09
					l-0.11-0.09l-0.11-0.09l-0.11-0.09l-0.11-0.09l-0.11-0.09l-0.11-0.09l-0.11-0.09l-0.11-0.09l-0.11-0.09l-0.11-0.09l-0.11-0.09
					l-0.11-0.09l-0.1-0.09l-0.1-0.09l-0.1-0.09l-0.1-0.09l-0.1-0.09l-0.1-0.09l-0.1-0.09l-0.1-0.09l-0.1-0.1l-0.1-0.09l-0.1-0.09
					l-0.1-0.1l-0.1-0.1l-0.1-0.1l-0.1-0.1l-0.1-0.1l-0.1-0.1l-0.1-0.1l-0.1-0.1l-0.1-0.1l-0.1-0.1l-0.1-0.1l-0.1-0.1l-0.1-0.1
					l-0.1-0.1l-0.1-0.1l-0.1-0.1l-0.1-0.1l-0.1-0.1l-0.1-0.1l-0.1-0.1l-0.09-0.1l-0.09-0.1l-0.09-0.1l-0.09-0.1l-0.09-0.1l-0.09-0.1
					l-0.09-0.1l-0.09-0.1l-0.09-0.1l-0.09-0.1l-0.09-0.1l-0.09-0.1l-0.09-0.1l-0.09-0.1l-0.09-0.1l-0.09-0.1l-0.09-0.1l-0.09-0.1
					l-0.09-0.1l-0.09-0.1l-0.09-0.1l-0.09-0.1l-0.09-0.1l-0.09-0.1l-0.09-0.1l-0.09-0.1l-0.09-0.1l-0.09-0.1l-0.09-0.1l-0.09-0.1
					l-0.09-0.1l-0.09-0.1l-0.09-0.1l-0.09-0.1l-0.09-0.1l-0.09-0.1l-0.09-0.1l-0.09-0.1l-0.09-0.1l-0.08-0.1l-0.09-0.1l-0.08-0.1
					l-0.09-0.1l-0.08-0.11l-0.08-0.1l-0.08-0.1l-0.08-0.11l-0.08-0.1l-0.08-0.11l-0.08-0.11l-0.08-0.11l-0.08-0.11l-0.08-0.11
					l-0.08-0.11l-0.08-0.11l-0.08-0.11l-0.08-0.11l-0.08-0.11l-0.08-0.11l-0.08-0.11l-0.08-0.11l-0.08-0.11l-0.08-0.11l-0.08-0.11
					l-0.08-0.11l-0.08-0.11l-0.08-0.11l-0.08-0.11l-0.08-0.11l-0.08-0.11l-0.08-0.11l-0.08-0.11l-0.08-0.11l-0.08-0.11l-0.08-0.11
					L37,78.74l-0.08-0.11l-0.08-0.11l-0.08-0.11l-0.08-0.11l-0.08-0.11l-0.08-0.11l-0.08-0.11l-0.08-0.11l-0.08-0.11l-0.08-0.11
					l-0.08-0.11l-0.08-0.11l-0.08-0.11l-0.08-0.11l-0.08-0.11L35.76,77l-0.08-0.11l-0.08-0.11l-0.08-0.11l-0.08-0.11l-0.08-0.11
					l-0.08-0.11l-0.08-0.11l-0.07-0.11l-0.08-0.11l-0.07-0.11l-0.07-0.11l-0.07-0.11l-0.07-0.11l-0.07-0.11l-0.07-0.11l-0.07-0.11
					l-0.07-0.11l-0.07-0.11l-0.07-0.11l-0.07-0.11l-0.07-0.11l-0.07-0.11l-0.07-0.11l-0.07-0.11l-0.07-0.11l-0.07-0.11l-0.07-0.11
					l-0.07-0.11l-0.07-0.11l-0.07-0.11l-0.07-0.11l-0.07-0.11l-0.07-0.11l-0.07-0.11l-0.07-0.11L33.12,73l-0.07-0.11l-0.07-0.11
					l-0.07-0.11l-0.07-0.11l-0.07-0.11l-0.07-0.11l-0.07-0.11l-0.07-0.11l-0.07-0.11l-0.07-0.11l-0.07-0.11l-0.07-0.11l-0.07-0.11
					l-0.07-0.11l-0.07-0.11L32,71.19l-0.07-0.11l-0.07-0.11l-0.07-0.11l-0.07-0.11l-0.07-0.11l-0.07-0.11l-0.07-0.11l-0.07-0.11
					l-0.07-0.11l-0.07-0.11l-0.07-0.12l-0.07-0.11l-0.07-0.11l-0.07-0.12l-0.07-0.11l-0.07-0.11h0.13l0.13,0h0.13l0.13,0l0.13,0
					l0.13,0l0.13,0l0.13,0l0.13,0l0.13,0l0.13,0l0.13,0l0.13,0l0.13,0l0.13,0l0.13,0l0.13,0l0.13,0l0.13,0l0.13,0l0.13,0l0.13,0
					l0.13,0l0.13,0l0.13,0l0.13,0l0.13,0l0.13,0l0.13,0l0.13,0l0.13,0.01l0.13,0l0.13,0.01l0.13,0.01l0.13,0.01l0.13,0.01l0.13,0.01
					l0.13,0.01l0.13,0.01l0.13,0.01l0.13,0.01l0.13,0.01l0.13,0.01l0.13,0.01l0.13,0.01l0.13,0.01l0.13,0.01l0.13,0.01l0.13,0.01
					l0.13,0.01l0.13,0.01l0.13,0.01l0.13,0.01l0.13,0.01l0.13,0.01l0.13,0.01l0.13,0.01l0.13,0.01l0.13,0.01l0.13,0.01l0.13,0.01
					l0.13,0.01l0.13,0.01l0.13,0.01l0.13,0.01l0.13,0.01l0.13,0.01l0.13,0.01l0.13,0.01l0.13,0.01l0.13,0.01l0.13,0.01l0.13,0.01
					l0.13,0.01l0.13,0.01l0.13,0.01l0.13,0.01l0.13,0.01l0.13,0.01l0.13,0.01l0.13,0.01l0.13,0.01l0.13,0.01l0.13,0.01l0.13,0.01
					l0.13,0.01l0.13,0.01l0.13,0.01l0.13,0.01L42.89,70l0.13,0.01l0.13,0.01l0.13,0.02l0.13,0.02l0.13,0.02l0.13,0.02l0.13,0.02
					l0.13,0.02l0.13,0.02l0.13,0.02l0.13,0.02l0.13,0.02l0.13,0.02l0.13,0.02l0.13,0.02l0.13,0.02l0.13,0.02l0.13,0.02l0.13,0.02
					l0.13,0.02l0.13,0.02l0.13,0.02l0.13,0.02l0.13,0.02l0.13,0.02l0.13,0.02l0.13,0.02l0.13,0.02l0.13,0.02l0.13,0.02l0.13,0.02
					l0.13,0.02l0.13,0.02l0.13,0.02l0.13,0.02l0.13,0.02l0.13,0.02l0.13,0.02l0.13,0.02l0.13,0.02l0.13,0.02l0.13,0.02l0.13,0.02
					l0.13,0.03l0.13,0.02L49,70.92l0.13,0.03l0.13,0.03L49.4,71l0.13,0.03l0.13,0.03l0.13,0.03l0.13,0.03l0.13,0.03l0.13,0.03
					l0.13,0.03l0.13,0.03l0.13,0.03l0.13,0.03l0.13,0.03L51,71.34l0.13,0.03l0.13,0.03l0.13,0.03l0.13,0.03l0.13,0.03l0.13,0.03
					l0.13,0.03l0.13,0.03l0.13,0.03l0.13,0.03l0.13,0.03l0.13,0.03l0.13,0.03l0.13,0.03l0.13,0.03l0.13,0.03l0.13,0.04l0.13,0.04
					l0.13,0.04L53.66,72l0.13,0.04l0.13,0.04l0.13,0.04l0.13,0.04l0.13,0.04l0.13,0.04l0.13,0.04l0.13,0.04l0.13,0.04l0.13,0.04
					l0.13,0.04l0.13,0.04l0.13,0.04l0.13,0.04l0.13,0.04l0.13,0.04l0.13,0.04l0.13,0.04l0.13,0.04l0.13,0.04l0.13,0.04l0.13,0.05
					l0.13,0.05l0.13,0.05l0.13,0.05l0.13,0.05l0.13,0.05l0.13,0.05l0.13,0.05l0.13,0.05l0.13,0.05l0.13,0.05l0.13,0.05l0.13,0.05
					l0.13,0.05l0.13,0.05l0.13,0.05l0.13,0.05l0.13,0.05l0.13,0.05l0.13,0.05l0.13,0.06l0.13,0.06l0.13,0.06l0.13,0.06l0.13,0.06
					l0.13,0.06l0.13,0.06l0.13,0.06l0.13,0.06l0.13,0.06l0.13,0.06l0.13,0.06l0.13,0.06l0.13,0.06l0.13,0.06l0.13,0.06l0.13,0.06
					l0.13,0.07L61.63,75l0.13,0.07l0.13,0.07l0.13,0.07l0.13,0.07l0.13,0.07l0.13,0.07l0.13,0.07l0.13,0.07l0.13,0.07l0.13,0.07
					l0.13,0.07l0.13,0.08l0.13,0.08l0.13,0.08l0.13,0.08l0.13,0.08l0.13,0.08l0.13,0.08l0.13,0.08l0.13,0.08l0.13,0.08l0.13,0.08
					l0.13,0.08l0.13,0.08l0.13,0.09l0.13,0.09l0.13,0.09l0.13,0.09l0.13,0.09l0.13,0.09l0.13,0.09l0.13,0.09l0.13,0.09l0.13,0.09
					l0.13,0.1l0.13,0.1l0.13,0.1l0.13,0.1l0.13,0.1l0.13,0.1l0.13,0.1l0.13,0.1l0.13,0.1l0.13,0.11l0.13,0.11l0.13,0.11l0.13,0.11
					l0.13,0.11l0.13,0.11l0.13,0.11l0.13,0.11l0.13,0.12l0.13,0.12l0.13,0.12l0.13,0.12l0.13,0.12l0.13,0.12l0.13,0.12l0.13,0.13
					l0.13,0.13l0.13,0.13l0.13,0.13l0.13,0.13l0.13,0.13l0.13,0.13l0.13,0.14l0.13,0.14l0.13,0.14l0.13,0.14l0.13,0.14l0.13,0.14
					l0.13,0.15l0.13,0.15l0.13,0.15l0.13,0.15l0.13,0.15l0.13,0.15L72,83.13l0.13,0.16l0.13,0.16l0.13,0.16l0.13,0.16l0.13,0.17
					l0.13,0.17l0.13,0.17l0.13,0.17l0.13,0.17l0.13,0.18l0.13,0.18l0.13,0.18l0.13,0.18l0.13,0.18L74,85.7l0.13,0.19l0.13,0.19
					l0.13,0.19l0.13,0.2l0.13,0.2l0.13,0.2l0.13,0.2l0.13,0.21l0.13,0.21l0.13,0.21l0.13,0.21l0.13,0.22l0.13,0.22l0.13,0.22
					l0.13,0.22l0.13,0.23l0.13,0.23l0.13,0.23l0.13,0.24l0.13,0.24l0.13,0.24l0.13,0.25l0.13,0.25l0.13,0.25l0.13,0.26l0.13,0.26
					l0.13,0.26l0.13,0.27l0.13,0.27l0.13,0.27l0.13,0.27l0.13,0.28l0.13-0.11l0.13-0.29l0.13-0.29l0.13-0.29l0.13-0.3l0.13-0.3
					l0.13-0.31l0.13-0.31l0.13-0.31l0.13-0.32l0.13-0.32l0.13-0.33l0.13-0.33l0.13-0.34l0.13-0.34l0.13-0.34l0.13-0.35l0.13-0.35
					l0.13-0.36l0.13-0.36l0.13-0.37l0.13-0.37l0.13-0.38l0.13-0.38l0.13-0.39l0.13-0.39l0.13-0.4l0.13-0.4l0.13-0.41l0.13-0.42
					l0.13-0.42l0.13-0.43l0.13-0.43l0.13-0.44l0.13-0.44l0.13-0.45l0.13-0.45l0.13-0.46l0.13-0.47l0.13-0.47l0.13-0.48l0.13-0.49
					l0.13-0.49l0.13-0.5l0.13-0.51l0.13-0.51l0.13-0.52l0.13-0.53l0.13-0.53l0.13-0.54l0.13-0.55l0.13-0.55l0.13-0.56l0.13-0.57
					l0.13-0.57l0.13-0.58l0.13-0.59l0.13-0.59l0.13-0.6l0.13-0.61l0.13-0.62l0.13-0.62l0.13-0.63l0.13-0.64l0.13-0.65l0.13-0.65
					l0.13-0.66l0.13-0.67l0.13-0.68l0.13-0.68l0.13-0.69l0.13-0.7l0.13-0.7l0.13-0.71l0.13-0.72l0.13-0.73l0.13-0.73l0.13-0.74
					l0.13-0.75l0.13-0.75l0.13-0.76l0.13-0.77l0.13-0.77l0.13-0.78L89.55,50l0.13-0.79l0.13-0.8l0.13-0.8l0.13-0.81l0.13-0.82
					l0.13-0.82l0.13-0.83l0.13-0.83l0.13-0.83l0.13-0.84l0.13-0.84l0.13-0.85l0.13-0.85l0.13-0.85l0.13-0.85l0.13-0.86l0.13-0.86
					l0.13-0.86l0.13-0.86l0.13-0.86l0.13-0.86l0.13-0.86l0.13-0.86l0.13-0.85l0.13-0.85l0.13-0.85l0.13-0.84l0.13-0.84l0.13-0.84
					l0.13-0.83L93.68,24l0.13-0.82l0.13-0.81l0.13-0.8l0.13-0.79L94.34,20l0.13-0.77l0.13-0.76l0.13-0.75l0.13-0.74l0.13-0.72
					l0.13-0.71l0.13-0.69l0.13-0.68l0.13-0.66l0.13-0.64l0.13-0.63l0.13-0.61l0.13-0.59l0.13-0.57l0.13-0.55l0.13-0.52l0.13-0.5
					l0.13-0.48l0.13-0.46L97,7.53l0.13-0.41l0.13-0.38l0.13-0.36l0.13-0.33l0.13-0.3l0.13-0.27l0.13-0.25l0.13-0.22l0.13-0.19
					l0.13-0.16l0.13-0.13l0.13-0.1l0.13-0.07l0.13-0.04l0.13-0.01l0.13,0.01l0.13,0.04l0.13,0.07l0.13,0.1l0.13,0.13l0.13,0.16
					l0.13,0.19l0.13,0.22l0.13,0.25l0.13,0.27l0.13,0.3l0.13,0.33l0.13,0.36l0.13,0.38l0.13,0.41l0.13,0.43l0.13,0.46l0.13,0.48
					l0.13,0.5l0.13,0.52l0.13,0.55l0.13,0.57l0.13,0.59l0.13,0.61l0.13,0.63l0.13,0.64l0.13,0.66l0.13,0.68l0.13,0.69l0.13,0.71
					l0.13,0.72l0.13,0.74l0.13,0.75l0.13,0.76l0.13,0.77l0.13,0.78l0.13,0.79l0.13,0.8l0.13,0.81l0.13,0.82l0.13,0.82l0.13,0.83
					l0.13,0.84l0.13,0.84l0.13,0.84l0.13,0.85l0.13,0.85l0.13,0.85l0.13,0.86l0.13,0.86l0.13,0.86l0.13,0.86l0.13,0.86l0.13,0.86
					l0.13,0.86l0.13,0.86l0.13,0.85l0.13,0.85l0.13,0.85l0.13,0.85l0.13,0.84l0.13,0.84l0.13,0.83l0.13,0.83l0.13,0.83l0.13,0.82
					l0.13,0.82l0.13,0.81l0.13,0.8l0.13,0.8l0.13,0.79l0.13,0.79l0.13,0.78l0.13,0.77l0.13,0.77l0.13,0.76l0.13,0.75l0.13,0.75
					l0.13,0.74l0.13,0.73l0.13,0.73l0.13,0.72l0.13,0.71l0.13,0.7l0.13,0.7l0.13,0.69l0.13,0.68l0.13,0.68l0.13,0.67l0.13,0.66
					l0.13,0.65l0.13,0.65l0.13,0.64l0.13,0.63l0.13,0.62l0.13,0.62l0.13,0.61l0.13,0.6l0.13,0.59l0.13,0.59l0.13,0.58l0.13,0.57
					l0.13,0.57l0.13,0.56l0.13,0.55l0.13,0.55l0.13,0.54l0.13,0.53l0.13,0.53l0.13,0.52l0.13,0.51l0.13,0.51l0.13,0.5l0.13,0.49
					l0.13,0.49l0.13,0.48l0.13,0.47l0.13,0.47l0.13,0.46l0.13,0.45l0.13,0.45l0.13,0.44l0.13,0.44l0.13,0.43l0.13,0.43l0.13,0.42
					l0.13,0.42l0.13,0.41l0.13,0.4l0.13,0.4l0.13,0.39l0.13,0.39l0.13,0.38l0.13,0.38l0.13,0.37l0.13,0.37l0.13,0.36l0.13,0.36
					l0.13,0.35l0.13,0.35l0.13,0.34l0.13,0.34l0.13,0.34l0.13,0.33l0.13,0.33l0.13,0.32l0.13,0.32l0.13,0.31l0.13,0.31l0.13,0.31
					l0.13,0.3l0.13,0.3l0.13,0.29l0.13,0.29l0.13,0.29l0.13,0.11l0.13-0.28l0.13-0.27l0.13-0.27l0.13-0.27l0.13-0.27l0.13-0.26
					l0.13-0.26l0.13-0.26l0.13-0.25l0.13-0.25l0.13-0.25l0.13-0.24l0.13-0.24l0.13-0.24l0.13-0.23l0.13-0.23l0.13-0.23l0.13-0.22
					l0.13-0.22l0.13-0.22l0.13-0.22l0.13-0.21l0.13-0.21l0.13-0.21l0.13-0.21l0.13-0.2l0.13-0.2l0.13-0.2l0.13-0.2l0.13-0.19
					l0.13-0.19l0.13-0.19l0.13-0.19l0.13-0.18l0.13-0.18l0.13-0.18l0.13-0.18l0.13-0.18l0.13-0.17l0.13-0.17l0.13-0.17l0.13-0.17
					l0.13-0.17l0.13-0.16l0.13-0.16l0.13-0.16l0.13-0.16l0.13-0.16l0.13-0.15l0.13-0.15l0.13-0.15l0.13-0.15l0.13-0.15l0.13-0.15
					l0.13-0.14l0.13-0.14l0.13-0.14l0.13-0.14l0.13-0.14l0.13-0.14l0.13-0.13l0.13-0.13l0.13-0.13l0.13-0.13l0.13-0.13l0.13-0.13
					l0.13-0.13l0.13-0.12l0.13-0.12l0.13-0.12l0.13-0.12l0.13-0.12l0.13-0.12l0.13-0.12l0.13-0.11l0.13-0.11l0.13-0.11l0.13-0.11
					l0.13-0.11l0.13-0.11l0.13-0.11l0.13-0.11l0.13-0.1l0.13-0.1l0.13-0.1l0.13-0.1l0.13-0.1l0.13-0.1l0.13-0.1l0.13-0.1l0.13-0.1
					l0.13-0.09l0.13-0.09l0.13-0.09l0.13-0.09l0.13-0.09l0.13-0.09l0.13-0.09l0.13-0.09l0.13-0.09l0.13-0.09l0.13-0.08l0.13-0.08
					l0.13-0.08l0.13-0.08l0.13-0.08l0.13-0.08l0.13-0.08l0.13-0.08l0.13-0.08l0.13-0.08l0.13-0.08l0.13-0.08l0.13-0.08l0.13-0.07
					l0.13-0.07l0.13-0.07l0.13-0.07l0.13-0.07l0.13-0.07l0.13-0.07l0.13-0.07l0.13-0.07l0.13-0.07l0.13-0.07l0.13-0.07l0.13-0.07
					l0.13-0.06l0.13-0.06l0.13-0.06l0.13-0.06l0.13-0.06l0.13-0.06l0.13-0.06l0.13-0.06l0.13-0.06l0.13-0.06l0.13-0.06l0.13-0.06
					l0.13-0.06l0.13-0.06l0.13-0.06l0.13-0.06l0.13-0.06l0.13-0.05l0.13-0.05l0.13-0.05l0.13-0.05l0.13-0.05l0.13-0.05l0.13-0.05
					l0.13-0.05l0.13-0.05l0.13-0.05l0.13-0.05l0.13-0.05l0.13-0.05l0.13-0.05l0.13-0.05l0.13-0.05l0.13-0.05l0.13-0.05l0.13-0.05
					l0.13-0.05l0.13-0.04l0.13-0.04l0.13-0.04l0.13-0.04l0.13-0.04l0.13-0.04l0.13-0.04l0.13-0.04l0.13-0.04l0.13-0.04l0.13-0.04
					l0.13-0.04l0.13-0.04l0.13-0.04l0.13-0.04l0.13-0.04l0.13-0.04l0.13-0.04l0.13-0.04l0.13-0.04l0.13-0.04l0.13-0.04l0.13-0.04
					l0.13-0.04l0.13-0.04l0.13-0.03l0.13-0.03l0.13-0.03l0.13-0.03l0.13-0.03l0.13-0.03l0.13-0.03l0.13-0.03l0.13-0.03l0.13-0.03
					l0.13-0.03l0.13-0.03l0.13-0.03l0.13-0.03l0.13-0.03l0.13-0.03l0.13-0.03l0.13-0.03l0.13-0.03l0.13-0.03l0.13-0.03l0.13-0.03
					l0.13-0.03l0.13-0.03l0.13-0.03l0.13-0.03l0.13-0.03l0.13-0.03l0.13-0.03l0.13-0.03l0.13-0.03l0.13-0.03l0.13-0.02l0.13-0.03
					l0.13-0.02l0.13-0.02l0.13-0.02l0.13-0.02l0.13-0.02l0.13-0.02l0.13-0.02l0.13-0.02l0.13-0.02l0.13-0.02l0.13-0.02l0.13-0.02
					l0.13-0.02l0.13-0.02l0.13-0.02l0.13-0.02l0.13-0.02l0.13-0.02l0.13-0.02l0.13-0.02l0.13-0.02l0.13-0.02l0.13-0.02l0.13-0.02
					l0.13-0.02l0.13-0.02l0.13-0.02l0.13-0.02l0.13-0.02l0.13-0.02l0.13-0.02l0.13-0.02l0.13-0.02l0.13-0.02l0.13-0.02l0.13-0.02
					l0.13-0.02l0.13-0.02l0.13-0.02l0.13-0.02l0.13-0.02l0.13-0.01L155.1,70l0.13-0.02l0.13-0.01l0.13-0.01l0.13-0.01l0.13-0.01
					l0.13-0.01l0.13-0.01l0.13-0.01l0.13-0.01l0.13-0.01l0.13-0.01l0.13-0.01l0.13-0.01l0.13-0.01l0.13-0.01l0.13-0.01l0.13-0.01
					l0.13-0.01l0.13-0.01l0.13-0.01l0.13-0.01l0.13-0.01l0.13-0.01l0.13-0.01l0.13-0.01l0.13-0.01l0.13-0.01l0.13-0.01l0.13-0.01
					l0.13-0.01l0.13-0.01l0.13-0.01l0.13-0.01l0.13-0.01l0.13-0.01l0.13-0.01l0.13-0.01l0.13-0.01l0.13-0.01l0.13-0.01l0.13-0.01
					l0.13-0.01l0.13-0.01l0.13-0.01l0.13-0.01l0.13-0.01l0.13-0.01l0.13-0.01l0.13-0.01l0.13-0.01l0.13-0.01l0.13-0.01l0.13-0.01
					l0.13-0.01l0.13-0.01l0.13-0.01l0.13-0.01l0.13-0.01l0.13,0l0.13-0.01l0.13,0l0.13,0l0.13,0l0.13,0l0.13,0l0.13,0l0.13,0l0.13,0
					l0.13,0l0.13,0l0.13,0l0.13,0l0.13,0l0.13,0l0.13,0l0.13,0l0.13,0l0.13,0l0.13,0l0.13,0l0.13,0l0.13,0l0.13,0l0.13,0l0.13,0
					l0.13,0l0.13,0h0.13l0.13,0l-0.07,0.12l-0.07,0.11l-0.07,0.12l-0.07,0.12l-0.07,0.11l-0.07,0.11l-0.07,0.11l-0.07,0.11
					l-0.07,0.11l-0.07,0.11l-0.07,0.11l-0.07,0.11l-0.07,0.11l-0.07,0.11l-0.07,0.11l-0.07,0.11l-0.07,0.11l-0.07,0.11l-0.07,0.11
					l-0.07,0.11l-0.07,0.11l-0.07,0.11l-0.07,0.11l-0.07,0.11l-0.07,0.11l-0.07,0.11l-0.07,0.11l-0.07,0.11l-0.07,0.11l-0.07,0.11
					l-0.07,0.11L164.74,73l-0.07,0.11l-0.07,0.11l-0.07,0.11l-0.07,0.11l-0.07,0.11l-0.07,0.11l-0.07,0.11l-0.07,0.11l-0.07,0.11
					l-0.07,0.11l-0.07,0.11l-0.07,0.11l-0.07,0.11l-0.07,0.11l-0.07,0.11l-0.07,0.11l-0.07,0.11l-0.07,0.11l-0.07,0.11l-0.07,0.11
					l-0.07,0.11l-0.07,0.11l-0.07,0.11L163,75.68l-0.07,0.11l-0.07,0.11l-0.07,0.11l-0.07,0.11l-0.08,0.11l-0.07,0.11l-0.08,0.11
					l-0.07,0.11l-0.08,0.11l-0.08,0.11l-0.08,0.11L162.1,77l-0.08,0.11l-0.08,0.11l-0.08,0.11l-0.08,0.11l-0.08,0.11l-0.08,0.11
					l-0.08,0.11l-0.08,0.11l-0.08,0.11l-0.08,0.11l-0.08,0.11l-0.08,0.11l-0.08,0.11l-0.08,0.11l-0.08,0.11l-0.08,0.11l-0.08,0.11
					l-0.08,0.11l-0.08,0.11l-0.08,0.11l-0.08,0.11l-0.08,0.11l-0.08,0.11l-0.08,0.11l-0.08,0.11l-0.08,0.11l-0.08,0.11l-0.08,0.11
					l-0.08,0.11l-0.08,0.11l-0.08,0.11l-0.08,0.11l-0.08,0.11l-0.08,0.11l-0.08,0.11l-0.08,0.11L159.18,81l-0.08,0.11l-0.08,0.11
					l-0.08,0.11l-0.08,0.11l-0.08,0.11l-0.08,0.1l-0.08,0.11l-0.08,0.11l-0.08,0.11l-0.08,0.11l-0.08,0.1l-0.08,0.1l-0.08,0.1
					l-0.09,0.1l-0.08,0.1l-0.09,0.1l-0.08,0.1l-0.09,0.1l-0.09,0.1l-0.09,0.1l-0.09,0.1l-0.09,0.1l-0.09,0.1l-0.09,0.1l-0.09,0.1
					l-0.09,0.1l-0.09,0.1l-0.09,0.1l-0.09,0.1l-0.09,0.1l-0.09,0.1l-0.09,0.1l-0.09,0.1l-0.09,0.1l-0.09,0.1l-0.09,0.1l-0.09,0.1
					l-0.09,0.1l-0.09,0.1l-0.09,0.1l-0.09,0.1l-0.09,0.1l-0.09,0.1l-0.09,0.1l-0.09,0.1l-0.09,0.1l-0.09,0.1l-0.09,0.1l-0.09,0.1
					l-0.09,0.1l-0.09,0.1l-0.09,0.1l-0.09,0.1l-0.09,0.1l-0.09,0.1l-0.09,0.1l-0.1,0.1l-0.1,0.1l-0.1,0.1l-0.1,0.1l-0.1,0.1
					l-0.1,0.1l-0.1,0.1l-0.1,0.1l-0.1,0.1l-0.1,0.1l-0.1,0.1l-0.1,0.1l-0.1,0.1l-0.1,0.1l-0.1,0.1l-0.1,0.1l-0.1,0.1l-0.1,0.1
					l-0.1,0.1l-0.1,0.1l-0.1,0.09l-0.1,0.09l-0.1,0.09l-0.1,0.09l-0.1,0.09l-0.1,0.09l-0.1,0.09l-0.1,0.09l-0.1,0.09l-0.1,0.09
					l-0.11,0.09l-0.11,0.09l-0.11,0.09l-0.11,0.09l-0.11,0.09l-0.11,0.09l-0.11,0.09l-0.11,0.09l-0.11,0.09l-0.11,0.09l-0.11,0.09
					l-0.11,0.09l-0.11,0.09l-0.11,0.09l-0.11,0.09l-0.11,0.09l-0.11,0.09l-0.11,0.09l-0.11,0.09l-0.11,0.09l-0.11,0.09l-0.11,0.09
					l-0.11,0.09l-0.12,0.09l-0.12,0.09l-0.12,0.09l-0.12,0.09l-0.12,0.09l-0.12,0.09l-0.12,0.09l-0.12,0.08l-0.12,0.08l-0.12,0.08
					l-0.12,0.08l-0.12,0.08l-0.12,0.08l-0.12,0.08l-0.12,0.08l-0.12,0.08l-0.12,0.08l-0.12,0.08l-0.12,0.08l-0.13,0.08l-0.13,0.08
					l-0.13,0.08l-0.13,0.08l-0.13,0.08l-0.13,0.08l-0.13,0.08l-0.13,0.08l-0.13,0.08l-0.13,0.08l-0.13,0.08l-0.13,0.08l-0.13,0.08
					l-0.13,0.08l-0.14,0.08l-0.14,0.08l-0.14,0.07l-0.14,0.07l-0.14,0.07l-0.14,0.07l-0.14,0.07l-0.14,0.07l-0.14,0.07l-0.14,0.07
					l-0.14,0.07l-0.14,0.07l-0.14,0.07l-0.14,0.07l-0.15,0.07l-0.15,0.07l-0.15,0.07l-0.15,0.07l-0.15,0.07l-0.15,0.07l-0.15,0.07
					l-0.15,0.07l-0.15,0.07l-0.15,0.06l-0.16,0.06l-0.16,0.06l-0.16,0.06l-0.16,0.06l-0.16,0.06l-0.16,0.06l-0.16,0.06l-0.16,0.06
					l-0.16,0.06l-0.16,0.06l-0.17,0.06l-0.17,0.06l-0.17,0.06l-0.17,0.06l-0.17,0.06l-0.17,0.06l-0.17,0.05l-0.17,0.05l-0.17,0.05
					l-0.18,0.05l-0.18,0.05l-0.18,0.05l-0.18,0.05l-0.18,0.05l-0.18,0.05l-0.18,0.05l-0.19,0.05l-0.19,0.05l-0.19,0.05l-0.19,0.04
					l-0.19,0.04l-0.19,0.04l-0.19,0.04l-0.19,0.04l-0.2,0.04l-0.2,0.04l-0.2,0.04l-0.2,0.04l-0.2,0.04l-0.21,0.04l-0.21,0.03
					l-0.21,0.03l-0.21,0.03l-0.21,0.03l-0.21,0.03l-0.21,0.03l-0.22,0.03l-0.22,0.03l-0.22,0.03l-0.22,0.03l-0.22,0.02l-0.23,0.02
					l-0.23,0.02l-0.23,0.02l-0.23,0.02l-0.23,0.02l-0.24,0.02l-0.24,0.02l-0.24,0.02l-0.24,0.01l-0.25,0.01l-0.25,0.01l-0.25,0.01
					l-0.25,0.01l-0.25,0.01l-0.26,0.01l-0.26,0l-0.26,0l-0.26,0h-0.27l-0.27,0l-0.27,0l-0.27,0l-0.28-0.01l-0.28-0.01l-0.28-0.01
					l-0.28-0.01l-0.29-0.01l-0.29-0.01l-0.29-0.02l-0.3-0.02l-0.3-0.02l-0.3-0.02l-0.3-0.02l-0.31-0.02l0.03,0.17l0.18,0.26
					l0.18,0.26l0.19,0.26l0.19,0.26l0.19,0.27l0.2,0.27l0.2,0.27l0.21,0.27l0.21,0.27l0.21,0.28l0.22,0.28l0.22,0.28l0.22,0.28
					l0.23,0.29l0.23,0.29l0.24,0.29l0.24,0.29l0.24,0.29l0.25,0.3l0.25,0.3l0.26,0.3l0.26,0.3l0.27,0.31l0.27,0.31l0.27,0.31
					l0.28,0.31l0.28,0.32l0.29,0.32l0.29,0.32l0.3,0.33l0.3,0.33l0.31,0.33l0.31,0.33l0.32,0.34l0.32,0.34l0.33,0.34l0.33,0.35
					l0.34,0.35l0.34,0.35l0.35,0.36l0.35,0.36l0.36,0.36l0.36,0.36l0.37,0.37l0.38,0.37l0.38,0.37l0.39,0.38l0.39,0.38l0.4,0.38
					l0.41,0.39l0.41,0.39l0.42,0.4l0.42,0.4l0.43,0.4l0.44,0.41l0.44,0.41l0.45,0.41l0.45,0.42l0.46,0.42l0.47,0.42l0.47,0.43
					l0.48,0.43l0.49,0.43l0.49,0.44l0.5,0.44l0.51,0.45l0.51,0.45l0.52,0.45l0.52,0.46l0.53,0.46l0.54,0.46l0.54,0.47l0.55,0.47
					l0.56,0.47l0.56,0.48l0.57,0.48l0.57,0.49l0.58,0.49l0.59,0.49l0.59,0.5l0.6,0.5l0.6,0.5l0.61,0.51l0.62,0.51l0.62,0.51
					l0.63,0.51l0.63,0.52l0.64,0.52l0.64,0.52l0.64,0.52l0.65,0.53l0.65,0.53l0.66,0.53l0.66,0.53l0.66,0.54l0.67,0.54l0.67,0.54
					l0.67,0.54l0.67,0.54l0.67,0.54l0.68,0.54l0.68,0.54l0.68,0.54l0.68,0.54l0.68,0.54l0.68,0.54l0.67,0.54l0.67,0.54l0.67,0.54
					l0.67,0.54l0.67,0.54l0.66,0.54l0.66,0.53l0.65,0.53l0.65,0.53l0.64,0.52l0.64,0.52l0.63,0.52l0.62,0.51l0.61,0.51l0.6,0.5
					l0.59,0.5l0.58,0.49l0.57,0.48l0.56,0.48l0.55,0.47l0.53,0.46l0.52,0.45l0.51,0.45l0.49,0.44l0.48,0.43l0.46,0.42l0.44,0.41
					l0.43,0.4l0.41,0.39l0.39,0.38l0.37,0.37l0.35,0.35l0.33,0.34l0.31,0.33l0.29,0.32l0.26,0.31l0.24,0.29l0.22,0.28l0.19,0.27
					l0.17,0.25l0.15,0.24l0.12,0.22l0.1,0.21l0.07,0.2l0.05,0.18l0.02,0.17l0,0.15l-0.03,0.14l-0.05,0.12l-0.08,0.11l-0.11,0.09
					l-0.13,0.08l-0.16,0.06l-0.18,0.05l-0.21,0.03l-0.23,0.02l-0.26,0.01l-0.28-0.01l-0.3-0.02l-0.33-0.04l-0.35-0.05l-0.37-0.06
					l-0.4-0.08l-0.42-0.09l-0.44-0.1l-0.46-0.11l-0.48-0.12l-0.5-0.14l-0.52-0.15l-0.54-0.16l-0.56-0.17l-0.58-0.18l-0.59-0.19
					l-0.61-0.2l-0.62-0.21l-0.64-0.22l-0.65-0.22l-0.67-0.23l-0.68-0.24l-0.69-0.25l-0.71-0.25l-0.72-0.26l-0.73-0.27l-0.74-0.27
					l-0.75-0.28l-0.75-0.28l-0.76-0.29l-0.77-0.29l-0.77-0.29l-0.78-0.3l-0.79-0.3l-0.79-0.3l-0.8-0.3l-0.8-0.31l-0.8-0.31
					l-0.8-0.31l-0.81-0.31l-0.81-0.31l-0.81-0.31l-0.81-0.31l-0.81-0.31l-0.81-0.31l-0.81-0.31l-0.81-0.31l-0.81-0.31l-0.81-0.31
					l-0.8-0.31l-0.8-0.31l-0.8-0.31l-0.8-0.31l-0.79-0.3l-0.79-0.3l-0.79-0.3l-0.78-0.3l-0.78-0.3l-0.77-0.29l-0.77-0.29l-0.76-0.29
					l-0.76-0.28l-0.75-0.28l-0.75-0.28l-0.74-0.28l-0.74-0.27l-0.73-0.27l-0.73-0.27l-0.72-0.26l-0.71-0.26l-0.71-0.26l-0.7-0.25
					l-0.7-0.25l-0.69-0.25l-0.68-0.24l-0.68-0.24l-0.67-0.23l-0.66-0.23l-0.66-0.23l-0.65-0.22l-0.64-0.22l-0.64-0.22l-0.63-0.21
					l-0.63-0.21l-0.62-0.2l-0.61-0.2l-0.61-0.2l-0.6-0.19l-0.59-0.19l-0.59-0.19l-0.58-0.18l-0.58-0.18l-0.57-0.17l-0.56-0.17
					l-0.56-0.17l-0.55-0.16l-0.54-0.16l-0.54-0.16l-0.53-0.15l-0.53-0.15l-0.52-0.15l-0.52-0.14l-0.51-0.14l-0.5-0.14l-0.5-0.13
					l-0.49-0.13l-0.49-0.13l-0.48-0.12l-0.48-0.12l-0.47-0.12l-0.47-0.12l-0.46-0.11l-0.46-0.11l-0.45-0.11l-0.45-0.1l-0.44-0.1
					l-0.44-0.1l-0.43-0.1l-0.43-0.09l-0.42-0.09l-0.42-0.09l-0.41-0.08l-0.41-0.08l-0.4-0.08l-0.4-0.08l-0.39-0.07l-0.39-0.07
					l-0.39-0.07l-0.38-0.07l-0.38-0.06l-0.37-0.06l-0.37-0.06l-0.36-0.06l-0.36-0.06l-0.36-0.05l-0.35-0.05l-0.35-0.05l-0.35-0.05
					l-0.34-0.04l-0.34-0.04l-0.34-0.04l-0.33-0.04l-0.33-0.04l-0.33-0.03l-0.32-0.03l-0.32-0.03l-0.32-0.03l-0.16,0.06l0.18,0.25
					l0.17,0.25l0.17,0.25l0.17,0.25l0.16,0.25l0.16,0.25l0.16,0.24l0.16,0.24l0.15,0.24l0.15,0.24l0.15,0.24l0.14,0.24l0.14,0.23
					l0.14,0.23l0.14,0.23l0.13,0.23l0.13,0.23l0.13,0.23l0.13,0.23l0.12,0.23l0.12,0.22l0.12,0.22l0.12,0.22l0.11,0.22l0.11,0.22
					l0.11,0.22l0.11,0.21l0.11,0.21l0.1,0.21l0.1,0.21l0.1,0.21l0.1,0.21l0.1,0.21l0.09,0.21l0.09,0.21l0.09,0.2l0.09,0.2l0.09,0.2
					l0.08,0.2l0.08,0.2l0.08,0.2l0.08,0.2l0.08,0.2l0.07,0.2l0.07,0.2l0.07,0.19l0.07,0.19l0.07,0.19l0.07,0.19l0.06,0.19l0.06,0.19
					l0.06,0.19l0.06,0.19l0.06,0.19l0.06,0.19l0.06,0.19l0.05,0.18l0.05,0.18l0.05,0.18l0.05,0.18l0.05,0.18l0.05,0.18l0.05,0.18
					l0.05,0.18l0.04,0.18l0.04,0.18l0.04,0.18l0.04,0.18l0.04,0.18l0.04,0.17l0.04,0.18l0.04,0.17l0.03,0.17l0.03,0.17l0.03,0.17
					l0.03,0.17l0.03,0.17l0.03,0.17l0.03,0.17l0.03,0.17l0.03,0.17l0.03,0.17l0.02,0.17l0.02,0.17l0.02,0.17l0.02,0.17l0.02,0.16
					l0.02,0.16l0.02,0.16l0.02,0.16l0.02,0.16l0.02,0.16l0.01,0.16l0.01,0.16l0.01,0.16l0.01,0.16l0.01,0.16l0.01,0.16l0.01,0.16
					l0.01,0.16l0.01,0.16l0.01,0.16l0.01,0.16l0.01,0.16l0.01,0.16l0,0.16l0,0.16l0,0.15l0,0.15l0,0.15l0,0.15v0.15l0,0.15l0,0.15
					l0,0.15l0,0.15l0,0.15l0,0.15l-0.01,0.15l-0.01,0.15l-0.01,0.15l-0.01,0.15l-0.01,0.15l-0.01,0.15l-0.01,0.15l-0.01,0.15
					l-0.01,0.15l-0.01,0.15l-0.01,0.15l-0.01,0.15l-0.01,0.15l-0.01,0.15l-0.01,0.15l-0.01,0.15l-0.01,0.15l-0.01,0.14l-0.01,0.15
					l-0.02,0.14l-0.02,0.14l-0.02,0.14l-0.02,0.14l-0.02,0.14l-0.02,0.14l-0.02,0.14l-0.02,0.14l-0.02,0.14l-0.02,0.14l-0.02,0.14
					l-0.02,0.14l-0.02,0.14l-0.02,0.14l-0.02,0.14l-0.02,0.14l-0.02,0.14l-0.02,0.14l-0.02,0.14l-0.02,0.14l-0.03,0.14l-0.03,0.14
					l-0.03,0.14l-0.03,0.14l-0.03,0.14l-0.03,0.14l-0.03,0.14l-0.03,0.14l-0.03,0.14l-0.03,0.14l-0.03,0.14l-0.03,0.14l-0.03,0.14
					l-0.03,0.14l-0.03,0.14l-0.03,0.14l-0.03,0.14l-0.03,0.14l-0.03,0.14l-0.03,0.14l-0.03,0.13l-0.03,0.14l-0.03,0.13l-0.03,0.13
					l-0.03,0.13l-0.03,0.13l-0.03,0.13l-0.03,0.13l-0.04,0.13l-0.03,0.13l-0.04,0.13l-0.04,0.13l-0.04,0.13l-0.04,0.13l-0.04,0.13
					l-0.04,0.13l-0.04,0.13l-0.04,0.13l-0.04,0.13l-0.04,0.13l-0.04,0.13l-0.04,0.13l-0.04,0.13l-0.04,0.13l-0.04,0.13l-0.04,0.13
					l-0.04,0.13l-0.04,0.13l-0.04,0.13l-0.04,0.13l-0.04,0.13l-0.04,0.13l-0.04,0.13l-0.04,0.13l-0.04,0.13l-0.04,0.13l-0.04,0.13
					l-0.04,0.13l-0.04,0.13l-0.04,0.13l-0.04,0.13l-0.04,0.13l-0.04,0.13l-0.05,0.13l-0.04,0.13l-0.05,0.13l-0.05,0.13l-0.05,0.13
					l-0.05,0.13l-0.05,0.13l-0.05,0.13l-0.05,0.13l-0.05,0.13l-0.05,0.13l-0.05,0.13l-0.05,0.13l-0.05,0.13l-0.05,0.13l-0.05,0.13
					l-0.05,0.13l-0.05,0.13l-0.05,0.13l-0.05,0.13l-0.05,0.12l-0.05,0.13l-0.05,0.12l-0.05,0.12l-0.05,0.13l-0.05,0.12l-0.05,0.12
					l-0.05,0.13l-0.05,0.12l-0.05,0.12l-0.05,0.12l-0.05,0.12l-0.05,0.12l-0.05,0.12l-0.05,0.12l-0.05,0.12l-0.05,0.12l-0.05,0.12
					l-0.05,0.12l-0.05,0.12l-0.05,0.12l-0.05,0.12l-0.05,0.12l-0.05,0.12l-0.05,0.12l-0.05,0.12l-0.05,0.12l-0.05,0.12l-0.05,0.12
					l-0.05,0.12l-0.05,0.12l-0.05,0.12l-0.05,0.12l-0.05,0.12l-0.06,0.12l-0.05,0.12l-0.06,0.12l-0.06,0.12l-0.06,0.12l-0.06,0.12
					l-0.06,0.12l-0.06,0.12l-0.06,0.12l-0.06,0.12l-0.06,0.12l-0.06,0.12l-0.06,0.12l-0.06,0.12l-0.06,0.12l-0.06,0.12l-0.06,0.12
					l-0.06,0.12l-0.06,0.12l-0.06,0.12l-0.06,0.12l-0.06,0.12l-0.06,0.12l-0.06,0.12l-0.06,0.12l-0.06,0.12l-0.06,0.12l-0.06,0.12
					l-0.06,0.12l-0.06,0.12l-0.06,0.12l-0.06,0.12l-0.06,0.12l-0.06,0.12l-0.06,0.12l-0.06,0.12l-0.06,0.12l-0.06,0.12l-0.06,0.12
					l-0.06,0.12l-0.06,0.12l-0.06,0.12l-0.06,0.12l-0.06,0.12l-0.06,0.12l-0.06,0.12l-0.06,0.12l-0.06,0.12l-0.06,0.12l-0.06,0.12
					l-0.06,0.12l-0.06,0.12l-0.06,0.12l-0.06,0.12l-0.06,0.12l-0.06,0.12l-0.06,0.12l-0.06,0.12l-0.06,0.12l-0.06,0.12l-0.06,0.12
					l-0.06,0.12l-0.06,0.12l-0.06,0.12l-0.06,0.12l-0.06,0.12l-0.06,0.12l-0.06,0.12l-0.06,0.12l-0.06,0.12l-0.06,0.12l-0.07,0.12
					l-0.06,0.12l-0.07,0.12l-0.07,0.12l-0.07,0.12l-0.07,0.12l-0.07,0.12l-0.07,0.12l-0.07,0.11l-0.07,0.12l-0.07-0.12l-0.07-0.12
					l-0.07-0.12l-0.07-0.12l-0.07-0.12l-0.07-0.12l-0.07-0.12l-0.07-0.12l-0.07-0.12l-0.06-0.12l-0.07-0.12l-0.06-0.12l-0.06-0.12
					l-0.06-0.12l-0.06-0.12l-0.06-0.12l-0.06-0.12l-0.06-0.12l-0.06-0.12l-0.06-0.12l-0.06-0.12l-0.06-0.12l-0.06-0.12l-0.06-0.12
					l-0.06-0.12l-0.06-0.12l-0.06-0.12l-0.06-0.12l-0.06-0.12l-0.06-0.12l-0.06-0.12l-0.06-0.12l-0.06-0.12l-0.06-0.12l-0.06-0.12
					l-0.06-0.12l-0.06-0.12l-0.06-0.12l-0.06-0.12l-0.06-0.12l-0.06-0.12l-0.06-0.12l-0.06-0.12l-0.06-0.12l-0.06-0.12l-0.06-0.12
					l-0.06-0.12l-0.06-0.12l-0.06-0.12l-0.06-0.12l-0.06-0.12l-0.06-0.12l-0.06-0.12l-0.06-0.12l-0.06-0.12l-0.06-0.12l-0.06-0.12
					l-0.06-0.12l-0.06-0.12l-0.06-0.12l-0.06-0.12l-0.06-0.12l-0.06-0.12l-0.06-0.12l-0.06-0.12l-0.06-0.12l-0.06-0.12l-0.06-0.12
					l-0.06-0.12l-0.06-0.12l-0.06-0.12l-0.06-0.12l-0.06-0.12l-0.06-0.12l-0.06-0.12l-0.06-0.12l-0.06-0.12l-0.06-0.12l-0.06-0.12
					l-0.06-0.12l-0.05-0.12l-0.06-0.12l-0.05-0.12l-0.05-0.12l-0.05-0.12l-0.05-0.12l-0.05-0.12l-0.05-0.12l-0.05-0.12l-0.05-0.12
					l-0.05-0.12l-0.05-0.12l-0.05-0.12l-0.05-0.12l-0.05-0.12l-0.05-0.12l-0.05-0.12l-0.05-0.12l-0.05-0.12l-0.05-0.12l-0.05-0.12
					l-0.05-0.12l-0.05-0.12l-0.05-0.12l-0.05-0.12l-0.05-0.12l-0.05-0.12l-0.05-0.12l-0.05-0.12l-0.05-0.12l-0.05-0.12l-0.05-0.12
					l-0.05-0.13l-0.05-0.12l-0.05-0.13l-0.05-0.13l-0.05-0.13l-0.05-0.13l-0.05-0.13l-0.05-0.13l-0.05-0.13l-0.05-0.13l-0.05-0.13
					l-0.05-0.13l-0.05-0.13l-0.05-0.13l-0.05-0.13l-0.05-0.13l-0.05-0.13l-0.05-0.13l-0.05-0.13l-0.05-0.13l-0.05-0.13l-0.04-0.13
					l-0.05-0.13l-0.04-0.13l-0.04-0.13l-0.04-0.13l-0.04-0.13l-0.04-0.13l-0.04-0.13l-0.04-0.13l-0.04-0.13l-0.04-0.13l-0.04-0.13
					l-0.04-0.13l-0.04-0.13l-0.04-0.13l-0.04-0.13l-0.04-0.13l-0.04-0.13l-0.04-0.13l-0.04-0.13l-0.04-0.13l-0.04-0.13l-0.04-0.13
					l-0.04-0.13l-0.04-0.13l-0.04-0.13l-0.04-0.13l-0.04-0.13l-0.04-0.13l-0.04-0.13l-0.04-0.13l-0.04-0.13l-0.04-0.13l-0.04-0.13
					l-0.04-0.13l-0.04-0.13l-0.04-0.13l-0.04-0.13L89.82,166l-0.03-0.13l-0.03-0.13l-0.03-0.13l-0.03-0.13l-0.03-0.13l-0.03-0.14
					l-0.03-0.13l-0.03-0.14l-0.03-0.14l-0.03-0.14l-0.03-0.14l-0.03-0.14l-0.03-0.14l-0.03-0.14l-0.03-0.14l-0.03-0.14l-0.03-0.14
					l-0.03-0.14l-0.03-0.14l-0.03-0.14l-0.03-0.14l-0.03-0.14l-0.03-0.14l-0.03-0.14l-0.03-0.14l-0.03-0.14l-0.02-0.14l-0.02-0.14
					l-0.02-0.14l-0.02-0.14l-0.02-0.14l-0.02-0.14l-0.02-0.14l-0.02-0.14l-0.02-0.14l-0.02-0.14l-0.02-0.14l-0.02-0.14l-0.02-0.14
					l-0.02-0.14l-0.02-0.14l-0.02-0.14l-0.02-0.14l-0.02-0.14l-0.02-0.14l-0.02-0.14l-0.02-0.14l-0.01-0.14l-0.01-0.14l-0.01-0.15
					l-0.01-0.15l-0.01-0.15l-0.01-0.15l-0.01-0.15l-0.01-0.15l-0.01-0.15l-0.01-0.15l-0.01-0.15l-0.01-0.15l-0.01-0.15l-0.01-0.15
					l-0.01-0.15l-0.01-0.15l-0.01-0.15l-0.01-0.15l0-0.15l0-0.15l0-0.15l0-0.15l0-0.15l0-0.15l0-0.15l0-0.15l0-0.15l0-0.15l0-0.15
					l0-0.16l0-0.16l0-0.16l0.01-0.16l0.01-0.16l0.01-0.16l0.01-0.16l0.01-0.16l0.01-0.16l0.01-0.16l0.01-0.16l0.01-0.16l0.01-0.16
					l0.01-0.16l0.01-0.16l0.01-0.16l0.02-0.16l0.02-0.16l0.02-0.16l0.02-0.16l0.02-0.16l0.02-0.16l0.02-0.17l0.02-0.17l0.02-0.17
					l0.02-0.17l0.03-0.17l0.03-0.17l0.03-0.17l0.03-0.17l0.03-0.17l0.03-0.17l0.03-0.17l0.03-0.17l0.03-0.17l0.03-0.17l0.04-0.17
					l0.04-0.18l0.04-0.18l0.04-0.18l0.04-0.18l0.04-0.18l0.04-0.18l0.04-0.18l0.05-0.18l0.05-0.18l0.05-0.18l0.05-0.18l0.05-0.18
					l0.05-0.18l0.05-0.18l0.05-0.18l0.06-0.19l0.06-0.19l0.06-0.19l0.06-0.19l0.06-0.19l0.06-0.19l0.06-0.19l0.07-0.19l0.07-0.19
					l0.07-0.19l0.07-0.19l0.07-0.2l0.07-0.2l0.08-0.2l0.08-0.2l0.08-0.2l0.08-0.2l0.08-0.2l0.08-0.2l0.09-0.2l0.09-0.2l0.09-0.21
					l0.09-0.21l0.09-0.21l0.1-0.21l0.1-0.21l0.1-0.21l0.1-0.21l0.11-0.21l0.11-0.22l0.11-0.22l0.11-0.22l0.11-0.22l0.12-0.22
					l0.12-0.22l0.12-0.22l0.12-0.22l0.13-0.23l0.13-0.23l0.13-0.23l0.13-0.23l0.14-0.23l0.14-0.23l0.14-0.23l0.14-0.24l0.15-0.24
					l0.15-0.24l0.15-0.24l0.16-0.24l0.16-0.24l0.16-0.25l0.16-0.25l0.17-0.25l0.17-0.25l0.17-0.25l0.18-0.26l-0.16-0.06l-0.32,0.03
					l-0.32,0.03l-0.32,0.03l-0.32,0.03l-0.33,0.04l-0.33,0.04l-0.33,0.04l-0.34,0.04l-0.34,0.04l-0.35,0.05L92,134.65l-0.35,0.05
					l-0.36,0.05l-0.36,0.06l-0.37,0.06l-0.37,0.06l-0.37,0.06l-0.38,0.06l-0.38,0.07l-0.39,0.07l-0.39,0.07l-0.39,0.07l-0.4,0.08
					l-0.4,0.08l-0.41,0.08l-0.41,0.08l-0.42,0.09l-0.42,0.09l-0.43,0.09l-0.43,0.1l-0.44,0.1l-0.44,0.1l-0.45,0.1l-0.45,0.11
					l-0.46,0.11l-0.46,0.11l-0.47,0.11l-0.47,0.12L80.48,137L80,137.13l-0.49,0.13l-0.49,0.13l-0.5,0.13l-0.5,0.14l-0.51,0.14
					l-0.52,0.14l-0.52,0.15l-0.53,0.15l-0.53,0.15l-0.54,0.16l-0.54,0.16l-0.55,0.16l-0.56,0.17l-0.56,0.17l-0.57,0.17l-0.58,0.18
					l-0.58,0.18l-0.59,0.18l-0.59,0.19l-0.6,0.19l-0.61,0.2l-0.61,0.2l-0.62,0.2l-0.63,0.21l-0.63,0.21l-0.64,0.22l-0.65,0.22
					L64.12,142l-0.66,0.23l-0.66,0.23l-0.67,0.23l-0.68,0.24l-0.68,0.24l-0.69,0.25l-0.7,0.25l-0.7,0.25l-0.71,0.26l-0.71,0.26
					l-0.72,0.26l-0.73,0.27l-0.73,0.27l-0.74,0.27l-0.74,0.28l-0.75,0.28l-0.75,0.28l-0.76,0.28l-0.76,0.29l-0.77,0.29l-0.77,0.29
					l-0.78,0.3l-0.78,0.3l-0.79,0.3l-0.79,0.3l-0.79,0.3l-0.8,0.31l-0.8,0.31l-0.8,0.31l-0.8,0.31l-0.81,0.31l-0.81,0.31l-0.81,0.31
					l-0.81,0.31l-0.81,0.31l-0.81,0.31l-0.81,0.31l-0.81,0.31l-0.81,0.31l-0.81,0.31l-0.8,0.31l-0.8,0.31l-0.8,0.31l-0.79,0.3
					l-0.79,0.3l-0.79,0.3l-0.78,0.3l-0.77,0.29l-0.77,0.29l-0.76,0.29l-0.75,0.28l-0.74,0.28l-0.74,0.27l-0.73,0.27l-0.72,0.26
					l-0.7,0.25l-0.69,0.25l-0.68,0.24l-0.67,0.23l-0.65,0.22l-0.64,0.22l-0.62,0.21l-0.61,0.2l-0.59,0.19l-0.58,0.18l-0.56,0.17
					l-0.54,0.16l-0.52,0.15l-0.5,0.14l-0.48,0.12l-0.46,0.11l-0.44,0.1l-0.42,0.09l-0.4,0.08l-0.37,0.06l-0.35,0.05l-0.33,0.04
					l-0.3,0.02l-0.28,0.01l-0.26-0.01l-0.23-0.02l-0.21-0.03l-0.18-0.05L8.87,161l-0.13-0.08l-0.11-0.09
					C8.63,160.83,8.61,160.8,8.59,160.77z"/>
				<path class="st3" d="M46.39,82.66c0,4.01,3.25,7.25,7.25,7.25c4.01,0,7.26-3.25,7.26-7.25c0-4.01-3.25-7.25-7.26-7.25
					C49.63,75.4,46.39,78.65,46.39,82.66"/>
				<path class="st4" d="M91.64,161.75c0,4.01,3.25,7.25,7.26,7.25s7.26-3.25,7.26-7.25c0-4.01-3.25-7.26-7.26-7.26
					S91.64,157.74,91.64,161.75"/>
				<path class="st5" d="M137.1,82.66c0,4.01,3.25,7.25,7.25,7.25c4.01,0,7.26-3.25,7.26-7.25c0-4.01-3.25-7.25-7.26-7.25
					C140.35,75.4,137.1,78.65,137.1,82.66"/>
			</g>
			<g class="st1">
				<defs>
					<rect id="SVGID_7_" x="89.14" y="92.9" width="17.84" height="25.6"/>
				</defs>
				<clipPath id="SVGID_8_">
					<use xlink:href="#SVGID_7_"  style="overflow:visible;"/>
				</clipPath>
				<path class="st6" d="M102.34,94.15c0.03-0.11,0.08-0.28,0.08-0.42c0-0.28-0.19-0.31-0.33-0.31c-0.28,0-0.31,0.06-0.42,0.56
					l-4.62,18.42c-2.12-0.25-3.18-1.28-3.18-3.12c0-0.56,0-1.28,1.51-5.18c0.11-0.33,0.3-0.81,0.3-1.37c0-1.25-0.89-2.28-2.28-2.28
					c-2.65,0-3.68,4.04-3.68,4.29c0,0.28,0.28,0.28,0.33,0.28c0.28,0,0.31-0.06,0.45-0.5c0.75-2.65,1.87-3.45,2.81-3.45
					c0.22,0,0.7,0,0.7,0.89c0,0.72-0.28,1.42-0.64,2.4c-1.34,3.51-1.34,4.23-1.34,4.71c0,2.65,2.17,3.79,4.85,3.96
					c-0.22,1-0.22,1.06-0.61,2.54c-0.08,0.31-0.64,2.56-0.64,2.65c0,0.03,0,0.28,0.33,0.28c0.06,0,0.2,0,0.25-0.11
					c0.08-0.06,0.25-0.75,0.33-1.14l1.06-4.15c1.03,0,3.48,0,6.1-2.98c1.14-1.28,1.73-2.51,2.03-3.34c0.25-0.7,0.86-3.12,0.86-4.34
					c0-1.56-0.75-1.95-1.23-1.95c-0.7,0-1.39,0.72-1.39,1.34c0,0.36,0.17,0.53,0.42,0.75c0.31,0.31,1,1.03,1,2.37
					c0,1.78-1.45,4.07-2.42,5.07c-2.45,2.48-4.23,2.48-5.24,2.48L102.34,94.15"/>
				<g class="st7">
					<g>
						<defs>
							<path id="SVGID_9_" d="M98.06,105.7L98.06,105.7z"/>
						</defs>
						<clipPath id="SVGID_10_">
							<use xlink:href="#SVGID_9_"  style="overflow:visible;"/>
						</clipPath>
					</g>
				</g>
			</g>
			<g class="st1">
				<defs>
					<rect id="SVGID_11_" x="0" y="-4.35" width="197.59" height="197.17"/>
				</defs>
				<clipPath id="SVGID_12_">
					<use xlink:href="#SVGID_11_"  style="overflow:visible;"/>
				</clipPath>
				<g class="st8">
					<g>
						<defs>
							<path id="SVGID_13_" d="M97.5,105.7L97.5,105.7z"/>
						</defs>
						<clipPath id="SVGID_14_">
							<use xlink:href="#SVGID_13_"  style="overflow:visible;"/>
						</clipPath>
						<path class="st9" d="M97.5,105.7L97.5,105.7z"/>
					</g>
				</g>
			</g>
		</g>
	</g>
</g>
<g>
	<g>
		<defs>
			<rect id="SVGID_15_" x="164.51" y="78.47" width="502.14" height="57.53"/>
		</defs>
		<clipPath id="SVGID_16_">
			<use xlink:href="#SVGID_15_"  style="overflow:visible;"/>
		</clipPath>
		<g class="st10">
			<defs>
				<rect id="SVGID_17_" x="164.51" y="78.47" width="502.14" height="57.53"/>
			</defs>
			<clipPath id="SVGID_18_">
				<use xlink:href="#SVGID_17_"  style="overflow:visible;"/>
			</clipPath>
			<g class="st11">
				<text transform="matrix(1 0 0 1 169.5545 118.4082)"><tspan x="0" y="0" class="st12 st13">NonlinearSch</tspan><tspan x="298.59" y="0" class="st12 st13">r</tspan><tspan x="318.09" y="0" class="st12 st13">odinger</tspan></text>
			</g>
			<path class="st14" d="M495.49,88.24c0,1.76,1.43,3.2,3.19,3.2c1.77,0,3.2-1.43,3.2-3.2c0-1.76-1.43-3.19-3.2-3.19
				C496.92,85.05,495.49,86.48,495.49,88.24"/>
			<path class="st15" d="M504.37,88.24c0,1.76,1.43,3.2,3.19,3.2c1.77,0,3.2-1.43,3.2-3.2c0-1.76-1.43-3.19-3.2-3.19
				C505.8,85.05,504.37,86.48,504.37,88.24"/>
			<path class="st16" d="M549.51,85.91c0,1.76,1.43,3.19,3.19,3.19c1.77,0,3.2-1.43,3.2-3.19s-1.43-3.19-3.2-3.19
				C550.94,82.72,549.51,84.15,549.51,85.91"/>
			<path class="st17" d="M276.58,86.39c0,1.77,1.43,3.2,3.2,3.2c1.76,0,3.19-1.43,3.19-3.2c0-1.76-1.43-3.19-3.19-3.19
				C278.01,83.19,276.58,84.62,276.58,86.39"/>
		</g>
	</g>
</g>
</svg>
