<?xml version="1.0" encoding="utf-8"?>
<svg xmlns="http://www.w3.org/2000/svg" xmlns:xlink="http://www.w3.org/1999/xlink" width="1000" height="1000" viewBox="0 0 4000 4000">
<defs>
  <clipPath id="clip260">
    <rect x="0" y="0" width="4000" height="4000"/>
  </clipPath>
</defs>
<path clip-path="url(#clip260)" d="
M0 4000 L4000 4000 L4000 0 L0 0  Z
  " fill="#ffffff" fill-rule="evenodd" fill-opacity="1"/>
<defs>
  <clipPath id="clip261">
    <rect x="800" y="400" width="2801" height="2801"/>
  </clipPath>
</defs>
<path clip-path="url(#clip260)" d="
M102.992 3897.01 L3952.76 3897.01 L3952.76 47.2441 L102.992 47.2441  Z
  " fill="#ffffff" fill-rule="evenodd" fill-opacity="1"/>
<defs>
  <clipPath id="clip262">
    <rect x="102" y="47" width="3851" height="3851"/>
  </clipPath>
</defs>
<polyline clip-path="url(#clip262)" style="stroke:#000000; stroke-width:8; stroke-opacity:1; fill:none" points="
  2046.89,597.21 2061.58,630.918 2076.27,664.626 2090.97,698.335 2105.66,732.043 2120.35,765.751 2135.04,799.459 2149.73,833.167 2164.42,866.875 2179.12,900.583 
  2193.81,934.291 2208.5,967.999 2223.19,1001.71 2237.88,1035.42 2252.57,1069.12 2267.27,1102.83 2281.96,1136.54 2296.65,1170.25 2311.34,1203.96 2326.03,1237.66 
  2340.73,1271.37 2355.42,1305.08 2370.11,1338.79 2384.8,1372.5 2399.49,1406.2 2414.18,1439.91 2428.88,1473.62 2443.57,1507.33 2458.26,1541.04 2472.95,1574.74 
  
  "/>
<polyline clip-path="url(#clip262)" style="stroke:#000000; stroke-width:8; stroke-opacity:1; fill:none" points="
  2476.48,1507.76 2472.95,1574.74 2421.48,1531.73 
  "/>
<polyline clip-path="url(#clip262)" style="stroke:#000000; stroke-width:8; stroke-opacity:1; fill:none" points="
  2472.95,1574.74 2458.26,1541.04 
  "/>
<polyline clip-path="url(#clip262)" style="stroke:#000000; stroke-width:8; stroke-opacity:1; fill:none" points="
  2046.89,597.21 2027.27,624.064 2007.66,650.918 1988.04,677.771 1968.43,704.625 1948.81,731.479 1929.19,758.333 1909.58,785.186 1889.96,812.04 1870.34,838.894 
  1850.73,865.747 1831.11,892.601 1811.5,919.455 1791.88,946.309 1772.26,973.162 1752.65,1000.02 1733.03,1026.87 1713.41,1053.72 1693.8,1080.58 1674.18,1107.43 
  1654.57,1134.28 1634.95,1161.14 1615.33,1187.99 1595.72,1214.85 1576.1,1241.7 1556.49,1268.55 1536.87,1295.41 1517.25,1322.26 1497.64,1349.11 1478.02,1375.97 
  
  "/>
<polyline clip-path="url(#clip262)" style="stroke:#000000; stroke-width:8; stroke-opacity:1; fill:none" points="
  1537.64,1345.21 1478.02,1375.97 1489.19,1309.82 
  "/>
<polyline clip-path="url(#clip262)" style="stroke:#000000; stroke-width:8; stroke-opacity:1; fill:none" points="
  1478.02,1375.97 1497.64,1349.11 
  "/>
<polyline clip-path="url(#clip262)" style="stroke:#000000; stroke-width:8; stroke-opacity:1; fill:none" points="
  2472.95,1574.74 2455.07,1605.99 2437.18,1637.23 2419.3,1668.48 2401.41,1699.72 2383.53,1730.97 2365.64,1762.21 2347.76,1793.46 2329.88,1824.7 2311.99,1855.95 
  2294.11,1887.19 2276.22,1918.44 2258.34,1949.68 2240.45,1980.93 2222.57,2012.18 2204.68,2043.42 2186.8,2074.67 2168.91,2105.91 2151.03,2137.16 2133.14,2168.4 
  2115.26,2199.65 2097.38,2230.89 2079.49,2262.14 2061.61,2293.38 2043.72,2324.63 2025.84,2355.87 2007.95,2387.12 1990.07,2418.36 1972.18,2449.61 1954.3,2480.85 
  
  "/>
<polyline clip-path="url(#clip262)" style="stroke:#000000; stroke-width:8; stroke-opacity:1; fill:none" points="
  2010.14,2443.68 1954.3,2480.85 1958.07,2413.88 
  "/>
<polyline clip-path="url(#clip262)" style="stroke:#000000; stroke-width:8; stroke-opacity:1; fill:none" points="
  1954.3,2480.85 1972.18,2449.61 
  "/>
<polyline clip-path="url(#clip262)" style="stroke:#000000; stroke-width:8; stroke-opacity:1; fill:none" points="
  2472.95,1574.74 2489.97,1593.96 2507,1613.17 2524.02,1632.39 2541.04,1651.6 2558.06,1670.82 2575.08,1690.03 2592.11,1709.24 2609.13,1728.46 2626.15,1747.67 
  2643.17,1766.89 2660.19,1786.1 2677.22,1805.32 2694.24,1824.53 2711.26,1843.74 2728.28,1862.96 2745.3,1882.17 2762.33,1901.39 2779.35,1920.6 2796.37,1939.81 
  2813.39,1959.03 2830.41,1978.24 2847.44,1997.46 2864.46,2016.67 2881.48,2035.89 2898.5,2055.1 2915.52,2074.31 2932.55,2093.53 2949.57,2112.74 2966.59,2131.96 
  
  "/>
<polyline clip-path="url(#clip262)" style="stroke:#000000; stroke-width:8; stroke-opacity:1; fill:none" points="
  2949.26,2067.15 2966.59,2131.96 2904.35,2106.94 
  "/>
<polyline clip-path="url(#clip262)" style="stroke:#000000; stroke-width:8; stroke-opacity:1; fill:none" points="
  2966.59,2131.96 2949.57,2112.74 
  "/>
<polyline clip-path="url(#clip262)" style="stroke:#000000; stroke-width:8; stroke-opacity:1; fill:none" points="
  1954.3,2480.85 1962.38,2507.41 1970.45,2533.98 1978.53,2560.54 1986.61,2587.1 1994.69,2613.67 2002.77,2640.23 2010.84,2666.79 2018.92,2693.36 2027,2719.92 
  2035.08,2746.48 2043.16,2773.04 2051.23,2799.61 2059.31,2826.17 2067.39,2852.73 2075.47,2879.3 2083.55,2905.86 2091.62,2932.42 2099.7,2958.98 2107.78,2985.55 
  2115.86,3012.11 2123.94,3038.67 2132.01,3065.24 2140.09,3091.8 2148.17,3118.36 2156.25,3144.93 2164.33,3171.49 2172.4,3198.05 2180.48,3224.61 2188.56,3251.18 
  
  "/>
<polyline clip-path="url(#clip262)" style="stroke:#000000; stroke-width:8; stroke-opacity:1; fill:none" points="
  2199.81,3185.05 2188.56,3251.18 2142.4,3202.5 
  "/>
<polyline clip-path="url(#clip262)" style="stroke:#000000; stroke-width:8; stroke-opacity:1; fill:none" points="
  2188.56,3251.18 2180.48,3224.61 
  "/>
<polyline clip-path="url(#clip262)" style="stroke:#000000; stroke-width:8; stroke-opacity:1; fill:none" points="
  1954.3,2480.85 1933.21,2502.71 1912.13,2524.57 1891.04,2546.43 1869.96,2568.28 1848.87,2590.14 1827.79,2612 1806.7,2633.86 1785.61,2655.72 1764.53,2677.57 
  1743.44,2699.43 1722.36,2721.29 1701.27,2743.15 1680.19,2765.01 1659.1,2786.86 1638.01,2808.72 1616.93,2830.58 1595.84,2852.44 1574.76,2874.3 1553.67,2896.15 
  1532.59,2918.01 1511.5,2939.87 1490.42,2961.73 1469.33,2983.59 1448.24,3005.44 1427.16,3027.3 1406.07,3049.16 1384.99,3071.02 1363.9,3092.88 1342.82,3114.73 
  
  "/>
<polyline clip-path="url(#clip262)" style="stroke:#000000; stroke-width:8; stroke-opacity:1; fill:none" points="
  1406.06,3092.38 1342.82,3114.73 1362.88,3050.72 
  "/>
<polyline clip-path="url(#clip262)" style="stroke:#000000; stroke-width:8; stroke-opacity:1; fill:none" points="
  1342.82,3114.73 1363.9,3092.88 
  "/>
<polyline clip-path="url(#clip262)" style="stroke:#000000; stroke-width:8; stroke-opacity:1; fill:none" points="
  2966.59,2131.96 2939.76,2170.55 2912.93,2209.14 2886.1,2247.74 2859.27,2286.33 2832.45,2324.93 2805.62,2363.52 2778.79,2402.11 2751.96,2440.71 2725.13,2479.3 
  2698.3,2517.9 2671.47,2556.49 2644.65,2595.08 2617.82,2633.68 2590.99,2672.27 2564.16,2710.86 2537.33,2749.46 2510.5,2788.05 2483.67,2826.65 2456.85,2865.24 
  2430.02,2903.83 2403.19,2942.43 2376.36,2981.02 2349.53,3019.61 2322.7,3058.21 2295.87,3096.8 2269.05,3135.4 2242.22,3173.99 2215.39,3212.58 2188.56,3251.18 
  
  "/>
<polyline clip-path="url(#clip262)" style="stroke:#000000; stroke-width:8; stroke-opacity:1; fill:none" points="
  2247.44,3219.04 2188.56,3251.18 2198.18,3184.79 
  "/>
<polyline clip-path="url(#clip262)" style="stroke:#000000; stroke-width:8; stroke-opacity:1; fill:none" points="
  2188.56,3251.18 2215.39,3212.58 
  "/>
<polyline clip-path="url(#clip262)" style="stroke:#000000; stroke-width:8; stroke-opacity:1; fill:none" points="
  2966.59,2131.96 2981.63,2173.86 2996.67,2215.76 3011.71,2257.66 3026.75,2299.55 3041.8,2341.45 3056.84,2383.35 3071.88,2425.25 3086.92,2467.15 3101.96,2509.05 
  3117,2550.95 3132.04,2592.85 3147.09,2634.75 3162.13,2676.65 3177.17,2718.55 3192.21,2760.45 3207.25,2802.35 3222.29,2844.25 3237.33,2886.15 3252.38,2928.05 
  3267.42,2969.95 3282.46,3011.85 3297.5,3053.75 3312.54,3095.64 3327.58,3137.54 3342.62,3179.44 3357.67,3221.34 3372.71,3263.24 3387.75,3305.14 3402.79,3347.04 
  
  "/>
<polyline clip-path="url(#clip262)" style="stroke:#000000; stroke-width:8; stroke-opacity:1; fill:none" points="
  3410.75,3280.43 3402.79,3347.04 3354.28,3300.71 
  "/>
<polyline clip-path="url(#clip262)" style="stroke:#000000; stroke-width:8; stroke-opacity:1; fill:none" points="
  3402.79,3347.04 3387.75,3305.14 
  "/>
<polyline clip-path="url(#clip262)" style="stroke:#000000; stroke-width:8; stroke-opacity:1; fill:none" points="
  1478.02,1375.97 1494.44,1414.07 1510.87,1452.17 1527.29,1490.27 1543.71,1528.37 1560.14,1566.47 1576.56,1604.56 1592.98,1642.66 1609.41,1680.76 1625.83,1718.86 
  1642.25,1756.96 1658.68,1795.06 1675.1,1833.16 1691.52,1871.26 1707.95,1909.36 1724.37,1947.46 1740.79,1985.56 1757.22,2023.66 1773.64,2061.76 1790.07,2099.86 
  1806.49,2137.96 1822.91,2176.06 1839.34,2214.16 1855.76,2252.25 1872.18,2290.35 1888.61,2328.45 1905.03,2366.55 1921.45,2404.65 1937.88,2442.75 1954.3,2480.85 
  
  "/>
<polyline clip-path="url(#clip262)" style="stroke:#000000; stroke-width:8; stroke-opacity:1; fill:none" points="
  1958.1,2413.88 1954.3,2480.85 1903,2437.63 
  "/>
<polyline clip-path="url(#clip262)" style="stroke:#000000; stroke-width:8; stroke-opacity:1; fill:none" points="
  1954.3,2480.85 1937.88,2442.75 
  "/>
<polyline clip-path="url(#clip262)" style="stroke:#000000; stroke-width:8; stroke-opacity:1; fill:none" points="
  1478.02,1375.97 1470.52,1406.99 1463.02,1438 1455.52,1469.02 1448.01,1500.04 1440.51,1531.06 1433.01,1562.08 1425.51,1593.1 1418.01,1624.11 1410.5,1655.13 
  1403,1686.15 1395.5,1717.17 1388,1748.19 1380.5,1779.21 1372.99,1810.22 1365.49,1841.24 1357.99,1872.26 1350.49,1903.28 1342.99,1934.3 1335.48,1965.32 
  1327.98,1996.33 1320.48,2027.35 1312.98,2058.37 1305.48,2089.39 1297.98,2120.41 1290.47,2151.43 1282.97,2182.44 1275.47,2213.46 1267.97,2244.48 1260.47,2275.5 
  
  "/>
<polyline clip-path="url(#clip262)" style="stroke:#000000; stroke-width:8; stroke-opacity:1; fill:none" points="
  1303.73,2224.23 1260.47,2275.5 1245.41,2210.13 
  "/>
<polyline clip-path="url(#clip262)" style="stroke:#000000; stroke-width:8; stroke-opacity:1; fill:none" points="
  1260.47,2275.5 1267.97,2244.48 
  "/>
<polyline clip-path="url(#clip262)" style="stroke:#000000; stroke-width:8; stroke-opacity:1; fill:none" points="
  1260.47,2275.5 1292.47,2309.14 1324.47,2342.79 1356.48,2376.43 1388.48,2410.08 1420.48,2443.72 1452.49,2477.36 1484.49,2511.01 1516.49,2544.65 1548.5,2578.3 
  1580.5,2611.94 1612.5,2645.58 1644.5,2679.23 1676.51,2712.87 1708.51,2746.52 1740.51,2780.16 1772.52,2813.8 1804.52,2847.45 1836.52,2881.09 1868.53,2914.74 
  1900.53,2948.38 1932.53,2982.03 1964.54,3015.67 1996.54,3049.31 2028.54,3082.96 2060.55,3116.6 2092.55,3150.25 2124.55,3183.89 2156.56,3217.53 2188.56,3251.18 
  
  "/>
<polyline clip-path="url(#clip262)" style="stroke:#000000; stroke-width:8; stroke-opacity:1; fill:none" points="
  2168.94,3187.03 2188.56,3251.18 2125.47,3228.38 
  "/>
<polyline clip-path="url(#clip262)" style="stroke:#000000; stroke-width:8; stroke-opacity:1; fill:none" points="
  2188.56,3251.18 2156.56,3217.53 
  "/>
<polyline clip-path="url(#clip262)" style="stroke:#000000; stroke-width:8; stroke-opacity:1; fill:none" points="
  1260.47,2275.5 1239.52,2309.09 1218.57,2342.68 1197.62,2376.27 1176.67,2409.86 1155.72,2443.45 1134.77,2477.04 1113.83,2510.63 1092.88,2544.22 1071.93,2577.81 
  1050.98,2611.4 1030.03,2644.99 1009.08,2678.58 988.135,2712.17 967.186,2745.76 946.238,2779.35 925.289,2812.94 904.341,2846.53 883.392,2880.12 862.444,2913.71 
  841.495,2947.3 820.547,2980.89 799.598,3014.48 778.65,3048.07 757.701,3081.66 736.752,3115.25 715.804,3148.84 694.855,3182.43 673.907,3216.02 652.958,3249.61 
  
  "/>
<polyline clip-path="url(#clip262)" style="stroke:#000000; stroke-width:8; stroke-opacity:1; fill:none" points="
  710.164,3214.58 652.958,3249.61 659.254,3182.83 
  "/>
<polyline clip-path="url(#clip262)" style="stroke:#000000; stroke-width:8; stroke-opacity:1; fill:none" points="
  652.958,3249.61 673.907,3216.02 
  "/>
<path clip-path="url(#clip262)" d="
M2339.49 597.21 L2338.56 573.964 L2335.79 550.864 L2331.2 528.057 L2324.8 505.687 L2316.65 483.896 L2306.8 462.822 L2295.3 442.597 L2282.23 423.349 L2267.67 405.201 
  L2251.72 388.267 L2234.47 372.654 L2216.04 358.46 L2196.53 345.776 L2176.08 334.682 L2154.82 325.247 L2132.87 317.532 L2110.38 311.585 L2087.48 307.444 L2064.33 305.135 
  L2041.07 304.672 L2017.85 306.059 L1994.81 309.287 L1972.1 314.335 L1949.86 321.171 L1928.23 329.753 L1907.36 340.026 L1887.37 351.924 L1868.38 365.374 L1850.53 380.289 
  L1833.92 396.575 L1818.65 414.131 L1804.82 432.843 L1792.53 452.595 L1781.84 473.261 L1772.83 494.711 L1765.56 516.809 L1760.06 539.415 L1756.37 562.386 L1754.52 585.578 
  L1754.52 608.843 L1756.37 632.035 L1760.06 655.006 L1765.56 677.612 L1772.83 699.71 L1781.84 721.16 L1792.53 741.826 L1804.82 761.578 L1818.65 780.29 L1833.92 797.845 
  L1850.53 814.132 L1868.38 829.047 L1887.37 842.496 L1907.36 854.395 L1928.23 864.668 L1949.86 873.249 L1972.1 880.086 L1994.81 885.134 L2017.85 888.362 L2041.07 889.749 
  L2064.33 889.286 L2087.48 886.977 L2110.38 882.836 L2132.87 876.889 L2154.82 869.174 L2176.08 859.739 L2196.53 848.645 L2216.04 835.96 L2234.47 821.767 L2251.72 806.154 
  L2267.67 789.219 L2282.23 771.071 L2295.3 751.824 L2306.8 731.599 L2316.65 710.524 L2324.8 688.733 L2331.2 666.364 L2335.79 643.557 L2338.56 620.457 L2339.49 597.21 
  L2339.49 597.21  Z
  " fill="#e78300" fill-rule="evenodd" fill-opacity="1"/>
<polyline clip-path="url(#clip262)" style="stroke:#000000; stroke-width:4; stroke-opacity:1; fill:none" points="
  2339.49,597.21 2338.56,573.964 2335.79,550.864 2331.2,528.057 2324.8,505.687 2316.65,483.896 2306.8,462.822 2295.3,442.597 2282.23,423.349 2267.67,405.201 
  2251.72,388.267 2234.47,372.654 2216.04,358.46 2196.53,345.776 2176.08,334.682 2154.82,325.247 2132.87,317.532 2110.38,311.585 2087.48,307.444 2064.33,305.135 
  2041.07,304.672 2017.85,306.059 1994.81,309.287 1972.1,314.335 1949.86,321.171 1928.23,329.753 1907.36,340.026 1887.37,351.924 1868.38,365.374 1850.53,380.289 
  1833.92,396.575 1818.65,414.131 1804.82,432.843 1792.53,452.595 1781.84,473.261 1772.83,494.711 1765.56,516.809 1760.06,539.415 1756.37,562.386 1754.52,585.578 
  1754.52,608.843 1756.37,632.035 1760.06,655.006 1765.56,677.612 1772.83,699.71 1781.84,721.16 1792.53,741.826 1804.82,761.578 1818.65,780.29 1833.92,797.845 
  1850.53,814.132 1868.38,829.047 1887.37,842.496 1907.36,854.395 1928.23,864.668 1949.86,873.249 1972.1,880.086 1994.81,885.134 2017.85,888.362 2041.07,889.749 
  2064.33,889.286 2087.48,886.977 2110.38,882.836 2132.87,876.889 2154.82,869.174 2176.08,859.739 2196.53,848.645 2216.04,835.96 2234.47,821.767 2251.72,806.154 
  2267.67,789.219 2282.23,771.071 2295.3,751.824 2306.8,731.599 2316.65,710.524 2324.8,688.733 2331.2,666.364 2335.79,643.557 2338.56,620.457 2339.49,597.21 
  
  "/>
<path clip-path="url(#clip262)" d="
M2716.78 1574.74 L2716.01 1555.37 L2713.7 1536.12 L2709.87 1517.12 L2704.55 1498.47 L2697.75 1480.32 L2689.54 1462.75 L2679.96 1445.9 L2669.07 1429.86 L2656.94 1414.74 
  L2643.64 1400.62 L2629.27 1387.61 L2613.91 1375.79 L2597.66 1365.22 L2580.61 1355.97 L2562.89 1348.11 L2544.6 1341.68 L2525.86 1336.72 L2506.78 1333.27 L2487.49 1331.35 
  L2468.1 1330.96 L2448.75 1332.12 L2429.55 1334.81 L2410.62 1339.01 L2392.09 1344.71 L2374.07 1351.86 L2356.68 1360.42 L2340.02 1370.34 L2324.2 1381.55 L2309.32 1393.98 
  L2295.47 1407.55 L2282.75 1422.18 L2271.23 1437.77 L2260.99 1454.23 L2252.08 1471.45 L2244.57 1489.33 L2238.51 1507.74 L2233.93 1526.58 L2230.85 1545.72 L2229.31 1565.05 
  L2229.31 1584.44 L2230.85 1603.76 L2233.93 1622.91 L2238.51 1641.75 L2244.57 1660.16 L2252.08 1678.04 L2260.99 1695.26 L2271.23 1711.72 L2282.75 1727.31 L2295.47 1741.94 
  L2309.32 1755.51 L2324.2 1767.94 L2340.02 1779.15 L2356.68 1789.06 L2374.07 1797.63 L2392.09 1804.78 L2410.62 1810.47 L2429.55 1814.68 L2448.75 1817.37 L2468.1 1818.53 
  L2487.49 1818.14 L2506.78 1816.22 L2525.86 1812.77 L2544.6 1807.81 L2562.89 1801.38 L2580.61 1793.52 L2597.66 1784.27 L2613.91 1773.7 L2629.27 1761.87 L2643.64 1748.86 
  L2656.94 1734.75 L2669.07 1719.63 L2679.96 1703.59 L2689.54 1686.73 L2697.75 1669.17 L2704.55 1651.01 L2709.87 1632.37 L2713.7 1613.37 L2716.01 1594.12 L2716.78 1574.74 
  L2716.78 1574.74  Z
  " fill="#ffb72c" fill-rule="evenodd" fill-opacity="1"/>
<polyline clip-path="url(#clip262)" style="stroke:#000000; stroke-width:4; stroke-opacity:1; fill:none" points="
  2716.78,1574.74 2716.01,1555.37 2713.7,1536.12 2709.87,1517.12 2704.55,1498.47 2697.75,1480.32 2689.54,1462.75 2679.96,1445.9 2669.07,1429.86 2656.94,1414.74 
  2643.64,1400.62 2629.27,1387.61 2613.91,1375.79 2597.66,1365.22 2580.61,1355.97 2562.89,1348.11 2544.6,1341.68 2525.86,1336.72 2506.78,1333.27 2487.49,1331.35 
  2468.1,1330.96 2448.75,1332.12 2429.55,1334.81 2410.62,1339.01 2392.09,1344.71 2374.07,1351.86 2356.68,1360.42 2340.02,1370.34 2324.2,1381.55 2309.32,1393.98 
  2295.47,1407.55 2282.75,1422.18 2271.23,1437.77 2260.99,1454.23 2252.08,1471.45 2244.57,1489.33 2238.51,1507.74 2233.93,1526.58 2230.85,1545.72 2229.31,1565.05 
  2229.31,1584.44 2230.85,1603.76 2233.93,1622.91 2238.51,1641.75 2244.57,1660.16 2252.08,1678.04 2260.99,1695.26 2271.23,1711.72 2282.75,1727.31 2295.47,1741.94 
  2309.32,1755.51 2324.2,1767.94 2340.02,1779.15 2356.68,1789.06 2374.07,1797.63 2392.09,1804.78 2410.62,1810.47 2429.55,1814.68 2448.75,1817.37 2468.1,1818.53 
  2487.49,1818.14 2506.78,1816.22 2525.86,1812.77 2544.6,1807.81 2562.89,1801.38 2580.61,1793.52 2597.66,1784.27 2613.91,1773.7 2629.27,1761.87 2643.64,1748.86 
  2656.94,1734.75 2669.07,1719.63 2679.96,1703.59 2689.54,1686.73 2697.75,1669.17 2704.55,1651.01 2709.87,1632.37 2713.7,1613.37 2716.01,1594.12 2716.78,1574.74 
  
  "/>
<path clip-path="url(#clip262)" d="
M2149.36 2480.85 L2148.75 2465.35 L2146.9 2449.95 L2143.84 2434.75 L2139.57 2419.84 L2134.14 2405.31 L2127.57 2391.26 L2119.9 2377.78 L2111.19 2364.94 L2101.49 2352.85 
  L2090.85 2341.56 L2079.35 2331.15 L2067.06 2321.68 L2054.06 2313.23 L2040.43 2305.83 L2026.25 2299.54 L2011.62 2294.4 L1996.62 2290.43 L1981.36 2287.67 L1965.93 2286.13 
  L1950.42 2285.83 L1934.94 2286.75 L1919.58 2288.9 L1904.44 2292.27 L1889.61 2296.83 L1875.2 2302.55 L1861.28 2309.39 L1847.95 2317.33 L1835.3 2326.29 L1823.39 2336.24 
  L1812.32 2347.09 L1802.14 2358.8 L1792.92 2371.27 L1784.73 2384.44 L1777.6 2398.22 L1771.6 2412.52 L1766.74 2427.25 L1763.08 2442.32 L1760.62 2457.63 L1759.39 2473.1 
  L1759.39 2488.61 L1760.62 2504.07 L1763.08 2519.38 L1766.74 2534.45 L1771.6 2549.18 L1777.6 2563.48 L1784.73 2577.26 L1792.92 2590.43 L1802.14 2602.9 L1812.32 2614.61 
  L1823.39 2625.47 L1835.3 2635.41 L1847.95 2644.38 L1861.28 2652.31 L1875.2 2659.16 L1889.61 2664.88 L1904.44 2669.43 L1919.58 2672.8 L1934.94 2674.95 L1950.42 2675.88 
  L1965.93 2675.57 L1981.36 2674.03 L1996.62 2671.27 L2011.62 2667.3 L2026.25 2662.16 L2040.43 2655.87 L2054.06 2648.47 L2067.06 2640.02 L2079.35 2630.56 L2090.85 2620.15 
  L2101.49 2608.86 L2111.19 2596.76 L2119.9 2583.93 L2127.57 2570.44 L2134.14 2556.39 L2139.57 2541.87 L2143.84 2526.95 L2146.9 2511.75 L2148.75 2496.35 L2149.36 2480.85 
  L2149.36 2480.85  Z
  " fill="#ffdb86" fill-rule="evenodd" fill-opacity="1"/>
<polyline clip-path="url(#clip262)" style="stroke:#000000; stroke-width:4; stroke-opacity:1; fill:none" points="
  2149.36,2480.85 2148.75,2465.35 2146.9,2449.95 2143.84,2434.75 2139.57,2419.84 2134.14,2405.31 2127.57,2391.26 2119.9,2377.78 2111.19,2364.94 2101.49,2352.85 
  2090.85,2341.56 2079.35,2331.15 2067.06,2321.68 2054.06,2313.23 2040.43,2305.83 2026.25,2299.54 2011.62,2294.4 1996.62,2290.43 1981.36,2287.67 1965.93,2286.13 
  1950.42,2285.83 1934.94,2286.75 1919.58,2288.9 1904.44,2292.27 1889.61,2296.83 1875.2,2302.55 1861.28,2309.39 1847.95,2317.33 1835.3,2326.29 1823.39,2336.24 
  1812.32,2347.09 1802.14,2358.8 1792.92,2371.27 1784.73,2384.44 1777.6,2398.22 1771.6,2412.52 1766.74,2427.25 1763.08,2442.32 1760.62,2457.63 1759.39,2473.1 
  1759.39,2488.61 1760.62,2504.07 1763.08,2519.38 1766.74,2534.45 1771.6,2549.18 1777.6,2563.48 1784.73,2577.26 1792.92,2590.43 1802.14,2602.9 1812.32,2614.61 
  1823.39,2625.47 1835.3,2635.41 1847.95,2644.38 1861.28,2652.31 1875.2,2659.16 1889.61,2664.88 1904.44,2669.43 1919.58,2672.8 1934.94,2674.95 1950.42,2675.88 
  1965.93,2675.57 1981.36,2674.03 1996.62,2671.27 2011.62,2667.3 2026.25,2662.16 2040.43,2655.87 2054.06,2648.47 2067.06,2640.02 2079.35,2630.56 2090.85,2620.15 
  2101.49,2608.86 2111.19,2596.76 2119.9,2583.93 2127.57,2570.44 2134.14,2556.39 2139.57,2541.87 2143.84,2526.95 2146.9,2511.75 2148.75,2496.35 2149.36,2480.85 
  
  "/>
<path clip-path="url(#clip262)" d="
M2334.86 3251.18 L2334.4 3239.55 L2333.01 3228 L2330.71 3216.6 L2327.52 3205.42 L2323.44 3194.52 L2318.51 3183.98 L2312.77 3173.87 L2306.23 3164.25 L2298.95 3155.17 
  L2290.98 3146.71 L2282.35 3138.9 L2273.13 3131.8 L2263.38 3125.46 L2253.16 3119.91 L2242.52 3115.2 L2231.55 3111.34 L2220.3 3108.37 L2208.86 3106.29 L2197.28 3105.14 
  L2185.65 3104.91 L2174.04 3105.6 L2162.52 3107.22 L2151.16 3109.74 L2140.05 3113.16 L2129.23 3117.45 L2118.8 3122.59 L2108.8 3128.53 L2099.31 3135.26 L2090.38 3142.72 
  L2082.07 3150.86 L2074.44 3159.64 L2067.53 3168.99 L2061.38 3178.87 L2056.04 3189.2 L2051.53 3199.93 L2047.89 3210.98 L2045.15 3222.28 L2043.3 3233.77 L2042.38 3245.36 
  L2042.38 3256.99 L2043.3 3268.59 L2045.15 3280.08 L2047.89 3291.38 L2051.53 3302.43 L2056.04 3313.15 L2061.38 3323.49 L2067.53 3333.36 L2074.44 3342.72 L2082.07 3351.5 
  L2090.38 3359.64 L2099.31 3367.1 L2108.8 3373.82 L2118.8 3379.77 L2129.23 3384.91 L2140.05 3389.2 L2151.16 3392.62 L2162.52 3395.14 L2174.04 3396.75 L2185.65 3397.45 
  L2197.28 3397.22 L2208.86 3396.06 L2220.3 3393.99 L2231.55 3391.02 L2242.52 3387.16 L2253.16 3382.44 L2263.38 3376.9 L2273.13 3370.55 L2282.35 3363.46 L2290.98 3355.65 
  L2298.95 3347.18 L2306.23 3338.11 L2312.77 3328.48 L2318.51 3318.37 L2323.44 3307.83 L2327.52 3296.94 L2330.71 3285.75 L2333.01 3274.35 L2334.4 3262.8 L2334.86 3251.18 
  L2334.86 3251.18  Z
  " fill="#ffffe0" fill-rule="evenodd" fill-opacity="1"/>
<polyline clip-path="url(#clip262)" style="stroke:#000000; stroke-width:4; stroke-opacity:1; fill:none" points="
  2334.86,3251.18 2334.4,3239.55 2333.01,3228 2330.71,3216.6 2327.52,3205.42 2323.44,3194.52 2318.51,3183.98 2312.77,3173.87 2306.23,3164.25 2298.95,3155.17 
  2290.98,3146.71 2282.35,3138.9 2273.13,3131.8 2263.38,3125.46 2253.16,3119.91 2242.52,3115.2 2231.55,3111.34 2220.3,3108.37 2208.86,3106.29 2197.28,3105.14 
  2185.65,3104.91 2174.04,3105.6 2162.52,3107.22 2151.16,3109.74 2140.05,3113.16 2129.23,3117.45 2118.8,3122.59 2108.8,3128.53 2099.31,3135.26 2090.38,3142.72 
  2082.07,3150.86 2074.44,3159.64 2067.53,3168.99 2061.38,3178.87 2056.04,3189.2 2051.53,3199.93 2047.89,3210.98 2045.15,3222.28 2043.3,3233.77 2042.38,3245.36 
  2042.38,3256.99 2043.3,3268.59 2045.15,3280.08 2047.89,3291.38 2051.53,3302.43 2056.04,3313.15 2061.38,3323.49 2067.53,3333.36 2074.44,3342.72 2082.07,3351.5 
  2090.38,3359.64 2099.31,3367.1 2108.8,3373.82 2118.8,3379.77 2129.23,3384.91 2140.05,3389.2 2151.16,3392.62 2162.52,3395.14 2174.04,3396.75 2185.65,3397.45 
  2197.28,3397.22 2208.86,3396.06 2220.3,3393.99 2231.55,3391.02 2242.52,3387.16 2253.16,3382.44 2263.38,3376.9 2273.13,3370.55 2282.35,3363.46 2290.98,3355.65 
  2298.95,3347.18 2306.23,3338.11 2312.77,3328.48 2318.51,3318.37 2323.44,3307.83 2327.52,3296.94 2330.71,3285.75 2333.01,3274.35 2334.4,3262.8 2334.86,3251.18 
  
  "/>
<path clip-path="url(#clip262)" d="
M1489.11 3114.73 L1488.65 3103.11 L1487.27 3091.56 L1484.97 3080.16 L1481.77 3068.97 L1477.7 3058.08 L1472.77 3047.54 L1467.02 3037.43 L1460.49 3027.8 L1453.21 3018.73 
  L1445.23 3010.26 L1436.61 3002.46 L1427.39 2995.36 L1417.64 2989.02 L1407.41 2983.47 L1396.78 2978.75 L1385.81 2974.9 L1374.56 2971.92 L1363.11 2969.85 L1351.54 2968.7 
  L1339.91 2968.47 L1328.3 2969.16 L1316.78 2970.77 L1305.42 2973.3 L1294.3 2976.72 L1283.49 2981.01 L1273.05 2986.14 L1263.06 2992.09 L1253.56 2998.82 L1244.64 3006.27 
  L1236.33 3014.42 L1228.7 3023.2 L1221.78 3032.55 L1215.64 3042.43 L1210.29 3052.76 L1205.79 3063.49 L1202.15 3074.53 L1199.4 3085.84 L1197.56 3097.32 L1196.63 3108.92 
  L1196.63 3120.55 L1197.56 3132.15 L1199.4 3143.63 L1202.15 3154.94 L1205.79 3165.98 L1210.29 3176.71 L1215.64 3187.04 L1221.78 3196.92 L1228.7 3206.27 L1236.33 3215.05 
  L1244.64 3223.2 L1253.56 3230.65 L1263.06 3237.38 L1273.05 3243.33 L1283.49 3248.46 L1294.3 3252.75 L1305.42 3256.17 L1316.78 3258.7 L1328.3 3260.31 L1339.91 3261 
  L1351.54 3260.77 L1363.11 3259.62 L1374.56 3257.55 L1385.81 3254.57 L1396.78 3250.72 L1407.41 3246 L1417.64 3240.45 L1427.39 3234.11 L1436.61 3227.01 L1445.23 3219.21 
  L1453.21 3210.74 L1460.49 3201.67 L1467.02 3192.04 L1472.77 3181.93 L1477.7 3171.39 L1481.77 3160.5 L1484.97 3149.31 L1487.27 3137.91 L1488.65 3126.36 L1489.11 3114.73 
  L1489.11 3114.73  Z
  " fill="#ffffe0" fill-rule="evenodd" fill-opacity="1"/>
<polyline clip-path="url(#clip262)" style="stroke:#000000; stroke-width:4; stroke-opacity:1; fill:none" points="
  1489.11,3114.73 1488.65,3103.11 1487.27,3091.56 1484.97,3080.16 1481.77,3068.97 1477.7,3058.08 1472.77,3047.54 1467.02,3037.43 1460.49,3027.8 1453.21,3018.73 
  1445.23,3010.26 1436.61,3002.46 1427.39,2995.36 1417.64,2989.02 1407.41,2983.47 1396.78,2978.75 1385.81,2974.9 1374.56,2971.92 1363.11,2969.85 1351.54,2968.7 
  1339.91,2968.47 1328.3,2969.16 1316.78,2970.77 1305.42,2973.3 1294.3,2976.72 1283.49,2981.01 1273.05,2986.14 1263.06,2992.09 1253.56,2998.82 1244.64,3006.27 
  1236.33,3014.42 1228.7,3023.2 1221.78,3032.55 1215.64,3042.43 1210.29,3052.76 1205.79,3063.49 1202.15,3074.53 1199.4,3085.84 1197.56,3097.32 1196.63,3108.92 
  1196.63,3120.55 1197.56,3132.15 1199.4,3143.63 1202.15,3154.94 1205.79,3165.98 1210.29,3176.71 1215.64,3187.04 1221.78,3196.92 1228.7,3206.27 1236.33,3215.05 
  1244.64,3223.2 1253.56,3230.65 1263.06,3237.38 1273.05,3243.33 1283.49,3248.46 1294.3,3252.75 1305.42,3256.17 1316.78,3258.7 1328.3,3260.31 1339.91,3261 
  1351.54,3260.77 1363.11,3259.62 1374.56,3257.55 1385.81,3254.57 1396.78,3250.72 1407.41,3246 1417.64,3240.45 1427.39,3234.11 1436.61,3227.01 1445.23,3219.21 
  1453.21,3210.74 1460.49,3201.67 1467.02,3192.04 1472.77,3181.93 1477.7,3171.39 1481.77,3160.5 1484.97,3149.31 1487.27,3137.91 1488.65,3126.36 1489.11,3114.73 
  
  "/>
<path clip-path="url(#clip262)" d="
M3161.65 2131.96 L3161.04 2116.46 L3159.19 2101.06 L3156.13 2085.85 L3151.86 2070.94 L3146.43 2056.41 L3139.86 2042.36 L3132.2 2028.88 L3123.48 2016.05 L3113.78 2003.95 
  L3103.14 1992.66 L3091.64 1982.25 L3079.35 1972.79 L3066.35 1964.33 L3052.72 1956.94 L3038.54 1950.65 L3023.91 1945.5 L3008.91 1941.54 L2993.65 1938.78 L2978.22 1937.24 
  L2962.71 1936.93 L2947.23 1937.86 L2931.87 1940.01 L2916.73 1943.37 L2901.9 1947.93 L2887.49 1953.65 L2873.57 1960.5 L2860.24 1968.43 L2847.59 1977.4 L2835.68 1987.34 
  L2824.61 1998.2 L2814.43 2009.9 L2805.21 2022.38 L2797.02 2035.55 L2789.89 2049.32 L2783.89 2063.62 L2779.03 2078.36 L2775.37 2093.43 L2772.91 2108.74 L2771.68 2124.2 
  L2771.68 2139.71 L2772.91 2155.17 L2775.37 2170.49 L2779.03 2185.56 L2783.89 2200.29 L2789.89 2214.59 L2797.02 2228.37 L2805.21 2241.54 L2814.43 2254.01 L2824.61 2265.71 
  L2835.68 2276.57 L2847.59 2286.51 L2860.24 2295.48 L2873.57 2303.41 L2887.49 2310.26 L2901.9 2315.98 L2916.73 2320.54 L2931.87 2323.91 L2947.23 2326.06 L2962.71 2326.98 
  L2978.22 2326.67 L2993.65 2325.13 L3008.91 2322.37 L3023.91 2318.41 L3038.54 2313.27 L3052.72 2306.98 L3066.35 2299.58 L3079.35 2291.12 L3091.64 2281.66 L3103.14 2271.25 
  L3113.78 2259.96 L3123.48 2247.86 L3132.2 2235.03 L3139.86 2221.55 L3146.43 2207.5 L3151.86 2192.97 L3156.13 2178.06 L3159.19 2162.85 L3161.04 2147.45 L3161.65 2131.96 
  L3161.65 2131.96  Z
  " fill="#ffdb86" fill-rule="evenodd" fill-opacity="1"/>
<polyline clip-path="url(#clip262)" style="stroke:#000000; stroke-width:4; stroke-opacity:1; fill:none" points="
  3161.65,2131.96 3161.04,2116.46 3159.19,2101.06 3156.13,2085.85 3151.86,2070.94 3146.43,2056.41 3139.86,2042.36 3132.2,2028.88 3123.48,2016.05 3113.78,2003.95 
  3103.14,1992.66 3091.64,1982.25 3079.35,1972.79 3066.35,1964.33 3052.72,1956.94 3038.54,1950.65 3023.91,1945.5 3008.91,1941.54 2993.65,1938.78 2978.22,1937.24 
  2962.71,1936.93 2947.23,1937.86 2931.87,1940.01 2916.73,1943.37 2901.9,1947.93 2887.49,1953.65 2873.57,1960.5 2860.24,1968.43 2847.59,1977.4 2835.68,1987.34 
  2824.61,1998.2 2814.43,2009.9 2805.21,2022.38 2797.02,2035.55 2789.89,2049.32 2783.89,2063.62 2779.03,2078.36 2775.37,2093.43 2772.91,2108.74 2771.68,2124.2 
  2771.68,2139.71 2772.91,2155.17 2775.37,2170.49 2779.03,2185.56 2783.89,2200.29 2789.89,2214.59 2797.02,2228.37 2805.21,2241.54 2814.43,2254.01 2824.61,2265.71 
  2835.68,2276.57 2847.59,2286.51 2860.24,2295.48 2873.57,2303.41 2887.49,2310.26 2901.9,2315.98 2916.73,2320.54 2931.87,2323.91 2947.23,2326.06 2962.71,2326.98 
  2978.22,2326.67 2993.65,2325.13 3008.91,2322.37 3023.91,2318.41 3038.54,2313.27 3052.72,2306.98 3066.35,2299.58 3079.35,2291.12 3091.64,2281.66 3103.14,2271.25 
  3113.78,2259.96 3123.48,2247.86 3132.2,2235.03 3139.86,2221.55 3146.43,2207.5 3151.86,2192.97 3156.13,2178.06 3159.19,2162.85 3161.04,2147.45 3161.65,2131.96 
  
  "/>
<path clip-path="url(#clip262)" d="
M3549.09 3347.04 L3548.63 3335.42 L3547.24 3323.87 L3544.94 3312.46 L3541.75 3301.28 L3537.67 3290.38 L3532.74 3279.85 L3526.99 3269.73 L3520.46 3260.11 L3513.18 3251.04 
  L3505.2 3242.57 L3496.58 3234.76 L3487.36 3227.67 L3477.61 3221.32 L3467.39 3215.78 L3456.75 3211.06 L3445.78 3207.2 L3434.53 3204.23 L3423.09 3202.16 L3411.51 3201 
  L3399.88 3200.77 L3388.27 3201.47 L3376.75 3203.08 L3365.39 3205.6 L3354.27 3209.02 L3343.46 3213.31 L3333.02 3218.45 L3323.03 3224.4 L3313.54 3231.12 L3304.61 3238.58 
  L3296.3 3246.72 L3288.67 3255.5 L3281.76 3264.86 L3275.61 3274.73 L3270.27 3285.07 L3265.76 3295.79 L3262.12 3306.84 L3259.37 3318.14 L3257.53 3329.63 L3256.61 3341.23 
  L3256.61 3352.86 L3257.53 3364.45 L3259.37 3375.94 L3262.12 3387.24 L3265.76 3398.29 L3270.27 3409.02 L3275.61 3419.35 L3281.76 3429.23 L3288.67 3438.58 L3296.3 3447.36 
  L3304.61 3455.5 L3313.54 3462.96 L3323.03 3469.68 L3333.02 3475.63 L3343.46 3480.77 L3354.27 3485.06 L3365.39 3488.48 L3376.75 3491 L3388.27 3492.62 L3399.88 3493.31 
  L3411.51 3493.08 L3423.09 3491.92 L3434.53 3489.85 L3445.78 3486.88 L3456.75 3483.02 L3467.39 3478.31 L3477.61 3472.76 L3487.36 3466.42 L3496.58 3459.32 L3505.2 3451.51 
  L3513.18 3443.05 L3520.46 3433.97 L3526.99 3424.35 L3532.74 3414.24 L3537.67 3403.7 L3541.75 3392.8 L3544.94 3381.62 L3547.24 3370.21 L3548.63 3358.67 L3549.09 3347.04 
  L3549.09 3347.04  Z
  " fill="#ffffe0" fill-rule="evenodd" fill-opacity="1"/>
<polyline clip-path="url(#clip262)" style="stroke:#000000; stroke-width:4; stroke-opacity:1; fill:none" points="
  3549.09,3347.04 3548.63,3335.42 3547.24,3323.87 3544.94,3312.46 3541.75,3301.28 3537.67,3290.38 3532.74,3279.85 3526.99,3269.73 3520.46,3260.11 3513.18,3251.04 
  3505.2,3242.57 3496.58,3234.76 3487.36,3227.67 3477.61,3221.32 3467.39,3215.78 3456.75,3211.06 3445.78,3207.2 3434.53,3204.23 3423.09,3202.16 3411.51,3201 
  3399.88,3200.77 3388.27,3201.47 3376.75,3203.08 3365.39,3205.6 3354.27,3209.02 3343.46,3213.31 3333.02,3218.45 3323.03,3224.4 3313.54,3231.12 3304.61,3238.58 
  3296.3,3246.72 3288.67,3255.5 3281.76,3264.86 3275.61,3274.73 3270.27,3285.07 3265.76,3295.79 3262.12,3306.84 3259.37,3318.14 3257.53,3329.63 3256.61,3341.23 
  3256.61,3352.86 3257.53,3364.45 3259.37,3375.94 3262.12,3387.24 3265.76,3398.29 3270.27,3409.02 3275.61,3419.35 3281.76,3429.23 3288.67,3438.58 3296.3,3447.36 
  3304.61,3455.5 3313.54,3462.96 3323.03,3469.68 3333.02,3475.63 3343.46,3480.77 3354.27,3485.06 3365.39,3488.48 3376.75,3491 3388.27,3492.62 3399.88,3493.31 
  3411.51,3493.08 3423.09,3491.92 3434.53,3489.85 3445.78,3486.88 3456.75,3483.02 3467.39,3478.31 3477.61,3472.76 3487.36,3466.42 3496.58,3459.32 3505.2,3451.51 
  3513.18,3443.05 3520.46,3433.97 3526.99,3424.35 3532.74,3414.24 3537.67,3403.7 3541.75,3392.8 3544.94,3381.62 3547.24,3370.21 3548.63,3358.67 3549.09,3347.04 
  
  "/>
<path clip-path="url(#clip262)" d="
M1721.85 1375.97 L1721.08 1356.6 L1718.77 1337.35 L1714.94 1318.34 L1709.62 1299.7 L1702.82 1281.54 L1694.61 1263.98 L1685.03 1247.12 L1674.14 1231.08 L1662.01 1215.96 
  L1648.71 1201.85 L1634.34 1188.84 L1618.98 1177.01 L1602.72 1166.44 L1585.68 1157.19 L1567.96 1149.33 L1549.67 1142.9 L1530.93 1137.95 L1511.85 1134.5 L1492.56 1132.57 
  L1473.17 1132.19 L1453.82 1133.34 L1434.62 1136.03 L1415.69 1140.24 L1397.16 1145.94 L1379.14 1153.09 L1361.75 1161.65 L1345.09 1171.56 L1329.27 1182.77 L1314.39 1195.2 
  L1300.54 1208.77 L1287.82 1223.4 L1276.3 1239 L1266.05 1255.46 L1257.15 1272.68 L1249.64 1290.55 L1243.58 1308.97 L1238.99 1327.8 L1235.92 1346.95 L1234.38 1366.27 
  L1234.38 1385.66 L1235.92 1404.99 L1238.99 1424.13 L1243.58 1442.97 L1249.64 1461.38 L1257.15 1479.26 L1266.05 1496.48 L1276.3 1512.94 L1287.82 1528.53 L1300.54 1543.16 
  L1314.39 1556.74 L1329.27 1569.17 L1345.09 1580.37 L1361.75 1590.29 L1379.14 1598.85 L1397.16 1606 L1415.69 1611.7 L1434.62 1615.9 L1453.82 1618.59 L1473.17 1619.75 
  L1492.56 1619.36 L1511.85 1617.44 L1530.93 1613.99 L1549.67 1609.03 L1567.96 1602.6 L1585.68 1594.74 L1602.72 1585.5 L1618.98 1574.93 L1634.34 1563.1 L1648.71 1550.09 
  L1662.01 1535.98 L1674.14 1520.85 L1685.03 1504.81 L1694.61 1487.96 L1702.82 1470.4 L1709.62 1452.24 L1714.94 1433.6 L1718.77 1414.59 L1721.08 1395.34 L1721.85 1375.97 
  L1721.85 1375.97  Z
  " fill="#ffb72c" fill-rule="evenodd" fill-opacity="1"/>
<polyline clip-path="url(#clip262)" style="stroke:#000000; stroke-width:4; stroke-opacity:1; fill:none" points="
  1721.85,1375.97 1721.08,1356.6 1718.77,1337.35 1714.94,1318.34 1709.62,1299.7 1702.82,1281.54 1694.61,1263.98 1685.03,1247.12 1674.14,1231.08 1662.01,1215.96 
  1648.71,1201.85 1634.34,1188.84 1618.98,1177.01 1602.72,1166.44 1585.68,1157.19 1567.96,1149.33 1549.67,1142.9 1530.93,1137.95 1511.85,1134.5 1492.56,1132.57 
  1473.17,1132.19 1453.82,1133.34 1434.62,1136.03 1415.69,1140.24 1397.16,1145.94 1379.14,1153.09 1361.75,1161.65 1345.09,1171.56 1329.27,1182.77 1314.39,1195.2 
  1300.54,1208.77 1287.82,1223.4 1276.3,1239 1266.05,1255.46 1257.15,1272.68 1249.64,1290.55 1243.58,1308.97 1238.99,1327.8 1235.92,1346.95 1234.38,1366.27 
  1234.38,1385.66 1235.92,1404.99 1238.99,1424.13 1243.58,1442.97 1249.64,1461.38 1257.15,1479.26 1266.05,1496.48 1276.3,1512.94 1287.82,1528.53 1300.54,1543.16 
  1314.39,1556.74 1329.27,1569.17 1345.09,1580.37 1361.75,1590.29 1379.14,1598.85 1397.16,1606 1415.69,1611.7 1434.62,1615.9 1453.82,1618.59 1473.17,1619.75 
  1492.56,1619.36 1511.85,1617.44 1530.93,1613.99 1549.67,1609.03 1567.96,1602.6 1585.68,1594.74 1602.72,1585.5 1618.98,1574.93 1634.34,1563.1 1648.71,1550.09 
  1662.01,1535.98 1674.14,1520.85 1685.03,1504.81 1694.61,1487.96 1702.82,1470.4 1709.62,1452.24 1714.94,1433.6 1718.77,1414.59 1721.08,1395.34 1721.85,1375.97 
  
  "/>
<path clip-path="url(#clip262)" d="
M1455.53 2275.5 L1454.91 2260 L1453.07 2244.6 L1450 2229.4 L1445.74 2214.48 L1440.31 2199.96 L1433.74 2185.91 L1426.07 2172.42 L1417.36 2159.59 L1407.65 2147.49 
  L1397.02 2136.2 L1385.52 2125.79 L1373.23 2116.33 L1360.23 2107.88 L1346.6 2100.48 L1332.42 2094.19 L1317.79 2089.05 L1302.79 2085.08 L1287.53 2082.32 L1272.09 2080.78 
  L1256.59 2080.47 L1241.1 2081.4 L1225.74 2083.55 L1210.6 2086.92 L1195.78 2091.47 L1181.36 2097.19 L1167.45 2104.04 L1154.12 2111.98 L1141.46 2120.94 L1129.56 2130.89 
  L1118.48 2141.74 L1108.3 2153.45 L1099.09 2165.92 L1090.89 2179.09 L1083.77 2192.87 L1077.76 2207.17 L1072.91 2221.9 L1069.24 2236.97 L1066.79 2252.28 L1065.56 2267.74 
  L1065.56 2283.25 L1066.79 2298.72 L1069.24 2314.03 L1072.91 2329.1 L1077.76 2343.83 L1083.77 2358.13 L1090.89 2371.91 L1099.09 2385.08 L1108.3 2397.55 L1118.48 2409.26 
  L1129.56 2420.11 L1141.46 2430.06 L1154.12 2439.02 L1167.45 2446.96 L1181.36 2453.8 L1195.78 2459.53 L1210.6 2464.08 L1225.74 2467.45 L1241.1 2469.6 L1256.59 2470.52 
  L1272.09 2470.22 L1287.53 2468.68 L1302.79 2465.92 L1317.79 2461.95 L1332.42 2456.81 L1346.6 2450.52 L1360.23 2443.12 L1373.23 2434.67 L1385.52 2425.2 L1397.02 2414.79 
  L1407.65 2403.51 L1417.36 2391.41 L1426.07 2378.58 L1433.74 2365.09 L1440.31 2351.04 L1445.74 2336.51 L1450 2321.6 L1453.07 2306.4 L1454.91 2291 L1455.53 2275.5 
  L1455.53 2275.5  Z
  " fill="#ffdb86" fill-rule="evenodd" fill-opacity="1"/>
<polyline clip-path="url(#clip262)" style="stroke:#000000; stroke-width:4; stroke-opacity:1; fill:none" points="
  1455.53,2275.5 1454.91,2260 1453.07,2244.6 1450,2229.4 1445.74,2214.48 1440.31,2199.96 1433.74,2185.91 1426.07,2172.42 1417.36,2159.59 1407.65,2147.49 
  1397.02,2136.2 1385.52,2125.79 1373.23,2116.33 1360.23,2107.88 1346.6,2100.48 1332.42,2094.19 1317.79,2089.05 1302.79,2085.08 1287.53,2082.32 1272.09,2080.78 
  1256.59,2080.47 1241.1,2081.4 1225.74,2083.55 1210.6,2086.92 1195.78,2091.47 1181.36,2097.19 1167.45,2104.04 1154.12,2111.98 1141.46,2120.94 1129.56,2130.89 
  1118.48,2141.74 1108.3,2153.45 1099.09,2165.92 1090.89,2179.09 1083.77,2192.87 1077.76,2207.17 1072.91,2221.9 1069.24,2236.97 1066.79,2252.28 1065.56,2267.74 
  1065.56,2283.25 1066.79,2298.72 1069.24,2314.03 1072.91,2329.1 1077.76,2343.83 1083.77,2358.13 1090.89,2371.91 1099.09,2385.08 1108.3,2397.55 1118.48,2409.26 
  1129.56,2420.11 1141.46,2430.06 1154.12,2439.02 1167.45,2446.96 1181.36,2453.8 1195.78,2459.53 1210.6,2464.08 1225.74,2467.45 1241.1,2469.6 1256.59,2470.52 
  1272.09,2470.22 1287.53,2468.68 1302.79,2465.92 1317.79,2461.95 1332.42,2456.81 1346.6,2450.52 1360.23,2443.12 1373.23,2434.67 1385.52,2425.2 1397.02,2414.79 
  1407.65,2403.51 1417.36,2391.41 1426.07,2378.58 1433.74,2365.09 1440.31,2351.04 1445.74,2336.51 1450,2321.6 1453.07,2306.4 1454.91,2291 1455.53,2275.5 
  
  "/>
<path clip-path="url(#clip262)" d="
M799.256 3249.61 L798.794 3237.99 L797.409 3226.44 L795.112 3215.04 L791.915 3203.85 L787.84 3192.96 L782.912 3182.42 L777.163 3172.31 L770.628 3162.68 L763.35 3153.61 
  L755.373 3145.14 L746.749 3137.33 L737.532 3130.24 L727.78 3123.9 L717.556 3118.35 L706.922 3113.63 L695.948 3109.77 L684.702 3106.8 L673.255 3104.73 L661.68 3103.58 
  L650.05 3103.34 L638.438 3104.04 L626.918 3105.65 L615.562 3108.18 L604.443 3111.59 L593.631 3115.88 L583.194 3121.02 L573.197 3126.97 L563.706 3133.69 L554.778 3141.15 
  L546.471 3149.3 L538.838 3158.07 L531.925 3167.43 L525.779 3177.31 L520.436 3187.64 L515.931 3198.36 L512.292 3209.41 L509.543 3220.72 L507.7 3232.2 L506.776 3243.8 
  L506.776 3255.43 L507.7 3267.03 L509.543 3278.51 L512.292 3289.81 L515.931 3300.86 L520.436 3311.59 L525.779 3321.92 L531.925 3331.8 L538.838 3341.15 L546.471 3349.93 
  L554.778 3358.07 L563.706 3365.53 L573.197 3372.26 L583.194 3378.21 L593.631 3383.34 L604.443 3387.63 L615.562 3391.05 L626.918 3393.57 L638.438 3395.19 L650.05 3395.88 
  L661.68 3395.65 L673.255 3394.5 L684.702 3392.43 L695.948 3389.45 L706.922 3385.59 L717.556 3380.88 L727.78 3375.33 L737.532 3368.99 L746.749 3361.89 L755.373 3354.08 
  L763.35 3345.62 L770.628 3336.54 L777.163 3326.92 L782.912 3316.81 L787.84 3306.27 L791.915 3295.37 L795.112 3284.19 L797.409 3272.79 L798.794 3261.24 L799.256 3249.61 
  L799.256 3249.61  Z
  " fill="#ffffe0" fill-rule="evenodd" fill-opacity="1"/>
<polyline clip-path="url(#clip262)" style="stroke:#000000; stroke-width:4; stroke-opacity:1; fill:none" points="
  799.256,3249.61 798.794,3237.99 797.409,3226.44 795.112,3215.04 791.915,3203.85 787.84,3192.96 782.912,3182.42 777.163,3172.31 770.628,3162.68 763.35,3153.61 
  755.373,3145.14 746.749,3137.33 737.532,3130.24 727.78,3123.9 717.556,3118.35 706.922,3113.63 695.948,3109.77 684.702,3106.8 673.255,3104.73 661.68,3103.58 
  650.05,3103.34 638.438,3104.04 626.918,3105.65 615.562,3108.18 604.443,3111.59 593.631,3115.88 583.194,3121.02 573.197,3126.97 563.706,3133.69 554.778,3141.15 
  546.471,3149.3 538.838,3158.07 531.925,3167.43 525.779,3177.31 520.436,3187.64 515.931,3198.36 512.292,3209.41 509.543,3220.72 507.7,3232.2 506.776,3243.8 
  506.776,3255.43 507.7,3267.03 509.543,3278.51 512.292,3289.81 515.931,3300.86 520.436,3311.59 525.779,3321.92 531.925,3331.8 538.838,3341.15 546.471,3349.93 
  554.778,3358.07 563.706,3365.53 573.197,3372.26 583.194,3378.21 593.631,3383.34 604.443,3387.63 615.562,3391.05 626.918,3393.57 638.438,3395.19 650.05,3395.88 
  661.68,3395.65 673.255,3394.5 684.702,3392.43 695.948,3389.45 706.922,3385.59 717.556,3380.88 727.78,3375.33 737.532,3368.99 746.749,3361.89 755.373,3354.08 
  763.35,3345.62 770.628,3336.54 777.163,3326.92 782.912,3316.81 787.84,3306.27 791.915,3295.37 795.112,3284.19 797.409,3272.79 798.794,3261.24 799.256,3249.61 
  
  "/>
<circle clip-path="url(#clip262)" style="fill:#e78300; stroke:none; fill-opacity:1" cx="2046.89" cy="597.21" r="2"/>
<circle clip-path="url(#clip262)" style="fill:#ffb72c; stroke:none; fill-opacity:1" cx="2472.95" cy="1574.74" r="2"/>
<circle clip-path="url(#clip262)" style="fill:#ffdb86; stroke:none; fill-opacity:1" cx="1954.3" cy="2480.85" r="2"/>
<circle clip-path="url(#clip262)" style="fill:#ffffe0; stroke:none; fill-opacity:1" cx="2188.56" cy="3251.18" r="2"/>
<circle clip-path="url(#clip262)" style="fill:#ffffe0; stroke:none; fill-opacity:1" cx="1342.82" cy="3114.73" r="2"/>
<circle clip-path="url(#clip262)" style="fill:#ffdb86; stroke:none; fill-opacity:1" cx="2966.59" cy="2131.96" r="2"/>
<circle clip-path="url(#clip262)" style="fill:#ffffe0; stroke:none; fill-opacity:1" cx="3402.79" cy="3347.04" r="2"/>
<circle clip-path="url(#clip262)" style="fill:#ffb72c; stroke:none; fill-opacity:1" cx="1478.02" cy="1375.97" r="2"/>
<circle clip-path="url(#clip262)" style="fill:#ffdb86; stroke:none; fill-opacity:1" cx="1260.47" cy="2275.5" r="2"/>
<circle clip-path="url(#clip262)" style="fill:#ffffe0; stroke:none; fill-opacity:1" cx="652.958" cy="3249.61" r="2"/>
<path clip-path="url(#clip260)" d="M 0 0 M1954.94 597.057 Q1954.94 582.875 1960.23 571.439 Q1962.48 566.643 1965.64 562.626 Q1968.79 558.609 1970.88 556.847 Q1972.97 555.084 1973.55 555.084 Q1974.37 555.084 1974.41 555.904 Q1974.41 556.314 1973.3 557.339 Q1959.78 571.111 1959.82 597.057 Q1959.82 623.085 1972.97 636.325 Q1974.41 637.76 1974.41 638.21 Q1974.41 639.03 1973.55 639.03 Q1972.97 639.03 1970.97 637.35 Q1968.96 635.669 1965.84 631.816 Q1962.73 627.963 1960.47 623.249 Q1954.94 611.813 1954.94 597.057 Z" fill="#000000" fill-rule="evenodd" fill-opacity="1" /><path clip-path="url(#clip260)" d="M 0 0 M1987.17 604.189 L1987.17 601.607 L2012.95 562.216 Q2013.6 561.192 2014.63 561.233 Q2015.57 561.233 2015.78 561.601 Q2015.98 561.97 2015.98 563.405 L2015.98 601.607 L2024.38 601.607 L2024.38 604.189 L2015.98 604.189 L2015.98 611.485 Q2015.98 613.904 2016.96 614.683 Q2017.99 615.461 2022.33 615.461 L2024.1 615.461 L2024.1 618.044 Q2020.65 617.798 2012.7 617.798 Q2004.79 617.798 2001.35 618.044 L2001.35 615.461 L2003.11 615.461 Q2007.46 615.461 2008.48 614.724 Q2009.5 613.945 2009.5 611.485 L2009.5 604.189 L1987.17 604.189 M1989.54 601.607 L2010 601.607 L2010 570.291 L1989.54 601.607 Z" fill="#000000" fill-rule="evenodd" fill-opacity="1" /><path clip-path="url(#clip260)" d="M 0 0 M2029.92 616.691 Q2028.73 615.338 2028.73 613.576 Q2028.73 611.813 2029.88 610.502 Q2031.06 609.149 2033.2 609.149 Q2035.7 609.149 2037.13 611.567 Q2038.57 613.945 2038.57 617.962 Q2038.57 622.307 2036.8 626.324 Q2035.04 630.381 2033.32 632.308 Q2031.6 634.234 2030.9 634.234 Q2030.08 634.234 2030.08 633.333 Q2030.08 633.005 2030.65 632.39 Q2036.68 625.914 2036.72 617.962 Q2036.72 616.691 2036.56 616.691 L2036.35 616.855 Q2034.92 618.044 2033.2 618.044 Q2031.11 618.044 2029.92 616.691 Z" fill="#000000" fill-rule="evenodd" fill-opacity="1" /><path clip-path="url(#clip260)" d="M 0 0 M2065.05 570.127 L2065.05 567.504 Q2075.13 567.504 2080.34 562.134 Q2081.77 562.134 2082.02 562.462 Q2082.27 562.79 2082.27 564.307 L2082.27 611.403 Q2082.27 613.904 2083.5 614.683 Q2084.73 615.461 2090.1 615.461 L2092.76 615.461 L2092.76 618.044 Q2089.81 617.798 2079.15 617.798 Q2068.49 617.798 2065.58 618.044 L2065.58 615.461 L2068.25 615.461 Q2073.54 615.461 2074.81 614.724 Q2076.08 613.945 2076.08 611.403 L2076.08 567.914 Q2071.69 570.127 2065.05 570.127 Z" fill="#000000" fill-rule="evenodd" fill-opacity="1" /><path clip-path="url(#clip260)" d="M 0 0 M2106.61 638.21 Q2106.61 637.801 2107.68 636.776 Q2121.21 623.003 2121.21 597.057 Q2121.21 571.029 2108.21 557.871 Q2106.61 556.355 2106.61 555.904 Q2106.61 555.084 2107.43 555.084 Q2108.01 555.084 2110.02 556.765 Q2112.07 558.445 2115.14 562.298 Q2118.25 566.151 2120.55 570.865 Q2126.08 582.301 2126.08 597.057 Q2126.08 611.239 2120.8 622.675 Q2118.54 627.471 2115.39 631.488 Q2112.23 635.505 2110.14 637.268 Q2108.05 639.03 2107.43 639.03 Q2106.61 639.03 2106.61 638.21 Z" fill="#000000" fill-rule="evenodd" fill-opacity="1" /><path clip-path="url(#clip260)" d="M 0 0 M2381 1574.59 Q2381 1560.41 2386.29 1548.97 Q2388.54 1544.18 2391.7 1540.16 Q2394.86 1536.14 2396.95 1534.38 Q2399.04 1532.62 2399.61 1532.62 Q2400.43 1532.62 2400.47 1533.44 Q2400.47 1533.85 2399.36 1534.87 Q2385.84 1548.64 2385.88 1574.59 Q2385.88 1600.62 2399.04 1613.86 Q2400.47 1615.29 2400.47 1615.74 Q2400.47 1616.56 2399.61 1616.56 Q2399.04 1616.56 2397.03 1614.88 Q2395.02 1613.2 2391.9 1609.35 Q2388.79 1605.5 2386.53 1600.78 Q2381 1589.35 2381 1574.59 Z" fill="#000000" fill-rule="evenodd" fill-opacity="1" /><path clip-path="url(#clip260)" d="M 0 0 M2413.23 1584.26 Q2413.23 1581.76 2414.66 1580.58 Q2416.1 1579.39 2417.94 1579.39 Q2419.87 1579.39 2421.22 1580.66 Q2422.61 1581.89 2422.61 1584.06 Q2422.61 1586.4 2420.97 1587.71 Q2419.38 1589.02 2417.08 1588.69 Q2419.09 1592.05 2422.78 1593.57 Q2426.51 1595.09 2429.95 1595.09 Q2433.56 1595.09 2436.47 1591.97 Q2439.42 1588.86 2439.42 1581.23 Q2439.42 1574.76 2436.88 1571.02 Q2434.38 1567.29 2429.42 1567.29 L2425.73 1567.29 Q2424.46 1567.29 2424.09 1567.17 Q2423.72 1567.05 2423.72 1566.35 Q2423.72 1565.53 2424.99 1565.37 Q2426.26 1565.37 2428.27 1565.12 Q2433.15 1564.96 2435.73 1560.74 Q2438.07 1556.8 2438.07 1551.19 Q2438.07 1546.06 2435.61 1543.93 Q2433.19 1541.76 2430.03 1541.76 Q2427.08 1541.76 2423.84 1542.99 Q2420.61 1544.22 2418.84 1546.96 Q2424.05 1546.96 2424.05 1551.19 Q2424.05 1553.03 2422.86 1554.26 Q2421.71 1555.45 2419.79 1555.45 Q2417.94 1555.45 2416.71 1554.3 Q2415.48 1553.11 2415.48 1551.1 Q2415.48 1546.31 2419.75 1542.99 Q2424.05 1539.67 2430.36 1539.67 Q2436.59 1539.67 2441.18 1542.95 Q2445.81 1546.23 2445.81 1551.27 Q2445.81 1556.23 2442.54 1560.29 Q2439.26 1564.34 2434.05 1566.02 Q2440.44 1567.29 2444.26 1571.64 Q2448.07 1575.94 2448.07 1581.23 Q2448.07 1587.79 2442.9 1592.63 Q2437.74 1597.42 2430.2 1597.42 Q2423.23 1597.42 2418.23 1593.65 Q2413.23 1589.88 2413.23 1584.26 Z" fill="#000000" fill-rule="evenodd" fill-opacity="1" /><path clip-path="url(#clip260)" d="M 0 0 M2455.98 1594.22 Q2454.79 1592.87 2454.79 1591.11 Q2454.79 1589.35 2455.94 1588.04 Q2457.13 1586.68 2459.26 1586.68 Q2461.76 1586.68 2463.19 1589.1 Q2464.63 1591.48 2464.63 1595.5 Q2464.63 1599.84 2462.87 1603.86 Q2461.1 1607.92 2459.38 1609.84 Q2457.66 1611.77 2456.96 1611.77 Q2456.14 1611.77 2456.14 1610.87 Q2456.14 1610.54 2456.72 1609.92 Q2462.74 1603.45 2462.78 1595.5 Q2462.78 1594.22 2462.62 1594.22 L2462.41 1594.39 Q2460.98 1595.58 2459.26 1595.58 Q2457.17 1595.58 2455.98 1594.22 Z" fill="#000000" fill-rule="evenodd" fill-opacity="1" /><path clip-path="url(#clip260)" d="M 0 0 M2491.11 1547.66 L2491.11 1545.04 Q2501.2 1545.04 2506.4 1539.67 Q2507.84 1539.67 2508.08 1540 Q2508.33 1540.32 2508.33 1541.84 L2508.33 1588.94 Q2508.33 1591.44 2509.56 1592.22 Q2510.79 1593 2516.16 1593 L2518.82 1593 L2518.82 1595.58 Q2515.87 1595.33 2505.21 1595.33 Q2494.56 1595.33 2491.65 1595.58 L2491.65 1593 L2494.31 1593 Q2499.6 1593 2500.87 1592.26 Q2502.14 1591.48 2502.14 1588.94 L2502.14 1545.45 Q2497.75 1547.66 2491.11 1547.66 Z" fill="#000000" fill-rule="evenodd" fill-opacity="1" /><path clip-path="url(#clip260)" d="M 0 0 M2532.68 1615.74 Q2532.68 1615.33 2533.74 1614.31 Q2547.27 1600.54 2547.27 1574.59 Q2547.27 1548.56 2534.27 1535.41 Q2532.68 1533.89 2532.68 1533.44 Q2532.68 1532.62 2533.5 1532.62 Q2534.07 1532.62 2536.08 1534.3 Q2538.13 1535.98 2541.2 1539.83 Q2544.32 1543.69 2546.61 1548.4 Q2552.15 1559.83 2552.15 1574.59 Q2552.15 1588.77 2546.86 1600.21 Q2544.6 1605.01 2541.45 1609.02 Q2538.29 1613.04 2536.2 1614.8 Q2534.11 1616.56 2533.5 1616.56 Q2532.68 1616.56 2532.68 1615.74 Z" fill="#000000" fill-rule="evenodd" fill-opacity="1" /><path clip-path="url(#clip260)" d="M 0 0 M1862.35 2480.7 Q1862.35 2466.52 1867.64 2455.08 Q1869.89 2450.28 1873.05 2446.27 Q1876.2 2442.25 1878.29 2440.49 Q1880.38 2438.72 1880.96 2438.72 Q1881.78 2438.72 1881.82 2439.54 Q1881.82 2439.95 1880.71 2440.98 Q1867.18 2454.75 1867.23 2480.7 Q1867.23 2506.73 1880.38 2519.97 Q1881.82 2521.4 1881.82 2521.85 Q1881.82 2522.67 1880.96 2522.67 Q1880.38 2522.67 1878.37 2520.99 Q1876.37 2519.31 1873.25 2515.46 Q1870.14 2511.6 1867.88 2506.89 Q1862.35 2495.45 1862.35 2480.7 Z" fill="#000000" fill-rule="evenodd" fill-opacity="1" /><path clip-path="url(#clip260)" d="M 0 0 M1894.57 2501.68 Q1894.57 2500.17 1894.7 2499.72 Q1894.86 2499.27 1895.52 2498.57 L1911.63 2480.62 Q1920.44 2470.7 1920.44 2462.05 Q1920.44 2456.43 1917.49 2452.42 Q1914.58 2448.4 1909.21 2448.4 Q1905.52 2448.4 1902.4 2450.65 Q1899.29 2452.91 1897.85 2456.92 Q1898.1 2456.84 1898.96 2456.84 Q1901.05 2456.84 1902.2 2458.15 Q1903.39 2459.47 1903.39 2461.23 Q1903.39 2463.48 1901.91 2464.59 Q1900.48 2465.65 1899.04 2465.65 Q1898.47 2465.65 1897.69 2465.53 Q1896.95 2465.41 1895.76 2464.26 Q1894.57 2463.07 1894.57 2460.98 Q1894.57 2455.12 1899 2450.45 Q1903.47 2445.78 1910.27 2445.78 Q1917.98 2445.78 1923.02 2450.37 Q1928.1 2454.92 1928.1 2462.05 Q1928.1 2464.55 1927.33 2466.84 Q1926.59 2469.1 1925.56 2470.86 Q1924.58 2472.62 1921.87 2475.45 Q1919.17 2478.28 1917 2480.29 Q1914.82 2482.3 1909.95 2486.56 L1901.05 2495.21 L1916.18 2495.21 Q1923.55 2495.21 1924.13 2494.55 Q1924.95 2493.36 1925.97 2487.09 L1928.1 2487.09 L1925.73 2501.68 L1894.57 2501.68 Z" fill="#000000" fill-rule="evenodd" fill-opacity="1" /><path clip-path="url(#clip260)" d="M 0 0 M1937.33 2500.33 Q1936.14 2498.98 1936.14 2497.22 Q1936.14 2495.45 1937.29 2494.14 Q1938.47 2492.79 1940.61 2492.79 Q1943.11 2492.79 1944.54 2495.21 Q1945.97 2497.59 1945.97 2501.6 Q1945.97 2505.95 1944.21 2509.96 Q1942.45 2514.02 1940.73 2515.95 Q1939.01 2517.88 1938.31 2517.88 Q1937.49 2517.88 1937.49 2516.97 Q1937.49 2516.65 1938.06 2516.03 Q1944.09 2509.55 1944.13 2501.6 Q1944.13 2500.33 1943.97 2500.33 L1943.76 2500.5 Q1942.33 2501.68 1940.61 2501.68 Q1938.51 2501.68 1937.33 2500.33 Z" fill="#000000" fill-rule="evenodd" fill-opacity="1" /><path clip-path="url(#clip260)" d="M 0 0 M1972.46 2453.77 L1972.46 2451.14 Q1982.54 2451.14 1987.75 2445.78 Q1989.18 2445.78 1989.43 2446.1 Q1989.68 2446.43 1989.68 2447.95 L1989.68 2495.04 Q1989.68 2497.54 1990.91 2498.32 Q1992.14 2499.1 1997.5 2499.1 L2000.17 2499.1 L2000.17 2501.68 Q1997.22 2501.44 1986.56 2501.44 Q1975.9 2501.44 1972.99 2501.68 L1972.99 2499.1 L1975.66 2499.1 Q1980.95 2499.1 1982.22 2498.36 Q1983.49 2497.59 1983.49 2495.04 L1983.49 2451.55 Q1979.1 2453.77 1972.46 2453.77 Z" fill="#000000" fill-rule="evenodd" fill-opacity="1" /><path clip-path="url(#clip260)" d="M 0 0 M2014.02 2521.85 Q2014.02 2521.44 2015.09 2520.42 Q2028.61 2506.64 2028.61 2480.7 Q2028.61 2454.67 2015.62 2441.51 Q2014.02 2440 2014.02 2439.54 Q2014.02 2438.72 2014.84 2438.72 Q2015.42 2438.72 2017.42 2440.41 Q2019.47 2442.09 2022.55 2445.94 Q2025.66 2449.79 2027.96 2454.51 Q2033.49 2465.94 2033.49 2480.7 Q2033.49 2494.88 2028.21 2506.32 Q2025.95 2511.11 2022.79 2515.13 Q2019.64 2519.15 2017.55 2520.91 Q2015.46 2522.67 2014.84 2522.67 Q2014.02 2522.67 2014.02 2521.85 Z" fill="#000000" fill-rule="evenodd" fill-opacity="1" /><path clip-path="url(#clip260)" d="M 0 0 M2096.61 3251.02 Q2096.61 3236.84 2101.9 3225.41 Q2104.15 3220.61 2107.31 3216.59 Q2110.46 3212.58 2112.55 3210.81 Q2114.64 3209.05 2115.22 3209.05 Q2116.04 3209.05 2116.08 3209.87 Q2116.08 3210.28 2114.97 3211.31 Q2101.45 3225.08 2101.49 3251.02 Q2101.49 3277.05 2114.64 3290.29 Q2116.08 3291.73 2116.08 3292.18 Q2116.08 3293 2115.22 3293 Q2114.64 3293 2112.64 3291.32 Q2110.63 3289.64 2107.51 3285.78 Q2104.4 3281.93 2102.14 3277.22 Q2096.61 3265.78 2096.61 3251.02 Z" fill="#000000" fill-rule="evenodd" fill-opacity="1" /><path clip-path="url(#clip260)" d="M 0 0 M2128.84 3224.09 L2128.84 3221.47 Q2138.92 3221.47 2144.13 3216.1 Q2145.56 3216.1 2145.81 3216.43 Q2146.05 3216.76 2146.05 3218.27 L2146.05 3265.37 Q2146.05 3267.87 2147.28 3268.65 Q2148.51 3269.43 2153.88 3269.43 L2156.55 3269.43 L2156.55 3272.01 Q2153.59 3271.77 2142.94 3271.77 Q2132.28 3271.77 2129.37 3272.01 L2129.37 3269.43 L2132.03 3269.43 Q2137.32 3269.43 2138.59 3268.69 Q2139.86 3267.91 2139.86 3265.37 L2139.86 3221.88 Q2135.48 3224.09 2128.84 3224.09 Z" fill="#000000" fill-rule="evenodd" fill-opacity="1" /><path clip-path="url(#clip260)" d="M 0 0 M2171.59 3270.66 Q2170.4 3269.31 2170.4 3267.54 Q2170.4 3265.78 2171.55 3264.47 Q2172.74 3263.12 2174.87 3263.12 Q2177.37 3263.12 2178.8 3265.53 Q2180.24 3267.91 2180.24 3271.93 Q2180.24 3276.27 2178.47 3280.29 Q2176.71 3284.35 2174.99 3286.28 Q2173.27 3288.2 2172.57 3288.2 Q2171.75 3288.2 2171.75 3287.3 Q2171.75 3286.97 2172.33 3286.36 Q2178.35 3279.88 2178.39 3271.93 Q2178.39 3270.66 2178.23 3270.66 L2178.02 3270.82 Q2176.59 3272.01 2174.87 3272.01 Q2172.78 3272.01 2171.59 3270.66 Z" fill="#000000" fill-rule="evenodd" fill-opacity="1" /><path clip-path="url(#clip260)" d="M 0 0 M2206.72 3224.09 L2206.72 3221.47 Q2216.81 3221.47 2222.01 3216.1 Q2223.45 3216.1 2223.69 3216.43 Q2223.94 3216.76 2223.94 3218.27 L2223.94 3265.37 Q2223.94 3267.87 2225.17 3268.65 Q2226.4 3269.43 2231.77 3269.43 L2234.43 3269.43 L2234.43 3272.01 Q2231.48 3271.77 2220.82 3271.77 Q2210.17 3271.77 2207.26 3272.01 L2207.26 3269.43 L2209.92 3269.43 Q2215.21 3269.43 2216.48 3268.69 Q2217.75 3267.91 2217.75 3265.37 L2217.75 3221.88 Q2213.36 3224.09 2206.72 3224.09 Z" fill="#000000" fill-rule="evenodd" fill-opacity="1" /><path clip-path="url(#clip260)" d="M 0 0 M2248.28 3292.18 Q2248.28 3291.77 2249.35 3290.74 Q2262.88 3276.97 2262.88 3251.02 Q2262.88 3225 2249.88 3211.84 Q2248.28 3210.32 2248.28 3209.87 Q2248.28 3209.05 2249.1 3209.05 Q2249.68 3209.05 2251.69 3210.73 Q2253.74 3212.41 2256.81 3216.27 Q2259.93 3220.12 2262.22 3224.83 Q2267.75 3236.27 2267.75 3251.02 Q2267.75 3265.21 2262.47 3276.64 Q2260.21 3281.44 2257.06 3285.46 Q2253.9 3289.47 2251.81 3291.24 Q2249.72 3293 2249.1 3293 Q2248.28 3293 2248.28 3292.18 Z" fill="#000000" fill-rule="evenodd" fill-opacity="1" /><path clip-path="url(#clip260)" d="M 0 0 M1250.87 3114.58 Q1250.87 3100.4 1256.15 3088.96 Q1258.41 3084.17 1261.56 3080.15 Q1264.72 3076.13 1266.81 3074.37 Q1268.9 3072.61 1269.47 3072.61 Q1270.29 3072.61 1270.34 3073.43 Q1270.34 3073.84 1269.23 3074.86 Q1255.7 3088.64 1255.74 3114.58 Q1255.74 3140.61 1268.9 3153.85 Q1270.34 3155.28 1270.34 3155.74 Q1270.34 3156.55 1269.47 3156.55 Q1268.9 3156.55 1266.89 3154.87 Q1264.88 3153.19 1261.77 3149.34 Q1258.65 3145.49 1256.4 3140.77 Q1250.87 3129.34 1250.87 3114.58 Z" fill="#000000" fill-rule="evenodd" fill-opacity="1" /><path clip-path="url(#clip260)" d="M 0 0 M1283.09 3087.65 L1283.09 3085.03 Q1293.18 3085.03 1298.38 3079.66 Q1299.82 3079.66 1300.06 3079.99 Q1300.31 3080.31 1300.31 3081.83 L1300.31 3128.93 Q1300.31 3131.43 1301.54 3132.21 Q1302.77 3132.99 1308.14 3132.99 L1310.8 3132.99 L1310.8 3135.57 Q1307.85 3135.32 1297.19 3135.32 Q1286.54 3135.32 1283.63 3135.57 L1283.63 3132.99 L1286.29 3132.99 Q1291.58 3132.99 1292.85 3132.25 Q1294.12 3131.47 1294.12 3128.93 L1294.12 3085.44 Q1289.73 3087.65 1283.09 3087.65 Z" fill="#000000" fill-rule="evenodd" fill-opacity="1" /><path clip-path="url(#clip260)" d="M 0 0 M1325.84 3134.22 Q1324.65 3132.86 1324.65 3131.1 Q1324.65 3129.34 1325.8 3128.03 Q1326.99 3126.67 1329.12 3126.67 Q1331.62 3126.67 1333.06 3129.09 Q1334.49 3131.47 1334.49 3135.49 Q1334.49 3139.83 1332.73 3143.85 Q1330.97 3147.91 1329.25 3149.83 Q1327.52 3151.76 1326.83 3151.76 Q1326.01 3151.76 1326.01 3150.86 Q1326.01 3150.53 1326.58 3149.91 Q1332.61 3143.44 1332.65 3135.49 Q1332.65 3134.22 1332.48 3134.22 L1332.28 3134.38 Q1330.84 3135.57 1329.12 3135.57 Q1327.03 3135.57 1325.84 3134.22 Z" fill="#000000" fill-rule="evenodd" fill-opacity="1" /><path clip-path="url(#clip260)" d="M 0 0 M1360.98 3135.57 Q1360.98 3134.05 1361.1 3133.6 Q1361.26 3133.15 1361.92 3132.45 L1378.03 3114.5 Q1386.84 3104.58 1386.84 3095.93 Q1386.84 3090.32 1383.89 3086.3 Q1380.98 3082.28 1375.61 3082.28 Q1371.92 3082.28 1368.81 3084.54 Q1365.69 3086.79 1364.26 3090.81 Q1364.5 3090.73 1365.36 3090.73 Q1367.45 3090.73 1368.6 3092.04 Q1369.79 3093.35 1369.79 3095.11 Q1369.79 3097.37 1368.31 3098.47 Q1366.88 3099.54 1365.45 3099.54 Q1364.87 3099.54 1364.09 3099.42 Q1363.36 3099.29 1362.17 3098.15 Q1360.98 3096.96 1360.98 3094.87 Q1360.98 3089 1365.4 3084.33 Q1369.87 3079.66 1376.68 3079.66 Q1384.38 3079.66 1389.42 3084.25 Q1394.51 3088.8 1394.51 3095.93 Q1394.51 3098.43 1393.73 3100.73 Q1392.99 3102.98 1391.97 3104.74 Q1390.98 3106.51 1388.28 3109.34 Q1385.57 3112.16 1383.4 3114.17 Q1381.23 3116.18 1376.35 3120.44 L1367.45 3129.09 L1382.58 3129.09 Q1389.96 3129.09 1390.53 3128.44 Q1391.35 3127.25 1392.38 3120.98 L1394.51 3120.98 L1392.13 3135.57 L1360.98 3135.57 Z" fill="#000000" fill-rule="evenodd" fill-opacity="1" /><path clip-path="url(#clip260)" d="M 0 0 M1402.54 3155.74 Q1402.54 3155.33 1403.61 3154.3 Q1417.13 3140.53 1417.13 3114.58 Q1417.13 3088.55 1404.14 3075.4 Q1402.54 3073.88 1402.54 3073.43 Q1402.54 3072.61 1403.36 3072.61 Q1403.93 3072.61 1405.94 3074.29 Q1407.99 3075.97 1411.07 3079.82 Q1414.18 3083.68 1416.48 3088.39 Q1422.01 3099.83 1422.01 3114.58 Q1422.01 3128.76 1416.72 3140.2 Q1414.47 3145 1411.31 3149.01 Q1408.16 3153.03 1406.07 3154.79 Q1403.97 3156.55 1403.36 3156.55 Q1402.54 3156.55 1402.54 3155.74 Z" fill="#000000" fill-rule="evenodd" fill-opacity="1" /><path clip-path="url(#clip260)" d="M 0 0 M2874.64 2131.8 Q2874.64 2117.62 2879.93 2106.19 Q2882.18 2101.39 2885.34 2097.37 Q2888.49 2093.36 2890.58 2091.59 Q2892.67 2089.83 2893.25 2089.83 Q2894.07 2089.83 2894.11 2090.65 Q2894.11 2091.06 2893 2092.09 Q2879.47 2105.86 2879.52 2131.8 Q2879.52 2157.83 2892.67 2171.07 Q2894.11 2172.51 2894.11 2172.96 Q2894.11 2173.78 2893.25 2173.78 Q2892.67 2173.78 2890.66 2172.1 Q2888.66 2170.42 2885.54 2166.56 Q2882.43 2162.71 2880.17 2158 Q2874.64 2146.56 2874.64 2131.8 Z" fill="#000000" fill-rule="evenodd" fill-opacity="1" /><path clip-path="url(#clip260)" d="M 0 0 M2906.86 2152.79 Q2906.86 2151.27 2906.99 2150.82 Q2907.15 2150.37 2907.81 2149.68 L2923.92 2131.72 Q2932.73 2121.8 2932.73 2113.15 Q2932.73 2107.54 2929.78 2103.52 Q2926.87 2099.5 2921.5 2099.5 Q2917.81 2099.5 2914.69 2101.76 Q2911.58 2104.01 2910.14 2108.03 Q2910.39 2107.95 2911.25 2107.95 Q2913.34 2107.95 2914.49 2109.26 Q2915.68 2110.57 2915.68 2112.33 Q2915.68 2114.59 2914.2 2115.69 Q2912.77 2116.76 2911.33 2116.76 Q2910.76 2116.76 2909.98 2116.64 Q2909.24 2116.51 2908.05 2115.37 Q2906.86 2114.18 2906.86 2112.09 Q2906.86 2106.23 2911.29 2101.55 Q2915.76 2096.88 2922.56 2096.88 Q2930.27 2096.88 2935.31 2101.47 Q2940.39 2106.02 2940.39 2113.15 Q2940.39 2115.65 2939.62 2117.95 Q2938.88 2120.2 2937.85 2121.97 Q2936.87 2123.73 2934.16 2126.56 Q2931.46 2129.39 2929.29 2131.39 Q2927.11 2133.4 2922.24 2137.67 L2913.34 2146.31 L2928.47 2146.31 Q2935.84 2146.31 2936.42 2145.66 Q2937.24 2144.47 2938.26 2138.2 L2940.39 2138.2 L2938.02 2152.79 L2906.86 2152.79 Z" fill="#000000" fill-rule="evenodd" fill-opacity="1" /><path clip-path="url(#clip260)" d="M 0 0 M2949.62 2151.44 Q2948.43 2150.08 2948.43 2148.32 Q2948.43 2146.56 2949.58 2145.25 Q2950.76 2143.9 2952.9 2143.9 Q2955.4 2143.9 2956.83 2146.31 Q2958.26 2148.69 2958.26 2152.71 Q2958.26 2157.05 2956.5 2161.07 Q2954.74 2165.13 2953.02 2167.05 Q2951.3 2168.98 2950.6 2168.98 Q2949.78 2168.98 2949.78 2168.08 Q2949.78 2167.75 2950.35 2167.14 Q2956.38 2160.66 2956.42 2152.71 Q2956.42 2151.44 2956.26 2151.44 L2956.05 2151.6 Q2954.62 2152.79 2952.9 2152.79 Q2950.8 2152.79 2949.62 2151.44 Z" fill="#000000" fill-rule="evenodd" fill-opacity="1" /><path clip-path="url(#clip260)" d="M 0 0 M2984.75 2152.79 Q2984.75 2151.27 2984.87 2150.82 Q2985.04 2150.37 2985.69 2149.68 L3001.8 2131.72 Q3010.61 2121.8 3010.61 2113.15 Q3010.61 2107.54 3007.66 2103.52 Q3004.75 2099.5 2999.38 2099.5 Q2995.69 2099.5 2992.58 2101.76 Q2989.46 2104.01 2988.03 2108.03 Q2988.28 2107.95 2989.14 2107.95 Q2991.23 2107.95 2992.37 2109.26 Q2993.56 2110.57 2993.56 2112.33 Q2993.56 2114.59 2992.09 2115.69 Q2990.65 2116.76 2989.22 2116.76 Q2988.64 2116.76 2987.87 2116.64 Q2987.13 2116.51 2985.94 2115.37 Q2984.75 2114.18 2984.75 2112.09 Q2984.75 2106.23 2989.18 2101.55 Q2993.65 2096.88 3000.45 2096.88 Q3008.16 2096.88 3013.2 2101.47 Q3018.28 2106.02 3018.28 2113.15 Q3018.28 2115.65 3017.5 2117.95 Q3016.76 2120.2 3015.74 2121.97 Q3014.75 2123.73 3012.05 2126.56 Q3009.34 2129.39 3007.17 2131.39 Q3005 2133.4 3000.12 2137.67 L2991.23 2146.31 L3006.35 2146.31 Q3013.73 2146.31 3014.3 2145.66 Q3015.12 2144.47 3016.15 2138.2 L3018.28 2138.2 L3015.9 2152.79 L2984.75 2152.79 Z" fill="#000000" fill-rule="evenodd" fill-opacity="1" /><path clip-path="url(#clip260)" d="M 0 0 M3026.31 2172.96 Q3026.31 2172.55 3027.38 2171.52 Q3040.91 2157.75 3040.91 2131.8 Q3040.91 2105.78 3027.91 2092.62 Q3026.31 2091.1 3026.31 2090.65 Q3026.31 2089.83 3027.13 2089.83 Q3027.71 2089.83 3029.72 2091.51 Q3031.76 2093.19 3034.84 2097.04 Q3037.95 2100.9 3040.25 2105.61 Q3045.78 2117.05 3045.78 2131.8 Q3045.78 2145.99 3040.5 2157.42 Q3038.24 2162.22 3035.08 2166.23 Q3031.93 2170.25 3029.84 2172.01 Q3027.75 2173.78 3027.13 2173.78 Q3026.31 2173.78 3026.31 2172.96 Z" fill="#000000" fill-rule="evenodd" fill-opacity="1" /><path clip-path="url(#clip260)" d="M 0 0 M3310.84 3346.89 Q3310.84 3332.71 3316.13 3321.27 Q3318.38 3316.47 3321.54 3312.46 Q3324.69 3308.44 3326.78 3306.68 Q3328.87 3304.92 3329.45 3304.92 Q3330.27 3304.92 3330.31 3305.74 Q3330.31 3306.15 3329.2 3307.17 Q3315.68 3320.94 3315.72 3346.89 Q3315.72 3372.92 3328.87 3386.16 Q3330.31 3387.59 3330.31 3388.04 Q3330.31 3388.86 3329.45 3388.86 Q3328.87 3388.86 3326.87 3387.18 Q3324.86 3385.5 3321.74 3381.65 Q3318.63 3377.79 3316.37 3373.08 Q3310.84 3361.64 3310.84 3346.89 Z" fill="#000000" fill-rule="evenodd" fill-opacity="1" /><path clip-path="url(#clip260)" d="M 0 0 M3343.07 3319.96 L3343.07 3317.34 Q3353.15 3317.34 3358.35 3311.97 Q3359.79 3311.97 3360.04 3312.29 Q3360.28 3312.62 3360.28 3314.14 L3360.28 3361.23 Q3360.28 3363.74 3361.51 3364.51 Q3362.74 3365.29 3368.11 3365.29 L3370.77 3365.29 L3370.77 3367.87 Q3367.82 3367.63 3357.17 3367.63 Q3346.51 3367.63 3343.6 3367.87 L3343.6 3365.29 L3346.26 3365.29 Q3351.55 3365.29 3352.82 3364.55 Q3354.09 3363.78 3354.09 3361.23 L3354.09 3317.75 Q3349.71 3319.96 3343.07 3319.96 Z" fill="#000000" fill-rule="evenodd" fill-opacity="1" /><path clip-path="url(#clip260)" d="M 0 0 M3385.82 3366.52 Q3384.63 3365.17 3384.63 3363.41 Q3384.63 3361.64 3385.78 3360.33 Q3386.96 3358.98 3389.1 3358.98 Q3391.6 3358.98 3393.03 3361.4 Q3394.47 3363.78 3394.47 3367.79 Q3394.47 3372.14 3392.7 3376.15 Q3390.94 3380.21 3389.22 3382.14 Q3387.5 3384.07 3386.8 3384.07 Q3385.98 3384.07 3385.98 3383.16 Q3385.98 3382.84 3386.55 3382.22 Q3392.58 3375.74 3392.62 3367.79 Q3392.62 3366.52 3392.46 3366.52 L3392.25 3366.69 Q3390.82 3367.87 3389.1 3367.87 Q3387.01 3367.87 3385.82 3366.52 Z" fill="#000000" fill-rule="evenodd" fill-opacity="1" /><path clip-path="url(#clip260)" d="M 0 0 M3420.95 3356.56 Q3420.95 3354.06 3422.39 3352.87 Q3423.82 3351.68 3425.66 3351.68 Q3427.59 3351.68 3428.94 3352.95 Q3430.34 3354.18 3430.34 3356.36 Q3430.34 3358.69 3428.7 3360.01 Q3427.1 3361.32 3424.8 3360.99 Q3426.81 3364.35 3430.5 3365.87 Q3434.23 3367.38 3437.67 3367.38 Q3441.28 3367.38 3444.19 3364.27 Q3447.14 3361.15 3447.14 3353.53 Q3447.14 3347.05 3444.6 3343.32 Q3442.1 3339.59 3437.14 3339.59 L3433.45 3339.59 Q3432.18 3339.59 3431.81 3339.47 Q3431.44 3339.35 3431.44 3338.65 Q3431.44 3337.83 3432.72 3337.67 Q3433.99 3337.67 3435.99 3337.42 Q3440.87 3337.26 3443.45 3333.03 Q3445.79 3329.1 3445.79 3323.48 Q3445.79 3318.36 3443.33 3316.23 Q3440.91 3314.06 3437.76 3314.06 Q3434.81 3314.06 3431.57 3315.29 Q3428.33 3316.52 3426.57 3319.26 Q3431.77 3319.26 3431.77 3323.48 Q3431.77 3325.33 3430.58 3326.56 Q3429.44 3327.75 3427.51 3327.75 Q3425.66 3327.75 3424.44 3326.6 Q3423.21 3325.41 3423.21 3323.4 Q3423.21 3318.61 3427.47 3315.29 Q3431.77 3311.97 3438.08 3311.97 Q3444.32 3311.97 3448.91 3315.24 Q3453.54 3318.52 3453.54 3323.57 Q3453.54 3328.53 3450.26 3332.58 Q3446.98 3336.64 3441.77 3338.32 Q3448.17 3339.59 3451.98 3343.94 Q3455.79 3348.24 3455.79 3353.53 Q3455.79 3360.09 3450.63 3364.92 Q3445.46 3369.72 3437.92 3369.72 Q3430.95 3369.72 3425.95 3365.95 Q3420.95 3362.18 3420.95 3356.56 Z" fill="#000000" fill-rule="evenodd" fill-opacity="1" /><path clip-path="url(#clip260)" d="M 0 0 M3462.51 3388.04 Q3462.51 3387.63 3463.58 3386.61 Q3477.11 3372.83 3477.11 3346.89 Q3477.11 3320.86 3464.11 3307.7 Q3462.51 3306.19 3462.51 3305.74 Q3462.51 3304.92 3463.33 3304.92 Q3463.91 3304.92 3465.92 3306.6 Q3467.97 3308.28 3471.04 3312.13 Q3474.15 3315.98 3476.45 3320.7 Q3481.98 3332.13 3481.98 3346.89 Q3481.98 3361.07 3476.7 3372.51 Q3474.44 3377.3 3471.29 3381.32 Q3468.13 3385.34 3466.04 3387.1 Q3463.95 3388.86 3463.33 3388.86 Q3462.51 3388.86 3462.51 3388.04 Z" fill="#000000" fill-rule="evenodd" fill-opacity="1" /><path clip-path="url(#clip260)" d="M 0 0 M1386.07 1375.81 Q1386.07 1361.63 1391.36 1350.2 Q1393.61 1345.4 1396.77 1341.38 Q1399.92 1337.37 1402.01 1335.6 Q1404.1 1333.84 1404.68 1333.84 Q1405.5 1333.84 1405.54 1334.66 Q1405.54 1335.07 1404.43 1336.1 Q1390.91 1349.87 1390.95 1375.81 Q1390.95 1401.84 1404.1 1415.08 Q1405.54 1416.52 1405.54 1416.97 Q1405.54 1417.79 1404.68 1417.79 Q1404.1 1417.79 1402.1 1416.11 Q1400.09 1414.43 1396.97 1410.57 Q1393.86 1406.72 1391.6 1402.01 Q1386.07 1390.57 1386.07 1375.81 Z" fill="#000000" fill-rule="evenodd" fill-opacity="1" /><path clip-path="url(#clip260)" d="M 0 0 M1418.3 1385.49 Q1418.3 1382.99 1419.73 1381.8 Q1421.17 1380.61 1423.01 1380.61 Q1424.94 1380.61 1426.29 1381.88 Q1427.68 1383.11 1427.68 1385.28 Q1427.68 1387.62 1426.04 1388.93 Q1424.45 1390.24 1422.15 1389.92 Q1424.16 1393.28 1427.85 1394.79 Q1431.58 1396.31 1435.02 1396.31 Q1438.63 1396.31 1441.54 1393.19 Q1444.49 1390.08 1444.49 1382.46 Q1444.49 1375.98 1441.95 1372.25 Q1439.45 1368.52 1434.49 1368.52 L1430.8 1368.52 Q1429.53 1368.52 1429.16 1368.4 Q1428.79 1368.27 1428.79 1367.58 Q1428.79 1366.76 1430.06 1366.59 Q1431.33 1366.59 1433.34 1366.35 Q1438.22 1366.18 1440.8 1361.96 Q1443.14 1358.03 1443.14 1352.41 Q1443.14 1347.29 1440.68 1345.15 Q1438.26 1342.98 1435.1 1342.98 Q1432.15 1342.98 1428.91 1344.21 Q1425.67 1345.44 1423.91 1348.19 Q1429.12 1348.19 1429.12 1352.41 Q1429.12 1354.25 1427.93 1355.48 Q1426.78 1356.67 1424.86 1356.67 Q1423.01 1356.67 1421.78 1355.53 Q1420.55 1354.34 1420.55 1352.33 Q1420.55 1347.53 1424.81 1344.21 Q1429.12 1340.89 1435.43 1340.89 Q1441.66 1340.89 1446.25 1344.17 Q1450.88 1347.45 1450.88 1352.49 Q1450.88 1357.45 1447.6 1361.51 Q1444.32 1365.57 1439.12 1367.25 Q1445.51 1368.52 1449.33 1372.86 Q1453.14 1377.17 1453.14 1382.46 Q1453.14 1389.01 1447.97 1393.85 Q1442.81 1398.65 1435.27 1398.65 Q1428.3 1398.65 1423.3 1394.87 Q1418.3 1391.1 1418.3 1385.49 Z" fill="#000000" fill-rule="evenodd" fill-opacity="1" /><path clip-path="url(#clip260)" d="M 0 0 M1461.05 1395.45 Q1459.86 1394.1 1459.86 1392.33 Q1459.86 1390.57 1461.01 1389.26 Q1462.2 1387.91 1464.33 1387.91 Q1466.83 1387.91 1468.26 1390.32 Q1469.7 1392.7 1469.7 1396.72 Q1469.7 1401.06 1467.93 1405.08 Q1466.17 1409.14 1464.45 1411.07 Q1462.73 1412.99 1462.03 1412.99 Q1461.21 1412.99 1461.21 1412.09 Q1461.21 1411.76 1461.79 1411.15 Q1467.81 1404.67 1467.85 1396.72 Q1467.85 1395.45 1467.69 1395.45 L1467.48 1395.61 Q1466.05 1396.8 1464.33 1396.8 Q1462.24 1396.8 1461.05 1395.45 Z" fill="#000000" fill-rule="evenodd" fill-opacity="1" /><path clip-path="url(#clip260)" d="M 0 0 M1496.18 1396.8 Q1496.18 1395.28 1496.31 1394.83 Q1496.47 1394.38 1497.13 1393.69 L1513.23 1375.73 Q1522.05 1365.81 1522.05 1357.16 Q1522.05 1351.55 1519.1 1347.53 Q1516.19 1343.52 1510.82 1343.52 Q1507.13 1343.52 1504.01 1345.77 Q1500.9 1348.02 1499.46 1352.04 Q1499.71 1351.96 1500.57 1351.96 Q1502.66 1351.96 1503.81 1353.27 Q1504.99 1354.58 1504.99 1356.34 Q1504.99 1358.6 1503.52 1359.71 Q1502.08 1360.77 1500.65 1360.77 Q1500.08 1360.77 1499.3 1360.65 Q1498.56 1360.53 1497.37 1359.38 Q1496.18 1358.19 1496.18 1356.1 Q1496.18 1350.24 1500.61 1345.56 Q1505.08 1340.89 1511.88 1340.89 Q1519.59 1340.89 1524.63 1345.48 Q1529.71 1350.03 1529.71 1357.16 Q1529.71 1359.66 1528.93 1361.96 Q1528.19 1364.21 1527.17 1365.98 Q1526.19 1367.74 1523.48 1370.57 Q1520.78 1373.4 1518.6 1375.4 Q1516.43 1377.41 1511.55 1381.68 L1502.66 1390.32 L1517.78 1390.32 Q1525.16 1390.32 1525.74 1389.67 Q1526.56 1388.48 1527.58 1382.21 L1529.71 1382.21 L1527.33 1396.8 L1496.18 1396.8 Z" fill="#000000" fill-rule="evenodd" fill-opacity="1" /><path clip-path="url(#clip260)" d="M 0 0 M1537.74 1416.97 Q1537.74 1416.56 1538.81 1415.53 Q1552.34 1401.76 1552.34 1375.81 Q1552.34 1349.79 1539.34 1336.63 Q1537.74 1335.11 1537.74 1334.66 Q1537.74 1333.84 1538.56 1333.84 Q1539.14 1333.84 1541.15 1335.52 Q1543.2 1337.2 1546.27 1341.06 Q1549.39 1344.91 1551.68 1349.62 Q1557.21 1361.06 1557.21 1375.81 Q1557.21 1390 1551.93 1401.43 Q1549.67 1406.23 1546.52 1410.25 Q1543.36 1414.26 1541.27 1416.03 Q1539.18 1417.79 1538.56 1417.79 Q1537.74 1417.79 1537.74 1416.97 Z" fill="#000000" fill-rule="evenodd" fill-opacity="1" /><path clip-path="url(#clip260)" d="M 0 0 M1168.51 2275.35 Q1168.51 2261.16 1173.8 2249.73 Q1176.06 2244.93 1179.21 2240.92 Q1182.37 2236.9 1184.46 2235.14 Q1186.55 2233.37 1187.12 2233.37 Q1187.94 2233.37 1187.98 2234.19 Q1187.98 2234.6 1186.88 2235.63 Q1173.35 2249.4 1173.39 2275.35 Q1173.39 2301.37 1186.55 2314.61 Q1187.98 2316.05 1187.98 2316.5 Q1187.98 2317.32 1187.12 2317.32 Q1186.55 2317.32 1184.54 2315.64 Q1182.53 2313.96 1179.42 2310.11 Q1176.3 2306.25 1174.05 2301.54 Q1168.51 2290.1 1168.51 2275.35 Z" fill="#000000" fill-rule="evenodd" fill-opacity="1" /><path clip-path="url(#clip260)" d="M 0 0 M1200.74 2296.33 Q1200.74 2294.82 1200.86 2294.37 Q1201.03 2293.91 1201.68 2293.22 L1217.79 2275.26 Q1226.61 2265.34 1226.61 2256.7 Q1226.61 2251.08 1223.65 2247.06 Q1220.74 2243.05 1215.37 2243.05 Q1211.69 2243.05 1208.57 2245.3 Q1205.46 2247.56 1204.02 2251.57 Q1204.27 2251.49 1205.13 2251.49 Q1207.22 2251.49 1208.37 2252.8 Q1209.55 2254.11 1209.55 2255.88 Q1209.55 2258.13 1208.08 2259.24 Q1206.64 2260.3 1205.21 2260.3 Q1204.64 2260.3 1203.86 2260.18 Q1203.12 2260.06 1201.93 2258.91 Q1200.74 2257.72 1200.74 2255.63 Q1200.74 2249.77 1205.17 2245.1 Q1209.64 2240.42 1216.44 2240.42 Q1224.15 2240.42 1229.19 2245.01 Q1234.27 2249.56 1234.27 2256.7 Q1234.27 2259.2 1233.49 2261.49 Q1232.75 2263.75 1231.73 2265.51 Q1230.75 2267.27 1228.04 2270.1 Q1225.34 2272.93 1223.16 2274.94 Q1220.99 2276.94 1216.11 2281.21 L1207.22 2289.86 L1222.34 2289.86 Q1229.72 2289.86 1230.29 2289.2 Q1231.11 2288.01 1232.14 2281.74 L1234.27 2281.74 L1231.89 2296.33 L1200.74 2296.33 Z" fill="#000000" fill-rule="evenodd" fill-opacity="1" /><path clip-path="url(#clip260)" d="M 0 0 M1243.49 2294.98 Q1242.3 2293.63 1242.3 2291.86 Q1242.3 2290.1 1243.45 2288.79 Q1244.64 2287.44 1246.77 2287.44 Q1249.27 2287.44 1250.71 2289.86 Q1252.14 2292.23 1252.14 2296.25 Q1252.14 2300.6 1250.38 2304.61 Q1248.62 2308.67 1246.89 2310.6 Q1245.17 2312.52 1244.48 2312.52 Q1243.66 2312.52 1243.66 2311.62 Q1243.66 2311.29 1244.23 2310.68 Q1250.26 2304.2 1250.3 2296.25 Q1250.3 2294.98 1250.13 2294.98 L1249.93 2295.14 Q1248.49 2296.33 1246.77 2296.33 Q1244.68 2296.33 1243.49 2294.98 Z" fill="#000000" fill-rule="evenodd" fill-opacity="1" /><path clip-path="url(#clip260)" d="M 0 0 M1278.63 2285.02 Q1278.63 2282.52 1280.06 2281.33 Q1281.5 2280.14 1283.34 2280.14 Q1285.27 2280.14 1286.62 2281.41 Q1288.01 2282.64 1288.01 2284.81 Q1288.01 2287.15 1286.37 2288.46 Q1284.78 2289.77 1282.48 2289.45 Q1284.49 2292.81 1288.18 2294.32 Q1291.91 2295.84 1295.35 2295.84 Q1298.96 2295.84 1301.87 2292.73 Q1304.82 2289.61 1304.82 2281.99 Q1304.82 2275.51 1302.28 2271.78 Q1299.78 2268.05 1294.82 2268.05 L1291.13 2268.05 Q1289.86 2268.05 1289.49 2267.93 Q1289.12 2267.8 1289.12 2267.11 Q1289.12 2266.29 1290.39 2266.12 Q1291.66 2266.12 1293.67 2265.88 Q1298.55 2265.71 1301.13 2261.49 Q1303.47 2257.56 1303.47 2251.94 Q1303.47 2246.82 1301.01 2244.69 Q1298.59 2242.51 1295.43 2242.51 Q1292.48 2242.51 1289.24 2243.74 Q1286.01 2244.97 1284.24 2247.72 Q1289.45 2247.72 1289.45 2251.94 Q1289.45 2253.79 1288.26 2255.02 Q1287.11 2256.2 1285.19 2256.2 Q1283.34 2256.2 1282.11 2255.06 Q1280.88 2253.87 1280.88 2251.86 Q1280.88 2247.06 1285.14 2243.74 Q1289.45 2240.42 1295.76 2240.42 Q1301.99 2240.42 1306.58 2243.7 Q1311.21 2246.98 1311.21 2252.02 Q1311.21 2256.98 1307.93 2261.04 Q1304.66 2265.1 1299.45 2266.78 Q1305.84 2268.05 1309.66 2272.39 Q1313.47 2276.7 1313.47 2281.99 Q1313.47 2288.54 1308.3 2293.38 Q1303.14 2298.18 1295.6 2298.18 Q1288.63 2298.18 1283.63 2294.41 Q1278.63 2290.64 1278.63 2285.02 Z" fill="#000000" fill-rule="evenodd" fill-opacity="1" /><path clip-path="url(#clip260)" d="M 0 0 M1320.19 2316.5 Q1320.19 2316.09 1321.26 2315.06 Q1334.78 2301.29 1334.78 2275.35 Q1334.78 2249.32 1321.79 2236.16 Q1320.19 2234.64 1320.19 2234.19 Q1320.19 2233.37 1321.01 2233.37 Q1321.58 2233.37 1323.59 2235.05 Q1325.64 2236.73 1328.72 2240.59 Q1331.83 2244.44 1334.13 2249.15 Q1339.66 2260.59 1339.66 2275.35 Q1339.66 2289.53 1334.37 2300.96 Q1332.12 2305.76 1328.96 2309.78 Q1325.81 2313.79 1323.71 2315.56 Q1321.62 2317.32 1321.01 2317.32 Q1320.19 2317.32 1320.19 2316.5 Z" fill="#000000" fill-rule="evenodd" fill-opacity="1" /><path clip-path="url(#clip260)" d="M 0 0 M561.007 3249.46 Q561.007 3235.28 566.295 3223.84 Q568.549 3219.05 571.705 3215.03 Q574.862 3211.01 576.952 3209.25 Q579.042 3207.49 579.616 3207.49 Q580.436 3207.49 580.477 3208.31 Q580.477 3208.72 579.37 3209.74 Q565.844 3223.51 565.885 3249.46 Q565.885 3275.49 579.042 3288.73 Q580.477 3290.16 580.477 3290.61 Q580.477 3291.43 579.616 3291.43 Q579.042 3291.43 577.034 3289.75 Q575.026 3288.07 571.91 3284.22 Q568.795 3280.37 566.541 3275.65 Q561.007 3264.22 561.007 3249.46 Z" fill="#000000" fill-rule="evenodd" fill-opacity="1" /><path clip-path="url(#clip260)" d="M 0 0 M593.234 3222.53 L593.234 3219.91 Q603.318 3219.91 608.523 3214.54 Q609.958 3214.54 610.204 3214.86 Q610.45 3215.19 610.45 3216.71 L610.45 3263.81 Q610.45 3266.31 611.68 3267.09 Q612.909 3267.86 618.279 3267.86 L620.943 3267.86 L620.943 3270.45 Q617.992 3270.2 607.335 3270.2 Q596.677 3270.2 593.767 3270.45 L593.767 3267.86 L596.432 3267.86 Q601.719 3267.86 602.99 3267.13 Q604.26 3266.35 604.26 3263.81 L604.26 3220.32 Q599.875 3222.53 593.234 3222.53 Z" fill="#000000" fill-rule="evenodd" fill-opacity="1" /><path clip-path="url(#clip260)" d="M 0 0 M635.986 3269.09 Q634.797 3267.74 634.797 3265.98 Q634.797 3264.22 635.945 3262.9 Q637.133 3261.55 639.265 3261.55 Q641.765 3261.55 643.2 3263.97 Q644.634 3266.35 644.634 3270.36 Q644.634 3274.71 642.872 3278.73 Q641.109 3282.78 639.388 3284.71 Q637.666 3286.64 636.969 3286.64 Q636.15 3286.64 636.15 3285.74 Q636.15 3285.41 636.723 3284.79 Q642.749 3278.32 642.79 3270.36 Q642.79 3269.09 642.626 3269.09 L642.421 3269.26 Q640.986 3270.45 639.265 3270.45 Q637.174 3270.45 635.986 3269.09 Z" fill="#000000" fill-rule="evenodd" fill-opacity="1" /><path clip-path="url(#clip260)" d="M 0 0 M671.12 3256.59 L671.12 3254.01 L696.902 3214.62 Q697.558 3213.59 698.583 3213.64 Q699.525 3213.64 699.73 3214 Q699.935 3214.37 699.935 3215.81 L699.935 3254.01 L708.338 3254.01 L708.338 3256.59 L699.935 3256.59 L699.935 3263.89 Q699.935 3266.31 700.919 3267.09 Q701.944 3267.86 706.289 3267.86 L708.051 3267.86 L708.051 3270.45 Q704.608 3270.2 696.656 3270.2 Q688.745 3270.2 685.302 3270.45 L685.302 3267.86 L687.065 3267.86 Q691.41 3267.86 692.434 3267.13 Q693.459 3266.35 693.459 3263.89 L693.459 3256.59 L671.12 3256.59 M673.497 3254.01 L693.951 3254.01 L693.951 3222.69 L673.497 3254.01 Z" fill="#000000" fill-rule="evenodd" fill-opacity="1" /><path clip-path="url(#clip260)" d="M 0 0 M712.682 3290.61 Q712.682 3290.2 713.748 3289.18 Q727.275 3275.41 727.275 3249.46 Q727.275 3223.43 714.281 3210.27 Q712.682 3208.76 712.682 3208.31 Q712.682 3207.49 713.502 3207.49 Q714.076 3207.49 716.084 3209.17 Q718.134 3210.85 721.208 3214.7 Q724.323 3218.55 726.619 3223.27 Q732.152 3234.7 732.152 3249.46 Q732.152 3263.64 726.865 3275.08 Q724.61 3279.87 721.454 3283.89 Q718.298 3287.91 716.207 3289.67 Q714.117 3291.43 713.502 3291.43 Q712.682 3291.43 712.682 3290.61 Z" fill="#000000" fill-rule="evenodd" fill-opacity="1" /></svg>
