<?xml version="1.0" encoding="utf-8"?>
<svg xmlns="http://www.w3.org/2000/svg" xmlns:xlink="http://www.w3.org/1999/xlink" width="1000" height="1000" viewBox="0 0 4000 4000">
<defs>
  <clipPath id="clip330">
    <rect x="0" y="0" width="4000" height="4000"/>
  </clipPath>
</defs>
<path clip-path="url(#clip330)" d="
M0 4000 L4000 4000 L4000 0 L0 0  Z
  " fill="#ffffff" fill-rule="evenodd" fill-opacity="1"/>
<defs>
  <clipPath id="clip331">
    <rect x="800" y="400" width="2801" height="2801"/>
  </clipPath>
</defs>
<path clip-path="url(#clip330)" d="
M102.992 3897.01 L3952.76 3897.01 L3952.76 47.2441 L102.992 47.2441  Z
  " fill="#ffffff" fill-rule="evenodd" fill-opacity="1"/>
<defs>
  <clipPath id="clip332">
    <rect x="102" y="47" width="3851" height="3851"/>
  </clipPath>
</defs>
<polyline clip-path="url(#clip332)" style="stroke:#000000; stroke-width:8; stroke-opacity:1; fill:none" points="
  1984.7,597.21 1965.9,631.329 1947.1,665.448 1928.3,699.567 1909.5,733.686 1890.7,767.805 1871.9,801.924 1853.1,836.043 1834.3,870.161 1815.5,904.28 
  1796.7,938.399 1777.9,972.518 1759.1,1006.64 1740.3,1040.76 1721.5,1074.87 1702.7,1108.99 1683.9,1143.11 1665.1,1177.23 1646.3,1211.35 1627.5,1245.47 
  1608.7,1279.59 1589.9,1313.71 1571.1,1347.83 1552.3,1381.94 1533.5,1416.06 1514.7,1450.18 1495.9,1484.3 1477.1,1518.42 1458.3,1552.54 1439.5,1586.66 
  
  "/>
<polyline clip-path="url(#clip332)" style="stroke:#000000; stroke-width:8; stroke-opacity:1; fill:none" points="
  1494.73,1548.59 1439.5,1586.66 1442.18,1519.63 
  "/>
<polyline clip-path="url(#clip332)" style="stroke:#000000; stroke-width:8; stroke-opacity:1; fill:none" points="
  1439.5,1586.66 1458.3,1552.54 
  "/>
<polyline clip-path="url(#clip332)" style="stroke:#000000; stroke-width:8; stroke-opacity:1; fill:none" points="
  1984.7,597.21 1999.86,639.755 2015.02,682.299 2030.18,724.844 2045.34,767.388 2060.5,809.933 2075.67,852.477 2090.83,895.022 2105.99,937.566 2121.15,980.111 
  2136.31,1022.66 2151.47,1065.2 2166.63,1107.74 2181.8,1150.29 2196.96,1192.83 2212.12,1235.38 2227.28,1277.92 2242.44,1320.47 2257.6,1363.01 2272.77,1405.56 
  2287.93,1448.1 2303.09,1490.64 2318.25,1533.19 2333.41,1575.73 2348.57,1618.28 2363.74,1660.82 2378.9,1703.37 2394.06,1745.91 2409.22,1788.46 2424.38,1831 
  
  "/>
<polyline clip-path="url(#clip332)" style="stroke:#000000; stroke-width:8; stroke-opacity:1; fill:none" points="
  2432.5,1764.41 2424.38,1831 2375.98,1784.55 
  "/>
<polyline clip-path="url(#clip332)" style="stroke:#000000; stroke-width:8; stroke-opacity:1; fill:none" points="
  2424.38,1831 2409.22,1788.46 
  "/>
<polyline clip-path="url(#clip332)" style="stroke:#000000; stroke-width:8; stroke-opacity:1; fill:none" points="
  1439.5,1586.66 1454.14,1610.46 1468.78,1634.26 1483.43,1658.05 1498.07,1681.85 1512.71,1705.65 1527.35,1729.45 1541.99,1753.25 1556.63,1777.05 1571.27,1800.84 
  1585.91,1824.64 1600.55,1848.44 1615.19,1872.24 1629.84,1896.04 1644.48,1919.84 1659.12,1943.63 1673.76,1967.43 1688.4,1991.23 1703.04,2015.03 1717.68,2038.83 
  1732.32,2062.63 1746.96,2086.42 1761.6,2110.22 1776.25,2134.02 1790.89,2157.82 1805.53,2181.62 1820.17,2205.42 1834.81,2229.22 1849.45,2253.01 1864.09,2276.81 
  
  "/>
<polyline clip-path="url(#clip332)" style="stroke:#000000; stroke-width:8; stroke-opacity:1; fill:none" points="
  1858.2,2209.99 1864.09,2276.81 1807.1,2241.43 
  "/>
<polyline clip-path="url(#clip332)" style="stroke:#000000; stroke-width:8; stroke-opacity:1; fill:none" points="
  1864.09,2276.81 1849.45,2253.01 
  "/>
<polyline clip-path="url(#clip332)" style="stroke:#000000; stroke-width:8; stroke-opacity:1; fill:none" points="
  1439.5,1586.66 1434.07,1620.64 1428.64,1654.63 1423.21,1688.61 1417.78,1722.59 1412.35,1756.58 1406.92,1790.56 1401.49,1824.55 1396.06,1858.53 1390.63,1892.51 
  1385.2,1926.5 1379.77,1960.48 1374.34,1994.47 1368.9,2028.45 1363.47,2062.43 1358.04,2096.42 1352.61,2130.4 1347.18,2164.39 1341.75,2198.37 1336.32,2232.35 
  1330.89,2266.34 1325.46,2300.32 1320.03,2334.31 1314.6,2368.29 1309.17,2402.27 1303.74,2436.26 1298.31,2470.24 1292.88,2504.23 1287.45,2538.21 1282.02,2572.19 
  
  "/>
<polyline clip-path="url(#clip332)" style="stroke:#000000; stroke-width:8; stroke-opacity:1; fill:none" points="
  1321.11,2517.68 1282.02,2572.19 1261.86,2508.21 
  "/>
<polyline clip-path="url(#clip332)" style="stroke:#000000; stroke-width:8; stroke-opacity:1; fill:none" points="
  1282.02,2572.19 1287.45,2538.21 
  "/>
<polyline clip-path="url(#clip332)" style="stroke:#000000; stroke-width:8; stroke-opacity:1; fill:none" points="
  1864.09,2276.81 1874.49,2301.24 1884.89,2325.67 1895.28,2350.1 1905.68,2374.53 1916.07,2398.96 1926.47,2423.39 1936.87,2447.82 1947.26,2472.25 1957.66,2496.68 
  1968.06,2521.11 1978.45,2545.54 1988.85,2569.96 1999.25,2594.39 2009.64,2618.82 2020.04,2643.25 2030.44,2667.68 2040.83,2692.11 2051.23,2716.54 2061.63,2740.97 
  2072.02,2765.4 2082.42,2789.83 2092.82,2814.26 2103.21,2838.69 2113.61,2863.12 2124.01,2887.55 2134.4,2911.98 2144.8,2936.41 2155.19,2960.84 2165.59,2985.26 
  
  "/>
<polyline clip-path="url(#clip332)" style="stroke:#000000; stroke-width:8; stroke-opacity:1; fill:none" points="
  2169.7,2918.31 2165.59,2985.26 2114.49,2941.8 
  "/>
<polyline clip-path="url(#clip332)" style="stroke:#000000; stroke-width:8; stroke-opacity:1; fill:none" points="
  2165.59,2985.26 2155.19,2960.84 
  "/>
<polyline clip-path="url(#clip332)" style="stroke:#000000; stroke-width:8; stroke-opacity:1; fill:none" points="
  1864.09,2276.81 1855.6,2313.72 1847.12,2350.62 1838.63,2387.53 1830.14,2424.43 1821.65,2461.33 1813.16,2498.24 1804.68,2535.14 1796.19,2572.05 1787.7,2608.95 
  1779.21,2645.86 1770.73,2682.76 1762.24,2719.67 1753.75,2756.57 1745.26,2793.47 1736.77,2830.38 1728.29,2867.28 1719.8,2904.19 1711.31,2941.09 1702.82,2978 
  1694.33,3014.9 1685.85,3051.81 1677.36,3088.71 1668.87,3125.61 1660.38,3162.52 1651.9,3199.42 1643.41,3236.33 1634.92,3273.23 1626.43,3310.14 1617.94,3347.04 
  
  "/>
<polyline clip-path="url(#clip332)" style="stroke:#000000; stroke-width:8; stroke-opacity:1; fill:none" points="
  1660.63,3295.29 1617.94,3347.04 1602.16,3281.84 
  "/>
<polyline clip-path="url(#clip332)" style="stroke:#000000; stroke-width:8; stroke-opacity:1; fill:none" points="
  1617.94,3347.04 1626.43,3310.14 
  "/>
<polyline clip-path="url(#clip332)" style="stroke:#000000; stroke-width:8; stroke-opacity:1; fill:none" points="
  1282.02,2572.19 1312.48,2586.44 1342.95,2600.68 1373.42,2614.93 1403.89,2629.17 1434.36,2643.41 1464.82,2657.66 1495.29,2671.9 1525.76,2686.14 1556.23,2700.39 
  1586.7,2714.63 1617.17,2728.88 1647.63,2743.12 1678.1,2757.36 1708.57,2771.61 1739.04,2785.85 1769.51,2800.1 1799.97,2814.34 1830.44,2828.58 1860.91,2842.83 
  1891.38,2857.07 1921.85,2871.31 1952.31,2885.56 1982.78,2899.8 2013.25,2914.05 2043.72,2928.29 2074.19,2942.53 2104.66,2956.78 2135.12,2971.02 2165.59,2985.26 
  
  "/>
<polyline clip-path="url(#clip332)" style="stroke:#000000; stroke-width:8; stroke-opacity:1; fill:none" points="
  2123.94,2932.68 2165.59,2985.26 2098.53,2987.03 
  "/>
<polyline clip-path="url(#clip332)" style="stroke:#000000; stroke-width:8; stroke-opacity:1; fill:none" points="
  2165.59,2985.26 2135.12,2971.02 
  "/>
<polyline clip-path="url(#clip332)" style="stroke:#000000; stroke-width:8; stroke-opacity:1; fill:none" points="
  1282.02,2572.19 1260.32,2591.7 1238.63,2611.2 1216.94,2630.71 1195.25,2650.22 1173.56,2669.72 1151.87,2689.23 1130.17,2708.73 1108.48,2728.24 1086.79,2747.74 
  1065.1,2767.25 1043.41,2786.75 1021.72,2806.26 1000.02,2825.76 978.333,2845.27 956.641,2864.77 934.95,2884.28 913.258,2903.78 891.567,2923.29 869.875,2942.79 
  848.183,2962.3 826.492,2981.8 804.8,3001.31 783.108,3020.81 761.417,3040.32 739.725,3059.83 718.033,3079.33 696.342,3098.84 674.65,3118.34 652.958,3137.85 
  
  "/>
<polyline clip-path="url(#clip332)" style="stroke:#000000; stroke-width:8; stroke-opacity:1; fill:none" points="
  717.633,3120.04 652.958,3137.85 677.515,3075.42 
  "/>
<polyline clip-path="url(#clip332)" style="stroke:#000000; stroke-width:8; stroke-opacity:1; fill:none" points="
  652.958,3137.85 674.65,3118.34 
  "/>
<polyline clip-path="url(#clip332)" style="stroke:#000000; stroke-width:8; stroke-opacity:1; fill:none" points="
  2424.38,1831 2405.06,1846.37 2385.74,1861.75 2366.42,1877.12 2347.1,1892.49 2327.78,1907.86 2308.46,1923.24 2289.14,1938.61 2269.82,1953.98 2250.5,1969.36 
  2231.18,1984.73 2211.86,2000.1 2192.54,2015.47 2173.22,2030.85 2153.9,2046.22 2134.58,2061.59 2115.26,2076.97 2095.94,2092.34 2076.62,2107.71 2057.3,2123.08 
  2037.98,2138.46 2018.65,2153.83 1999.33,2169.2 1980.01,2184.58 1960.69,2199.95 1941.37,2215.32 1922.05,2230.69 1902.73,2246.07 1883.41,2261.44 1864.09,2276.81 
  
  "/>
<polyline clip-path="url(#clip332)" style="stroke:#000000; stroke-width:8; stroke-opacity:1; fill:none" points="
  1929.72,2262.93 1864.09,2276.81 1892.36,2215.98 
  "/>
<polyline clip-path="url(#clip332)" style="stroke:#000000; stroke-width:8; stroke-opacity:1; fill:none" points="
  1864.09,2276.81 1883.41,2261.44 
  "/>
<polyline clip-path="url(#clip332)" style="stroke:#000000; stroke-width:8; stroke-opacity:1; fill:none" points="
  2424.38,1831 2440.3,1848.34 2456.21,1865.67 2472.12,1883.01 2488.03,1900.34 2503.95,1917.68 2519.86,1935.02 2535.77,1952.35 2551.69,1969.69 2567.6,1987.02 
  2583.51,2004.36 2599.43,2021.7 2615.34,2039.03 2631.25,2056.37 2647.17,2073.7 2663.08,2091.04 2678.99,2108.38 2694.91,2125.71 2710.82,2143.05 2726.73,2160.38 
  2742.65,2177.72 2758.56,2195.06 2774.47,2212.39 2790.39,2229.73 2806.3,2247.06 2822.21,2264.4 2838.13,2281.74 2854.04,2299.07 2869.95,2316.41 2885.87,2333.74 
  
  "/>
<polyline clip-path="url(#clip332)" style="stroke:#000000; stroke-width:8; stroke-opacity:1; fill:none" points="
  2867.39,2269.26 2885.87,2333.74 2823.19,2309.83 
  "/>
<polyline clip-path="url(#clip332)" style="stroke:#000000; stroke-width:8; stroke-opacity:1; fill:none" points="
  2885.87,2333.74 2869.95,2316.41 
  "/>
<polyline clip-path="url(#clip332)" style="stroke:#000000; stroke-width:8; stroke-opacity:1; fill:none" points="
  2885.87,2333.74 2861.03,2356.21 2836.19,2378.68 2811.35,2401.14 2786.52,2423.61 2761.68,2446.08 2736.84,2468.54 2712.01,2491.01 2687.17,2513.47 2662.33,2535.94 
  2637.5,2558.41 2612.66,2580.87 2587.82,2603.34 2562.98,2625.81 2538.15,2648.27 2513.31,2670.74 2488.47,2693.2 2463.64,2715.67 2438.8,2738.14 2413.96,2760.6 
  2389.12,2783.07 2364.29,2805.53 2339.45,2828 2314.61,2850.47 2289.78,2872.93 2264.94,2895.4 2240.1,2917.87 2215.27,2940.33 2190.43,2962.8 2165.59,2985.26 
  
  "/>
<polyline clip-path="url(#clip332)" style="stroke:#000000; stroke-width:8; stroke-opacity:1; fill:none" points="
  2230.21,2967.26 2165.59,2985.26 2189.96,2922.77 
  "/>
<polyline clip-path="url(#clip332)" style="stroke:#000000; stroke-width:8; stroke-opacity:1; fill:none" points="
  2165.59,2985.26 2190.43,2962.8 
  "/>
<polyline clip-path="url(#clip332)" style="stroke:#000000; stroke-width:8; stroke-opacity:1; fill:none" points="
  2885.87,2333.74 2903.69,2359.9 2921.52,2386.07 2939.34,2412.23 2957.17,2438.39 2974.99,2464.55 2992.82,2490.71 3010.64,2516.87 3028.47,2543.03 3046.29,2569.19 
  3064.12,2595.35 3081.94,2621.51 3099.77,2647.67 3117.59,2673.83 3135.42,2699.99 3153.24,2726.15 3171.07,2752.31 3188.89,2778.48 3206.72,2804.64 3224.54,2830.8 
  3242.37,2856.96 3260.19,2883.12 3278.01,2909.28 3295.84,2935.44 3313.66,2961.6 3331.49,2987.76 3349.31,3013.92 3367.14,3040.08 3384.96,3066.24 3402.79,3092.4 
  
  "/>
<polyline clip-path="url(#clip332)" style="stroke:#000000; stroke-width:8; stroke-opacity:1; fill:none" points="
  3393.8,3025.93 3402.79,3092.4 3344.21,3059.71 
  "/>
<polyline clip-path="url(#clip332)" style="stroke:#000000; stroke-width:8; stroke-opacity:1; fill:none" points="
  3402.79,3092.4 3384.96,3066.24 
  "/>
<path clip-path="url(#clip332)" d="
M2277.29 597.21 L2276.37 573.964 L2273.6 550.864 L2269 528.057 L2262.61 505.687 L2254.46 483.896 L2244.6 462.822 L2233.11 442.597 L2220.04 423.349 L2205.48 405.201 
  L2189.53 388.267 L2172.28 372.654 L2153.84 358.46 L2134.34 345.776 L2113.89 334.682 L2092.62 325.247 L2070.68 317.532 L2048.18 311.585 L2025.29 307.444 L2002.14 305.135 
  L1978.88 304.672 L1955.65 306.059 L1932.61 309.287 L1909.9 314.335 L1887.67 321.171 L1866.04 329.753 L1845.17 340.026 L1825.17 351.924 L1806.19 365.374 L1788.34 380.289 
  L1771.72 396.575 L1756.45 414.131 L1742.63 432.843 L1730.34 452.595 L1719.65 473.261 L1710.64 494.711 L1703.36 516.809 L1697.86 539.415 L1694.18 562.386 L1692.33 585.578 
  L1692.33 608.843 L1694.18 632.035 L1697.86 655.006 L1703.36 677.612 L1710.64 699.71 L1719.65 721.16 L1730.34 741.826 L1742.63 761.578 L1756.45 780.29 L1771.72 797.845 
  L1788.34 814.132 L1806.19 829.047 L1825.17 842.496 L1845.17 854.395 L1866.04 864.668 L1887.67 873.249 L1909.9 880.086 L1932.61 885.134 L1955.65 888.362 L1978.88 889.749 
  L2002.14 889.286 L2025.29 886.977 L2048.18 882.836 L2070.68 876.889 L2092.62 869.174 L2113.89 859.739 L2134.34 848.645 L2153.84 835.96 L2172.28 821.767 L2189.53 806.154 
  L2205.48 789.219 L2220.04 771.071 L2233.11 751.824 L2244.6 731.599 L2254.46 710.524 L2262.61 688.733 L2269 666.364 L2273.6 643.557 L2276.37 620.457 L2277.29 597.21 
  L2277.29 597.21  Z
  " fill="#e78300" fill-rule="evenodd" fill-opacity="1"/>
<polyline clip-path="url(#clip332)" style="stroke:#000000; stroke-width:4; stroke-opacity:1; fill:none" points="
  2277.29,597.21 2276.37,573.964 2273.6,550.864 2269,528.057 2262.61,505.687 2254.46,483.896 2244.6,462.822 2233.11,442.597 2220.04,423.349 2205.48,405.201 
  2189.53,388.267 2172.28,372.654 2153.84,358.46 2134.34,345.776 2113.89,334.682 2092.62,325.247 2070.68,317.532 2048.18,311.585 2025.29,307.444 2002.14,305.135 
  1978.88,304.672 1955.65,306.059 1932.61,309.287 1909.9,314.335 1887.67,321.171 1866.04,329.753 1845.17,340.026 1825.17,351.924 1806.19,365.374 1788.34,380.289 
  1771.72,396.575 1756.45,414.131 1742.63,432.843 1730.34,452.595 1719.65,473.261 1710.64,494.711 1703.36,516.809 1697.86,539.415 1694.18,562.386 1692.33,585.578 
  1692.33,608.843 1694.18,632.035 1697.86,655.006 1703.36,677.612 1710.64,699.71 1719.65,721.16 1730.34,741.826 1742.63,761.578 1756.45,780.29 1771.72,797.845 
  1788.34,814.132 1806.19,829.047 1825.17,842.496 1845.17,854.395 1866.04,864.668 1887.67,873.249 1909.9,880.086 1932.61,885.134 1955.65,888.362 1978.88,889.749 
  2002.14,889.286 2025.29,886.977 2048.18,882.836 2070.68,876.889 2092.62,869.174 2113.89,859.739 2134.34,848.645 2153.84,835.96 2172.28,821.767 2189.53,806.154 
  2205.48,789.219 2220.04,771.071 2233.11,751.824 2244.6,731.599 2254.46,710.524 2262.61,688.733 2269,666.364 2273.6,643.557 2276.37,620.457 2277.29,597.21 
  
  "/>
<path clip-path="url(#clip332)" d="
M1683.33 1586.66 L1682.56 1567.29 L1680.25 1548.04 L1676.42 1529.03 L1671.1 1510.39 L1664.3 1492.23 L1656.09 1474.67 L1646.51 1457.81 L1635.62 1441.77 L1623.49 1426.65 
  L1610.19 1412.54 L1595.82 1399.53 L1580.46 1387.7 L1564.21 1377.13 L1547.16 1367.88 L1529.44 1360.02 L1511.15 1353.59 L1492.41 1348.64 L1473.33 1345.19 L1454.04 1343.26 
  L1434.65 1342.88 L1415.3 1344.03 L1396.1 1346.72 L1377.17 1350.93 L1358.64 1356.63 L1340.62 1363.78 L1323.23 1372.34 L1306.57 1382.25 L1290.75 1393.46 L1275.87 1405.89 
  L1262.02 1419.46 L1249.3 1434.09 L1237.78 1449.69 L1227.54 1466.15 L1218.63 1483.37 L1211.12 1501.24 L1205.06 1519.66 L1200.48 1538.5 L1197.4 1557.64 L1195.86 1576.96 
  L1195.86 1596.35 L1197.4 1615.68 L1200.48 1634.82 L1205.06 1653.66 L1211.12 1672.07 L1218.63 1689.95 L1227.54 1707.17 L1237.78 1723.63 L1249.3 1739.22 L1262.02 1753.85 
  L1275.87 1767.43 L1290.75 1779.86 L1306.57 1791.06 L1323.23 1800.98 L1340.62 1809.54 L1358.64 1816.69 L1377.17 1822.39 L1396.1 1826.59 L1415.3 1829.28 L1434.65 1830.44 
  L1454.04 1830.05 L1473.33 1828.13 L1492.41 1824.68 L1511.15 1819.72 L1529.44 1813.29 L1547.16 1805.43 L1564.21 1796.19 L1580.46 1785.62 L1595.82 1773.79 L1610.19 1760.78 
  L1623.49 1746.67 L1635.62 1731.54 L1646.51 1715.5 L1656.09 1698.65 L1664.3 1681.09 L1671.1 1662.93 L1676.42 1644.29 L1680.25 1625.28 L1682.56 1606.03 L1683.33 1586.66 
  L1683.33 1586.66  Z
  " fill="#ffb72c" fill-rule="evenodd" fill-opacity="1"/>
<polyline clip-path="url(#clip332)" style="stroke:#000000; stroke-width:4; stroke-opacity:1; fill:none" points="
  1683.33,1586.66 1682.56,1567.29 1680.25,1548.04 1676.42,1529.03 1671.1,1510.39 1664.3,1492.23 1656.09,1474.67 1646.51,1457.81 1635.62,1441.77 1623.49,1426.65 
  1610.19,1412.54 1595.82,1399.53 1580.46,1387.7 1564.21,1377.13 1547.16,1367.88 1529.44,1360.02 1511.15,1353.59 1492.41,1348.64 1473.33,1345.19 1454.04,1343.26 
  1434.65,1342.88 1415.3,1344.03 1396.1,1346.72 1377.17,1350.93 1358.64,1356.63 1340.62,1363.78 1323.23,1372.34 1306.57,1382.25 1290.75,1393.46 1275.87,1405.89 
  1262.02,1419.46 1249.3,1434.09 1237.78,1449.69 1227.54,1466.15 1218.63,1483.37 1211.12,1501.24 1205.06,1519.66 1200.48,1538.5 1197.4,1557.64 1195.86,1576.96 
  1195.86,1596.35 1197.4,1615.68 1200.48,1634.82 1205.06,1653.66 1211.12,1672.07 1218.63,1689.95 1227.54,1707.17 1237.78,1723.63 1249.3,1739.22 1262.02,1753.85 
  1275.87,1767.43 1290.75,1779.86 1306.57,1791.06 1323.23,1800.98 1340.62,1809.54 1358.64,1816.69 1377.17,1822.39 1396.1,1826.59 1415.3,1829.28 1434.65,1830.44 
  1454.04,1830.05 1473.33,1828.13 1492.41,1824.68 1511.15,1819.72 1529.44,1813.29 1547.16,1805.43 1564.21,1796.19 1580.46,1785.62 1595.82,1773.79 1610.19,1760.78 
  1623.49,1746.67 1635.62,1731.54 1646.51,1715.5 1656.09,1698.65 1664.3,1681.09 1671.1,1662.93 1676.42,1644.29 1680.25,1625.28 1682.56,1606.03 1683.33,1586.66 
  
  "/>
<path clip-path="url(#clip332)" d="
M2059.16 2276.81 L2058.54 2261.31 L2056.69 2245.91 L2053.63 2230.71 L2049.37 2215.8 L2043.93 2201.27 L2037.36 2187.22 L2029.7 2173.74 L2020.99 2160.9 L2011.28 2148.81 
  L2000.65 2137.52 L1989.15 2127.11 L1976.86 2117.65 L1963.85 2109.19 L1950.22 2101.79 L1936.04 2095.5 L1921.41 2090.36 L1906.42 2086.4 L1891.15 2083.63 L1875.72 2082.09 
  L1860.21 2081.79 L1844.73 2082.71 L1829.37 2084.86 L1814.23 2088.23 L1799.41 2092.79 L1784.99 2098.51 L1771.07 2105.36 L1757.74 2113.29 L1745.09 2122.25 L1733.18 2132.2 
  L1722.11 2143.06 L1711.93 2154.76 L1702.71 2167.23 L1694.52 2180.4 L1687.4 2194.18 L1681.39 2208.48 L1676.54 2223.21 L1672.87 2238.28 L1670.41 2253.6 L1669.18 2269.06 
  L1669.18 2284.57 L1670.41 2300.03 L1672.87 2315.34 L1676.54 2330.41 L1681.39 2345.15 L1687.4 2359.44 L1694.52 2373.22 L1702.71 2386.39 L1711.93 2398.87 L1722.11 2410.57 
  L1733.18 2421.43 L1745.09 2431.37 L1757.74 2440.34 L1771.07 2448.27 L1784.99 2455.12 L1799.41 2460.84 L1814.23 2465.4 L1829.37 2468.76 L1844.73 2470.91 L1860.21 2471.84 
  L1875.72 2471.53 L1891.15 2469.99 L1906.42 2467.23 L1921.41 2463.26 L1936.04 2458.12 L1950.22 2451.83 L1963.85 2444.43 L1976.86 2435.98 L1989.15 2426.52 L2000.65 2416.11 
  L2011.28 2404.82 L2020.99 2392.72 L2029.7 2379.89 L2037.36 2366.4 L2043.93 2352.35 L2049.37 2337.83 L2053.63 2322.91 L2056.69 2307.71 L2058.54 2292.31 L2059.16 2276.81 
  L2059.16 2276.81  Z
  " fill="#ffdb86" fill-rule="evenodd" fill-opacity="1"/>
<polyline clip-path="url(#clip332)" style="stroke:#000000; stroke-width:4; stroke-opacity:1; fill:none" points="
  2059.16,2276.81 2058.54,2261.31 2056.69,2245.91 2053.63,2230.71 2049.37,2215.8 2043.93,2201.27 2037.36,2187.22 2029.7,2173.74 2020.99,2160.9 2011.28,2148.81 
  2000.65,2137.52 1989.15,2127.11 1976.86,2117.65 1963.85,2109.19 1950.22,2101.79 1936.04,2095.5 1921.41,2090.36 1906.42,2086.4 1891.15,2083.63 1875.72,2082.09 
  1860.21,2081.79 1844.73,2082.71 1829.37,2084.86 1814.23,2088.23 1799.41,2092.79 1784.99,2098.51 1771.07,2105.36 1757.74,2113.29 1745.09,2122.25 1733.18,2132.2 
  1722.11,2143.06 1711.93,2154.76 1702.71,2167.23 1694.52,2180.4 1687.4,2194.18 1681.39,2208.48 1676.54,2223.21 1672.87,2238.28 1670.41,2253.6 1669.18,2269.06 
  1669.18,2284.57 1670.41,2300.03 1672.87,2315.34 1676.54,2330.41 1681.39,2345.15 1687.4,2359.44 1694.52,2373.22 1702.71,2386.39 1711.93,2398.87 1722.11,2410.57 
  1733.18,2421.43 1745.09,2431.37 1757.74,2440.34 1771.07,2448.27 1784.99,2455.12 1799.41,2460.84 1814.23,2465.4 1829.37,2468.76 1844.73,2470.91 1860.21,2471.84 
  1875.72,2471.53 1891.15,2469.99 1906.42,2467.23 1921.41,2463.26 1936.04,2458.12 1950.22,2451.83 1963.85,2444.43 1976.86,2435.98 1989.15,2426.52 2000.65,2416.11 
  2011.28,2404.82 2020.99,2392.72 2029.7,2379.89 2037.36,2366.4 2043.93,2352.35 2049.37,2337.83 2053.63,2322.91 2056.69,2307.71 2058.54,2292.31 2059.16,2276.81 
  
  "/>
<path clip-path="url(#clip332)" d="
M2311.89 2985.26 L2311.43 2973.64 L2310.04 2962.09 L2307.74 2950.69 L2304.55 2939.5 L2300.47 2928.61 L2295.55 2918.07 L2289.8 2907.96 L2283.26 2898.33 L2275.98 2889.26 
  L2268.01 2880.79 L2259.38 2872.99 L2250.16 2865.89 L2240.41 2859.55 L2230.19 2854 L2219.56 2849.28 L2208.58 2845.43 L2197.33 2842.45 L2185.89 2840.38 L2174.31 2839.23 
  L2162.68 2839 L2151.07 2839.69 L2139.55 2841.3 L2128.19 2843.83 L2117.08 2847.25 L2106.26 2851.54 L2095.83 2856.67 L2085.83 2862.62 L2076.34 2869.35 L2067.41 2876.8 
  L2059.1 2884.95 L2051.47 2893.72 L2044.56 2903.08 L2038.41 2912.96 L2033.07 2923.29 L2028.56 2934.01 L2024.92 2945.06 L2022.18 2956.37 L2020.33 2967.85 L2019.41 2979.45 
  L2019.41 2991.08 L2020.33 3002.68 L2022.18 3014.16 L2024.92 3025.47 L2028.56 3036.51 L2033.07 3047.24 L2038.41 3057.57 L2044.56 3067.45 L2051.47 3076.8 L2059.1 3085.58 
  L2067.41 3093.73 L2076.34 3101.18 L2085.83 3107.91 L2095.83 3113.86 L2106.26 3118.99 L2117.08 3123.28 L2128.19 3126.7 L2139.55 3129.23 L2151.07 3130.84 L2162.68 3131.53 
  L2174.31 3131.3 L2185.89 3130.15 L2197.33 3128.08 L2208.58 3125.1 L2219.56 3121.25 L2230.19 3116.53 L2240.41 3110.98 L2250.16 3104.64 L2259.38 3097.54 L2268.01 3089.74 
  L2275.98 3081.27 L2283.26 3072.2 L2289.8 3062.57 L2295.55 3052.46 L2300.47 3041.92 L2304.55 3031.03 L2307.74 3019.84 L2310.04 3008.44 L2311.43 2996.89 L2311.89 2985.26 
  L2311.89 2985.26  Z
  " fill="#ffffe0" fill-rule="evenodd" fill-opacity="1"/>
<polyline clip-path="url(#clip332)" style="stroke:#000000; stroke-width:4; stroke-opacity:1; fill:none" points="
  2311.89,2985.26 2311.43,2973.64 2310.04,2962.09 2307.74,2950.69 2304.55,2939.5 2300.47,2928.61 2295.55,2918.07 2289.8,2907.96 2283.26,2898.33 2275.98,2889.26 
  2268.01,2880.79 2259.38,2872.99 2250.16,2865.89 2240.41,2859.55 2230.19,2854 2219.56,2849.28 2208.58,2845.43 2197.33,2842.45 2185.89,2840.38 2174.31,2839.23 
  2162.68,2839 2151.07,2839.69 2139.55,2841.3 2128.19,2843.83 2117.08,2847.25 2106.26,2851.54 2095.83,2856.67 2085.83,2862.62 2076.34,2869.35 2067.41,2876.8 
  2059.1,2884.95 2051.47,2893.72 2044.56,2903.08 2038.41,2912.96 2033.07,2923.29 2028.56,2934.01 2024.92,2945.06 2022.18,2956.37 2020.33,2967.85 2019.41,2979.45 
  2019.41,2991.08 2020.33,3002.68 2022.18,3014.16 2024.92,3025.47 2028.56,3036.51 2033.07,3047.24 2038.41,3057.57 2044.56,3067.45 2051.47,3076.8 2059.1,3085.58 
  2067.41,3093.73 2076.34,3101.18 2085.83,3107.91 2095.83,3113.86 2106.26,3118.99 2117.08,3123.28 2128.19,3126.7 2139.55,3129.23 2151.07,3130.84 2162.68,3131.53 
  2174.31,3131.3 2185.89,3130.15 2197.33,3128.08 2208.58,3125.1 2219.56,3121.25 2230.19,3116.53 2240.41,3110.98 2250.16,3104.64 2259.38,3097.54 2268.01,3089.74 
  2275.98,3081.27 2283.26,3072.2 2289.8,3062.57 2295.55,3052.46 2300.47,3041.92 2304.55,3031.03 2307.74,3019.84 2310.04,3008.44 2311.43,2996.89 2311.89,2985.26 
  
  "/>
<path clip-path="url(#clip332)" d="
M1764.24 3347.04 L1763.78 3335.42 L1762.39 3323.87 L1760.1 3312.46 L1756.9 3301.28 L1752.83 3290.38 L1747.9 3279.85 L1742.15 3269.73 L1735.61 3260.11 L1728.34 3251.04 
  L1720.36 3242.57 L1711.73 3234.76 L1702.52 3227.67 L1692.77 3221.32 L1682.54 3215.78 L1671.91 3211.06 L1660.93 3207.2 L1649.69 3204.23 L1638.24 3202.16 L1626.67 3201 
  L1615.04 3200.77 L1603.42 3201.47 L1591.9 3203.08 L1580.55 3205.6 L1569.43 3209.02 L1558.62 3213.31 L1548.18 3218.45 L1538.18 3224.4 L1528.69 3231.12 L1519.76 3238.58 
  L1511.46 3246.72 L1503.82 3255.5 L1496.91 3264.86 L1490.76 3274.73 L1485.42 3285.07 L1480.92 3295.79 L1477.28 3306.84 L1474.53 3318.14 L1472.69 3329.63 L1471.76 3341.23 
  L1471.76 3352.86 L1472.69 3364.45 L1474.53 3375.94 L1477.28 3387.24 L1480.92 3398.29 L1485.42 3409.02 L1490.76 3419.35 L1496.91 3429.23 L1503.82 3438.58 L1511.46 3447.36 
  L1519.76 3455.5 L1528.69 3462.96 L1538.18 3469.68 L1548.18 3475.63 L1558.62 3480.77 L1569.43 3485.06 L1580.55 3488.48 L1591.9 3491 L1603.42 3492.62 L1615.04 3493.31 
  L1626.67 3493.08 L1638.24 3491.92 L1649.69 3489.85 L1660.93 3486.88 L1671.91 3483.02 L1682.54 3478.31 L1692.77 3472.76 L1702.52 3466.42 L1711.73 3459.32 L1720.36 3451.51 
  L1728.34 3443.05 L1735.61 3433.97 L1742.15 3424.35 L1747.9 3414.24 L1752.83 3403.7 L1756.9 3392.8 L1760.1 3381.62 L1762.39 3370.21 L1763.78 3358.67 L1764.24 3347.04 
  L1764.24 3347.04  Z
  " fill="#ffffe0" fill-rule="evenodd" fill-opacity="1"/>
<polyline clip-path="url(#clip332)" style="stroke:#000000; stroke-width:4; stroke-opacity:1; fill:none" points="
  1764.24,3347.04 1763.78,3335.42 1762.39,3323.87 1760.1,3312.46 1756.9,3301.28 1752.83,3290.38 1747.9,3279.85 1742.15,3269.73 1735.61,3260.11 1728.34,3251.04 
  1720.36,3242.57 1711.73,3234.76 1702.52,3227.67 1692.77,3221.32 1682.54,3215.78 1671.91,3211.06 1660.93,3207.2 1649.69,3204.23 1638.24,3202.16 1626.67,3201 
  1615.04,3200.77 1603.42,3201.47 1591.9,3203.08 1580.55,3205.6 1569.43,3209.02 1558.62,3213.31 1548.18,3218.45 1538.18,3224.4 1528.69,3231.12 1519.76,3238.58 
  1511.46,3246.72 1503.82,3255.5 1496.91,3264.86 1490.76,3274.73 1485.42,3285.07 1480.92,3295.79 1477.28,3306.84 1474.53,3318.14 1472.69,3329.63 1471.76,3341.23 
  1471.76,3352.86 1472.69,3364.45 1474.53,3375.94 1477.28,3387.24 1480.92,3398.29 1485.42,3409.02 1490.76,3419.35 1496.91,3429.23 1503.82,3438.58 1511.46,3447.36 
  1519.76,3455.5 1528.69,3462.96 1538.18,3469.68 1548.18,3475.63 1558.62,3480.77 1569.43,3485.06 1580.55,3488.48 1591.9,3491 1603.42,3492.62 1615.04,3493.31 
  1626.67,3493.08 1638.24,3491.92 1649.69,3489.85 1660.93,3486.88 1671.91,3483.02 1682.54,3478.31 1692.77,3472.76 1702.52,3466.42 1711.73,3459.32 1720.36,3451.51 
  1728.34,3443.05 1735.61,3433.97 1742.15,3424.35 1747.9,3414.24 1752.83,3403.7 1756.9,3392.8 1760.1,3381.62 1762.39,3370.21 1763.78,3358.67 1764.24,3347.04 
  
  "/>
<path clip-path="url(#clip332)" d="
M1477.08 2572.19 L1476.46 2556.7 L1474.62 2541.3 L1471.55 2526.09 L1467.29 2511.18 L1461.86 2496.65 L1455.29 2482.6 L1447.62 2469.12 L1438.91 2456.29 L1429.2 2444.19 
  L1418.57 2432.9 L1407.07 2422.49 L1394.78 2413.03 L1381.78 2404.57 L1368.15 2397.18 L1353.97 2390.89 L1339.34 2385.74 L1324.34 2381.78 L1309.08 2379.02 L1293.64 2377.48 
  L1278.14 2377.17 L1262.66 2378.09 L1247.3 2380.25 L1232.15 2383.61 L1217.33 2388.17 L1202.91 2393.89 L1189 2400.74 L1175.67 2408.67 L1163.01 2417.64 L1151.11 2427.58 
  L1140.03 2438.44 L1129.86 2450.14 L1120.64 2462.62 L1112.44 2475.78 L1105.32 2489.56 L1099.31 2503.86 L1094.46 2518.59 L1090.8 2533.66 L1088.34 2548.98 L1087.11 2564.44 
  L1087.11 2579.95 L1088.34 2595.41 L1090.8 2610.72 L1094.46 2625.8 L1099.31 2640.53 L1105.32 2654.83 L1112.44 2668.6 L1120.64 2681.77 L1129.86 2694.25 L1140.03 2705.95 
  L1151.11 2716.81 L1163.01 2726.75 L1175.67 2735.72 L1189 2743.65 L1202.91 2750.5 L1217.33 2756.22 L1232.15 2760.78 L1247.3 2764.14 L1262.66 2766.3 L1278.14 2767.22 
  L1293.64 2766.91 L1309.08 2765.37 L1324.34 2762.61 L1339.34 2758.65 L1353.97 2753.5 L1368.15 2747.21 L1381.78 2739.82 L1394.78 2731.36 L1407.07 2721.9 L1418.57 2711.49 
  L1429.2 2700.2 L1438.91 2688.1 L1447.62 2675.27 L1455.29 2661.79 L1461.86 2647.74 L1467.29 2633.21 L1471.55 2618.3 L1474.62 2603.09 L1476.46 2587.69 L1477.08 2572.19 
  L1477.08 2572.19  Z
  " fill="#ffdb86" fill-rule="evenodd" fill-opacity="1"/>
<polyline clip-path="url(#clip332)" style="stroke:#000000; stroke-width:4; stroke-opacity:1; fill:none" points="
  1477.08,2572.19 1476.46,2556.7 1474.62,2541.3 1471.55,2526.09 1467.29,2511.18 1461.86,2496.65 1455.29,2482.6 1447.62,2469.12 1438.91,2456.29 1429.2,2444.19 
  1418.57,2432.9 1407.07,2422.49 1394.78,2413.03 1381.78,2404.57 1368.15,2397.18 1353.97,2390.89 1339.34,2385.74 1324.34,2381.78 1309.08,2379.02 1293.64,2377.48 
  1278.14,2377.17 1262.66,2378.09 1247.3,2380.25 1232.15,2383.61 1217.33,2388.17 1202.91,2393.89 1189,2400.74 1175.67,2408.67 1163.01,2417.64 1151.11,2427.58 
  1140.03,2438.44 1129.86,2450.14 1120.64,2462.62 1112.44,2475.78 1105.32,2489.56 1099.31,2503.86 1094.46,2518.59 1090.8,2533.66 1088.34,2548.98 1087.11,2564.44 
  1087.11,2579.95 1088.34,2595.41 1090.8,2610.72 1094.46,2625.8 1099.31,2640.53 1105.32,2654.83 1112.44,2668.6 1120.64,2681.77 1129.86,2694.25 1140.03,2705.95 
  1151.11,2716.81 1163.01,2726.75 1175.67,2735.72 1189,2743.65 1202.91,2750.5 1217.33,2756.22 1232.15,2760.78 1247.3,2764.14 1262.66,2766.3 1278.14,2767.22 
  1293.64,2766.91 1309.08,2765.37 1324.34,2762.61 1339.34,2758.65 1353.97,2753.5 1368.15,2747.21 1381.78,2739.82 1394.78,2731.36 1407.07,2721.9 1418.57,2711.49 
  1429.2,2700.2 1438.91,2688.1 1447.62,2675.27 1455.29,2661.79 1461.86,2647.74 1467.29,2633.21 1471.55,2618.3 1474.62,2603.09 1476.46,2587.69 1477.08,2572.19 
  
  "/>
<path clip-path="url(#clip332)" d="
M799.256 3137.85 L798.794 3126.22 L797.409 3114.67 L795.112 3103.27 L791.915 3092.08 L787.84 3081.19 L782.912 3070.65 L777.163 3060.54 L770.628 3050.92 L763.35 3041.84 
  L755.373 3033.37 L746.749 3025.57 L737.532 3018.47 L727.78 3012.13 L717.556 3006.58 L706.922 3001.86 L695.948 2998.01 L684.702 2995.03 L673.255 2992.96 L661.68 2991.81 
  L650.05 2991.58 L638.438 2992.27 L626.918 2993.88 L615.562 2996.41 L604.443 2999.83 L593.631 3004.12 L583.194 3009.25 L573.197 3015.2 L563.706 3021.93 L554.778 3029.39 
  L546.471 3037.53 L538.838 3046.31 L531.925 3055.66 L525.779 3065.54 L520.436 3075.87 L515.931 3086.6 L512.292 3097.65 L509.543 3108.95 L507.7 3120.43 L506.776 3132.03 
  L506.776 3143.66 L507.7 3155.26 L509.543 3166.74 L512.292 3178.05 L515.931 3189.1 L520.436 3199.82 L525.779 3210.15 L531.925 3220.03 L538.838 3229.39 L546.471 3238.16 
  L554.778 3246.31 L563.706 3253.76 L573.197 3260.49 L583.194 3266.44 L593.631 3271.57 L604.443 3275.87 L615.562 3279.28 L626.918 3281.81 L638.438 3283.42 L650.05 3284.12 
  L661.68 3283.88 L673.255 3282.73 L684.702 3280.66 L695.948 3277.69 L706.922 3273.83 L717.556 3269.11 L727.78 3263.56 L737.532 3257.22 L746.749 3250.12 L755.373 3242.32 
  L763.35 3233.85 L770.628 3224.78 L777.163 3215.15 L782.912 3205.04 L787.84 3194.5 L791.915 3183.61 L795.112 3172.42 L797.409 3161.02 L798.794 3149.47 L799.256 3137.85 
  L799.256 3137.85  Z
  " fill="#ffffe0" fill-rule="evenodd" fill-opacity="1"/>
<polyline clip-path="url(#clip332)" style="stroke:#000000; stroke-width:4; stroke-opacity:1; fill:none" points="
  799.256,3137.85 798.794,3126.22 797.409,3114.67 795.112,3103.27 791.915,3092.08 787.84,3081.19 782.912,3070.65 777.163,3060.54 770.628,3050.92 763.35,3041.84 
  755.373,3033.37 746.749,3025.57 737.532,3018.47 727.78,3012.13 717.556,3006.58 706.922,3001.86 695.948,2998.01 684.702,2995.03 673.255,2992.96 661.68,2991.81 
  650.05,2991.58 638.438,2992.27 626.918,2993.88 615.562,2996.41 604.443,2999.83 593.631,3004.12 583.194,3009.25 573.197,3015.2 563.706,3021.93 554.778,3029.39 
  546.471,3037.53 538.838,3046.31 531.925,3055.66 525.779,3065.54 520.436,3075.87 515.931,3086.6 512.292,3097.65 509.543,3108.95 507.7,3120.43 506.776,3132.03 
  506.776,3143.66 507.7,3155.26 509.543,3166.74 512.292,3178.05 515.931,3189.1 520.436,3199.82 525.779,3210.15 531.925,3220.03 538.838,3229.39 546.471,3238.16 
  554.778,3246.31 563.706,3253.76 573.197,3260.49 583.194,3266.44 593.631,3271.57 604.443,3275.87 615.562,3279.28 626.918,3281.81 638.438,3283.42 650.05,3284.12 
  661.68,3283.88 673.255,3282.73 684.702,3280.66 695.948,3277.69 706.922,3273.83 717.556,3269.11 727.78,3263.56 737.532,3257.22 746.749,3250.12 755.373,3242.32 
  763.35,3233.85 770.628,3224.78 777.163,3215.15 782.912,3205.04 787.84,3194.5 791.915,3183.61 795.112,3172.42 797.409,3161.02 798.794,3149.47 799.256,3137.85 
  
  "/>
<path clip-path="url(#clip332)" d="
M2668.21 1831 L2667.44 1811.63 L2665.13 1792.38 L2661.3 1773.37 L2655.98 1754.73 L2649.18 1736.57 L2640.97 1719.01 L2631.39 1702.16 L2620.5 1686.12 L2608.37 1670.99 
  L2595.07 1656.88 L2580.7 1643.87 L2565.34 1632.04 L2549.09 1621.47 L2532.04 1612.23 L2514.32 1604.36 L2496.03 1597.93 L2477.29 1592.98 L2458.21 1589.53 L2438.92 1587.6 
  L2419.53 1587.22 L2400.18 1588.37 L2380.98 1591.06 L2362.05 1595.27 L2343.52 1600.97 L2325.5 1608.12 L2308.11 1616.68 L2291.45 1626.59 L2275.63 1637.8 L2260.75 1650.23 
  L2246.9 1663.8 L2234.18 1678.43 L2222.66 1694.03 L2212.42 1710.49 L2203.51 1727.71 L2196 1745.58 L2189.94 1764 L2185.36 1782.84 L2182.28 1801.98 L2180.74 1821.31 
  L2180.74 1840.69 L2182.28 1860.02 L2185.36 1879.16 L2189.94 1898 L2196 1916.42 L2203.51 1934.29 L2212.42 1951.51 L2222.66 1967.97 L2234.18 1983.57 L2246.9 1998.2 
  L2260.75 2011.77 L2275.63 2024.2 L2291.45 2035.4 L2308.11 2045.32 L2325.5 2053.88 L2343.52 2061.03 L2362.05 2066.73 L2380.98 2070.94 L2400.18 2073.63 L2419.53 2074.78 
  L2438.92 2074.4 L2458.21 2072.47 L2477.29 2069.02 L2496.03 2064.07 L2514.32 2057.64 L2532.04 2049.77 L2549.09 2040.53 L2565.34 2029.96 L2580.7 2018.13 L2595.07 2005.12 
  L2608.37 1991.01 L2620.5 1975.88 L2631.39 1959.84 L2640.97 1942.99 L2649.18 1925.43 L2655.98 1907.27 L2661.3 1888.63 L2665.13 1869.62 L2667.44 1850.37 L2668.21 1831 
  L2668.21 1831  Z
  " fill="#ffb72c" fill-rule="evenodd" fill-opacity="1"/>
<polyline clip-path="url(#clip332)" style="stroke:#000000; stroke-width:4; stroke-opacity:1; fill:none" points="
  2668.21,1831 2667.44,1811.63 2665.13,1792.38 2661.3,1773.37 2655.98,1754.73 2649.18,1736.57 2640.97,1719.01 2631.39,1702.16 2620.5,1686.12 2608.37,1670.99 
  2595.07,1656.88 2580.7,1643.87 2565.34,1632.04 2549.09,1621.47 2532.04,1612.23 2514.32,1604.36 2496.03,1597.93 2477.29,1592.98 2458.21,1589.53 2438.92,1587.6 
  2419.53,1587.22 2400.18,1588.37 2380.98,1591.06 2362.05,1595.27 2343.52,1600.97 2325.5,1608.12 2308.11,1616.68 2291.45,1626.59 2275.63,1637.8 2260.75,1650.23 
  2246.9,1663.8 2234.18,1678.43 2222.66,1694.03 2212.42,1710.49 2203.51,1727.71 2196,1745.58 2189.94,1764 2185.36,1782.84 2182.28,1801.98 2180.74,1821.31 
  2180.74,1840.69 2182.28,1860.02 2185.36,1879.16 2189.94,1898 2196,1916.42 2203.51,1934.29 2212.42,1951.51 2222.66,1967.97 2234.18,1983.57 2246.9,1998.2 
  2260.75,2011.77 2275.63,2024.2 2291.45,2035.4 2308.11,2045.32 2325.5,2053.88 2343.52,2061.03 2362.05,2066.73 2380.98,2070.94 2400.18,2073.63 2419.53,2074.78 
  2438.92,2074.4 2458.21,2072.47 2477.29,2069.02 2496.03,2064.07 2514.32,2057.64 2532.04,2049.77 2549.09,2040.53 2565.34,2029.96 2580.7,2018.13 2595.07,2005.12 
  2608.37,1991.01 2620.5,1975.88 2631.39,1959.84 2640.97,1942.99 2649.18,1925.43 2655.98,1907.27 2661.3,1888.63 2665.13,1869.62 2667.44,1850.37 2668.21,1831 
  
  "/>
<path clip-path="url(#clip332)" d="
M3080.93 2333.74 L3080.31 2318.25 L3078.47 2302.85 L3075.4 2287.64 L3071.14 2272.73 L3065.71 2258.2 L3059.14 2244.15 L3051.47 2230.67 L3042.76 2217.84 L3033.05 2205.74 
  L3022.42 2194.45 L3010.92 2184.04 L2998.63 2174.58 L2985.63 2166.12 L2972 2158.72 L2957.82 2152.44 L2943.19 2147.29 L2928.19 2143.33 L2912.93 2140.57 L2897.49 2139.03 
  L2881.99 2138.72 L2866.51 2139.64 L2851.14 2141.79 L2836 2145.16 L2821.18 2149.72 L2806.76 2155.44 L2792.85 2162.29 L2779.52 2170.22 L2766.86 2179.19 L2754.96 2189.13 
  L2743.88 2199.99 L2733.7 2211.69 L2724.49 2224.17 L2716.29 2237.33 L2709.17 2251.11 L2703.16 2265.41 L2698.31 2280.14 L2694.65 2295.21 L2692.19 2310.53 L2690.96 2325.99 
  L2690.96 2341.5 L2692.19 2356.96 L2694.65 2372.27 L2698.31 2387.35 L2703.16 2402.08 L2709.17 2416.38 L2716.29 2430.15 L2724.49 2443.32 L2733.7 2455.8 L2743.88 2467.5 
  L2754.96 2478.36 L2766.86 2488.3 L2779.52 2497.27 L2792.85 2505.2 L2806.76 2512.05 L2821.18 2517.77 L2836 2522.33 L2851.14 2525.69 L2866.51 2527.84 L2881.99 2528.77 
  L2897.49 2528.46 L2912.93 2526.92 L2928.19 2524.16 L2943.19 2520.2 L2957.82 2515.05 L2972 2508.76 L2985.63 2501.37 L2998.63 2492.91 L3010.92 2483.45 L3022.42 2473.04 
  L3033.05 2461.75 L3042.76 2449.65 L3051.47 2436.82 L3059.14 2423.34 L3065.71 2409.29 L3071.14 2394.76 L3075.4 2379.85 L3078.47 2364.64 L3080.31 2349.24 L3080.93 2333.74 
  L3080.93 2333.74  Z
  " fill="#ffdb86" fill-rule="evenodd" fill-opacity="1"/>
<polyline clip-path="url(#clip332)" style="stroke:#000000; stroke-width:4; stroke-opacity:1; fill:none" points="
  3080.93,2333.74 3080.31,2318.25 3078.47,2302.85 3075.4,2287.64 3071.14,2272.73 3065.71,2258.2 3059.14,2244.15 3051.47,2230.67 3042.76,2217.84 3033.05,2205.74 
  3022.42,2194.45 3010.92,2184.04 2998.63,2174.58 2985.63,2166.12 2972,2158.72 2957.82,2152.44 2943.19,2147.29 2928.19,2143.33 2912.93,2140.57 2897.49,2139.03 
  2881.99,2138.72 2866.51,2139.64 2851.14,2141.79 2836,2145.16 2821.18,2149.72 2806.76,2155.44 2792.85,2162.29 2779.52,2170.22 2766.86,2179.19 2754.96,2189.13 
  2743.88,2199.99 2733.7,2211.69 2724.49,2224.17 2716.29,2237.33 2709.17,2251.11 2703.16,2265.41 2698.31,2280.14 2694.65,2295.21 2692.19,2310.53 2690.96,2325.99 
  2690.96,2341.5 2692.19,2356.96 2694.65,2372.27 2698.31,2387.35 2703.16,2402.08 2709.17,2416.38 2716.29,2430.15 2724.49,2443.32 2733.7,2455.8 2743.88,2467.5 
  2754.96,2478.36 2766.86,2488.3 2779.52,2497.27 2792.85,2505.2 2806.76,2512.05 2821.18,2517.77 2836,2522.33 2851.14,2525.69 2866.51,2527.84 2881.99,2528.77 
  2897.49,2528.46 2912.93,2526.92 2928.19,2524.16 2943.19,2520.2 2957.82,2515.05 2972,2508.76 2985.63,2501.37 2998.63,2492.91 3010.92,2483.45 3022.42,2473.04 
  3033.05,2461.75 3042.76,2449.65 3051.47,2436.82 3059.14,2423.34 3065.71,2409.29 3071.14,2394.76 3075.4,2379.85 3078.47,2364.64 3080.31,2349.24 3080.93,2333.74 
  
  "/>
<path clip-path="url(#clip332)" d="
M3549.09 3092.4 L3548.63 3080.78 L3547.24 3069.23 L3544.94 3057.83 L3541.75 3046.64 L3537.67 3035.75 L3532.74 3025.21 L3526.99 3015.1 L3520.46 3005.47 L3513.18 2996.4 
  L3505.2 2987.93 L3496.58 2980.13 L3487.36 2973.03 L3477.61 2966.69 L3467.39 2961.14 L3456.75 2956.42 L3445.78 2952.56 L3434.53 2949.59 L3423.09 2947.52 L3411.51 2946.37 
  L3399.88 2946.13 L3388.27 2946.83 L3376.75 2948.44 L3365.39 2950.97 L3354.27 2954.38 L3343.46 2958.67 L3333.02 2963.81 L3323.03 2969.76 L3313.54 2976.48 L3304.61 2983.94 
  L3296.3 2992.09 L3288.67 3000.86 L3281.76 3010.22 L3275.61 3020.1 L3270.27 3030.43 L3265.76 3041.15 L3262.12 3052.2 L3259.37 3063.51 L3257.53 3074.99 L3256.61 3086.59 
  L3256.61 3098.22 L3257.53 3109.82 L3259.37 3121.3 L3262.12 3132.6 L3265.76 3143.65 L3270.27 3154.38 L3275.61 3164.71 L3281.76 3174.59 L3288.67 3183.94 L3296.3 3192.72 
  L3304.61 3200.86 L3313.54 3208.32 L3323.03 3215.05 L3333.02 3221 L3343.46 3226.13 L3354.27 3230.42 L3365.39 3233.84 L3376.75 3236.37 L3388.27 3237.98 L3399.88 3238.67 
  L3411.51 3238.44 L3423.09 3237.29 L3434.53 3235.22 L3445.78 3232.24 L3456.75 3228.38 L3467.39 3223.67 L3477.61 3218.12 L3487.36 3211.78 L3496.58 3204.68 L3505.2 3196.87 
  L3513.18 3188.41 L3520.46 3179.33 L3526.99 3169.71 L3532.74 3159.6 L3537.67 3149.06 L3541.75 3138.16 L3544.94 3126.98 L3547.24 3115.58 L3548.63 3104.03 L3549.09 3092.4 
  L3549.09 3092.4  Z
  " fill="#ffffe0" fill-rule="evenodd" fill-opacity="1"/>
<polyline clip-path="url(#clip332)" style="stroke:#000000; stroke-width:4; stroke-opacity:1; fill:none" points="
  3549.09,3092.4 3548.63,3080.78 3547.24,3069.23 3544.94,3057.83 3541.75,3046.64 3537.67,3035.75 3532.74,3025.21 3526.99,3015.1 3520.46,3005.47 3513.18,2996.4 
  3505.2,2987.93 3496.58,2980.13 3487.36,2973.03 3477.61,2966.69 3467.39,2961.14 3456.75,2956.42 3445.78,2952.56 3434.53,2949.59 3423.09,2947.52 3411.51,2946.37 
  3399.88,2946.13 3388.27,2946.83 3376.75,2948.44 3365.39,2950.97 3354.27,2954.38 3343.46,2958.67 3333.02,2963.81 3323.03,2969.76 3313.54,2976.48 3304.61,2983.94 
  3296.3,2992.09 3288.67,3000.86 3281.76,3010.22 3275.61,3020.1 3270.27,3030.43 3265.76,3041.15 3262.12,3052.2 3259.37,3063.51 3257.53,3074.99 3256.61,3086.59 
  3256.61,3098.22 3257.53,3109.82 3259.37,3121.3 3262.12,3132.6 3265.76,3143.65 3270.27,3154.38 3275.61,3164.71 3281.76,3174.59 3288.67,3183.94 3296.3,3192.72 
  3304.61,3200.86 3313.54,3208.32 3323.03,3215.05 3333.02,3221 3343.46,3226.13 3354.27,3230.42 3365.39,3233.84 3376.75,3236.37 3388.27,3237.98 3399.88,3238.67 
  3411.51,3238.44 3423.09,3237.29 3434.53,3235.22 3445.78,3232.24 3456.75,3228.38 3467.39,3223.67 3477.61,3218.12 3487.36,3211.78 3496.58,3204.68 3505.2,3196.87 
  3513.18,3188.41 3520.46,3179.33 3526.99,3169.71 3532.74,3159.6 3537.67,3149.06 3541.75,3138.16 3544.94,3126.98 3547.24,3115.58 3548.63,3104.03 3549.09,3092.4 
  
  "/>
<circle clip-path="url(#clip332)" style="fill:#e78300; stroke:none; fill-opacity:1" cx="1984.7" cy="597.21" r="2"/>
<circle clip-path="url(#clip332)" style="fill:#ffb72c; stroke:none; fill-opacity:1" cx="1439.5" cy="1586.66" r="2"/>
<circle clip-path="url(#clip332)" style="fill:#ffdb86; stroke:none; fill-opacity:1" cx="1864.09" cy="2276.81" r="2"/>
<circle clip-path="url(#clip332)" style="fill:#ffffe0; stroke:none; fill-opacity:1" cx="2165.59" cy="2985.26" r="2"/>
<circle clip-path="url(#clip332)" style="fill:#ffffe0; stroke:none; fill-opacity:1" cx="1617.94" cy="3347.04" r="2"/>
<circle clip-path="url(#clip332)" style="fill:#ffdb86; stroke:none; fill-opacity:1" cx="1282.02" cy="2572.19" r="2"/>
<circle clip-path="url(#clip332)" style="fill:#ffffe0; stroke:none; fill-opacity:1" cx="652.958" cy="3137.85" r="2"/>
<circle clip-path="url(#clip332)" style="fill:#ffb72c; stroke:none; fill-opacity:1" cx="2424.38" cy="1831" r="2"/>
<circle clip-path="url(#clip332)" style="fill:#ffdb86; stroke:none; fill-opacity:1" cx="2885.87" cy="2333.74" r="2"/>
<circle clip-path="url(#clip332)" style="fill:#ffffe0; stroke:none; fill-opacity:1" cx="3402.79" cy="3092.4" r="2"/>
<path clip-path="url(#clip330)" d="M 0 0 M1892.74 597.057 Q1892.74 582.875 1898.03 571.439 Q1900.29 566.643 1903.44 562.626 Q1906.6 558.609 1908.69 556.847 Q1910.78 555.084 1911.35 555.084 Q1912.17 555.084 1912.21 555.904 Q1912.21 556.314 1911.11 557.339 Q1897.58 571.111 1897.62 597.057 Q1897.62 623.085 1910.78 636.325 Q1912.21 637.76 1912.21 638.21 Q1912.21 639.03 1911.35 639.03 Q1910.78 639.03 1908.77 637.35 Q1906.76 635.669 1903.65 631.816 Q1900.53 627.963 1898.28 623.249 Q1892.74 611.813 1892.74 597.057 Z" fill="#000000" fill-rule="evenodd" fill-opacity="1" /><path clip-path="url(#clip330)" d="M 0 0 M1924.97 604.189 L1924.97 601.607 L1950.75 562.216 Q1951.41 561.192 1952.43 561.233 Q1953.38 561.233 1953.58 561.601 Q1953.79 561.97 1953.79 563.405 L1953.79 601.607 L1962.19 601.607 L1962.19 604.189 L1953.79 604.189 L1953.79 611.485 Q1953.79 613.904 1954.77 614.683 Q1955.8 615.461 1960.14 615.461 L1961.9 615.461 L1961.9 618.044 Q1958.46 617.798 1950.51 617.798 Q1942.6 617.798 1939.15 618.044 L1939.15 615.461 L1940.92 615.461 Q1945.26 615.461 1946.29 614.724 Q1947.31 613.945 1947.31 611.485 L1947.31 604.189 L1924.97 604.189 M1927.35 601.607 L1947.8 601.607 L1947.8 570.291 L1927.35 601.607 Z" fill="#000000" fill-rule="evenodd" fill-opacity="1" /><path clip-path="url(#clip330)" d="M 0 0 M1967.72 616.691 Q1966.53 615.338 1966.53 613.576 Q1966.53 611.813 1967.68 610.502 Q1968.87 609.149 1971 609.149 Q1973.5 609.149 1974.94 611.567 Q1976.37 613.945 1976.37 617.962 Q1976.37 622.307 1974.61 626.324 Q1972.85 630.381 1971.13 632.308 Q1969.4 634.234 1968.71 634.234 Q1967.89 634.234 1967.89 633.333 Q1967.89 633.005 1968.46 632.39 Q1974.49 625.914 1974.53 617.962 Q1974.53 616.691 1974.36 616.691 L1974.16 616.855 Q1972.72 618.044 1971 618.044 Q1968.91 618.044 1967.72 616.691 Z" fill="#000000" fill-rule="evenodd" fill-opacity="1" /><path clip-path="url(#clip330)" d="M 0 0 M2002.86 570.127 L2002.86 567.504 Q2012.94 567.504 2018.15 562.134 Q2019.58 562.134 2019.83 562.462 Q2020.07 562.79 2020.07 564.307 L2020.07 611.403 Q2020.07 613.904 2021.3 614.683 Q2022.53 615.461 2027.9 615.461 L2030.57 615.461 L2030.57 618.044 Q2027.61 617.798 2016.96 617.798 Q2006.3 617.798 2003.39 618.044 L2003.39 615.461 L2006.05 615.461 Q2011.34 615.461 2012.61 614.724 Q2013.88 613.945 2013.88 611.403 L2013.88 567.914 Q2009.5 570.127 2002.86 570.127 Z" fill="#000000" fill-rule="evenodd" fill-opacity="1" /><path clip-path="url(#clip330)" d="M 0 0 M2044.42 638.21 Q2044.42 637.801 2045.49 636.776 Q2059.01 623.003 2059.01 597.057 Q2059.01 571.029 2046.02 557.871 Q2044.42 556.355 2044.42 555.904 Q2044.42 555.084 2045.24 555.084 Q2045.81 555.084 2047.82 556.765 Q2049.87 558.445 2052.95 562.298 Q2056.06 566.151 2058.36 570.865 Q2063.89 582.301 2063.89 597.057 Q2063.89 611.239 2058.6 622.675 Q2056.35 627.471 2053.19 631.488 Q2050.04 635.505 2047.94 637.268 Q2045.85 639.03 2045.24 639.03 Q2044.42 639.03 2044.42 638.21 Z" fill="#000000" fill-rule="evenodd" fill-opacity="1" /><path clip-path="url(#clip330)" d="M 0 0 M1347.55 1586.51 Q1347.55 1572.32 1352.84 1560.89 Q1355.09 1556.09 1358.25 1552.07 Q1361.41 1548.06 1363.5 1546.29 Q1365.59 1544.53 1366.16 1544.53 Q1366.98 1544.53 1367.02 1545.35 Q1367.02 1545.76 1365.91 1546.79 Q1352.39 1560.56 1352.43 1586.51 Q1352.43 1612.53 1365.59 1625.77 Q1367.02 1627.21 1367.02 1627.66 Q1367.02 1628.48 1366.16 1628.48 Q1365.59 1628.48 1363.58 1626.8 Q1361.57 1625.12 1358.45 1621.26 Q1355.34 1617.41 1353.08 1612.7 Q1347.55 1601.26 1347.55 1586.51 Z" fill="#000000" fill-rule="evenodd" fill-opacity="1" /><path clip-path="url(#clip330)" d="M 0 0 M1379.78 1596.18 Q1379.78 1593.68 1381.21 1592.49 Q1382.65 1591.3 1384.49 1591.3 Q1386.42 1591.3 1387.77 1592.57 Q1389.16 1593.8 1389.16 1595.97 Q1389.16 1598.31 1387.52 1599.62 Q1385.93 1600.93 1383.63 1600.61 Q1385.64 1603.97 1389.33 1605.48 Q1393.06 1607 1396.5 1607 Q1400.11 1607 1403.02 1603.88 Q1405.97 1600.77 1405.97 1593.15 Q1405.97 1586.67 1403.43 1582.94 Q1400.93 1579.21 1395.97 1579.21 L1392.28 1579.21 Q1391.01 1579.21 1390.64 1579.09 Q1390.27 1578.96 1390.27 1578.27 Q1390.27 1577.45 1391.54 1577.28 Q1392.81 1577.28 1394.82 1577.04 Q1399.7 1576.87 1402.28 1572.65 Q1404.62 1568.72 1404.62 1563.1 Q1404.62 1557.98 1402.16 1555.85 Q1399.74 1553.67 1396.58 1553.67 Q1393.63 1553.67 1390.39 1554.9 Q1387.16 1556.13 1385.39 1558.88 Q1390.6 1558.88 1390.6 1563.1 Q1390.6 1564.94 1389.41 1566.17 Q1388.26 1567.36 1386.34 1567.36 Q1384.49 1567.36 1383.26 1566.22 Q1382.03 1565.03 1382.03 1563.02 Q1382.03 1558.22 1386.3 1554.9 Q1390.6 1551.58 1396.91 1551.58 Q1403.14 1551.58 1407.73 1554.86 Q1412.36 1558.14 1412.36 1563.18 Q1412.36 1568.14 1409.09 1572.2 Q1405.81 1576.26 1400.6 1577.94 Q1406.99 1579.21 1410.81 1583.55 Q1414.62 1587.86 1414.62 1593.15 Q1414.62 1599.7 1409.45 1604.54 Q1404.29 1609.34 1396.75 1609.34 Q1389.78 1609.34 1384.78 1605.57 Q1379.78 1601.79 1379.78 1596.18 Z" fill="#000000" fill-rule="evenodd" fill-opacity="1" /><path clip-path="url(#clip330)" d="M 0 0 M1422.53 1606.14 Q1421.34 1604.79 1421.34 1603.02 Q1421.34 1601.26 1422.49 1599.95 Q1423.68 1598.6 1425.81 1598.6 Q1428.31 1598.6 1429.74 1601.02 Q1431.18 1603.39 1431.18 1607.41 Q1431.18 1611.75 1429.42 1615.77 Q1427.65 1619.83 1425.93 1621.76 Q1424.21 1623.68 1423.51 1623.68 Q1422.69 1623.68 1422.69 1622.78 Q1422.69 1622.45 1423.27 1621.84 Q1429.29 1615.36 1429.33 1607.41 Q1429.33 1606.14 1429.17 1606.14 L1428.96 1606.3 Q1427.53 1607.49 1425.81 1607.49 Q1423.72 1607.49 1422.53 1606.14 Z" fill="#000000" fill-rule="evenodd" fill-opacity="1" /><path clip-path="url(#clip330)" d="M 0 0 M1457.66 1559.58 L1457.66 1556.95 Q1467.75 1556.95 1472.95 1551.58 Q1474.39 1551.58 1474.63 1551.91 Q1474.88 1552.24 1474.88 1553.75 L1474.88 1600.85 Q1474.88 1603.35 1476.11 1604.13 Q1477.34 1604.91 1482.71 1604.91 L1485.37 1604.91 L1485.37 1607.49 Q1482.42 1607.25 1471.76 1607.25 Q1461.11 1607.25 1458.2 1607.49 L1458.2 1604.91 L1460.86 1604.91 Q1466.15 1604.91 1467.42 1604.17 Q1468.69 1603.39 1468.69 1600.85 L1468.69 1557.36 Q1464.3 1559.58 1457.66 1559.58 Z" fill="#000000" fill-rule="evenodd" fill-opacity="1" /><path clip-path="url(#clip330)" d="M 0 0 M1499.23 1627.66 Q1499.23 1627.25 1500.29 1626.22 Q1513.82 1612.45 1513.82 1586.51 Q1513.82 1560.48 1500.82 1547.32 Q1499.23 1545.8 1499.23 1545.35 Q1499.23 1544.53 1500.05 1544.53 Q1500.62 1544.53 1502.63 1546.21 Q1504.68 1547.89 1507.75 1551.75 Q1510.87 1555.6 1513.16 1560.31 Q1518.7 1571.75 1518.7 1586.51 Q1518.7 1600.69 1513.41 1612.12 Q1511.15 1616.92 1508 1620.94 Q1504.84 1624.95 1502.75 1626.72 Q1500.66 1628.48 1500.05 1628.48 Q1499.23 1628.48 1499.23 1627.66 Z" fill="#000000" fill-rule="evenodd" fill-opacity="1" /><path clip-path="url(#clip330)" d="M 0 0 M1772.14 2276.66 Q1772.14 2262.48 1777.43 2251.04 Q1779.68 2246.24 1782.84 2242.23 Q1786 2238.21 1788.09 2236.45 Q1790.18 2234.69 1790.75 2234.69 Q1791.57 2234.69 1791.61 2235.51 Q1791.61 2235.92 1790.5 2236.94 Q1776.98 2250.71 1777.02 2276.66 Q1777.02 2302.69 1790.18 2315.93 Q1791.61 2317.36 1791.61 2317.81 Q1791.61 2318.63 1790.75 2318.63 Q1790.18 2318.63 1788.17 2316.95 Q1786.16 2315.27 1783.04 2311.42 Q1779.93 2307.56 1777.67 2302.85 Q1772.14 2291.42 1772.14 2276.66 Z" fill="#000000" fill-rule="evenodd" fill-opacity="1" /><path clip-path="url(#clip330)" d="M 0 0 M1804.37 2297.65 Q1804.37 2296.13 1804.49 2295.68 Q1804.66 2295.23 1805.31 2294.53 L1821.42 2276.58 Q1830.23 2266.66 1830.23 2258.01 Q1830.23 2252.39 1827.28 2248.38 Q1824.37 2244.36 1819 2244.36 Q1815.31 2244.36 1812.2 2246.61 Q1809.08 2248.87 1807.65 2252.89 Q1807.89 2252.8 1808.75 2252.8 Q1810.84 2252.8 1811.99 2254.11 Q1813.18 2255.43 1813.18 2257.19 Q1813.18 2259.44 1811.71 2260.55 Q1810.27 2261.62 1808.84 2261.62 Q1808.26 2261.62 1807.48 2261.49 Q1806.75 2261.37 1805.56 2260.22 Q1804.37 2259.03 1804.37 2256.94 Q1804.37 2251.08 1808.79 2246.41 Q1813.26 2241.74 1820.07 2241.74 Q1827.77 2241.74 1832.81 2246.33 Q1837.9 2250.88 1837.9 2258.01 Q1837.9 2260.51 1837.12 2262.8 Q1836.38 2265.06 1835.36 2266.82 Q1834.37 2268.58 1831.67 2271.41 Q1828.96 2274.24 1826.79 2276.25 Q1824.62 2278.26 1819.74 2282.52 L1810.84 2291.17 L1825.97 2291.17 Q1833.35 2291.17 1833.92 2290.51 Q1834.74 2289.32 1835.77 2283.05 L1837.9 2283.05 L1835.52 2297.65 L1804.37 2297.65 Z" fill="#000000" fill-rule="evenodd" fill-opacity="1" /><path clip-path="url(#clip330)" d="M 0 0 M1847.12 2296.29 Q1845.93 2294.94 1845.93 2293.18 Q1845.93 2291.42 1847.08 2290.1 Q1848.27 2288.75 1850.4 2288.75 Q1852.9 2288.75 1854.33 2291.17 Q1855.77 2293.55 1855.77 2297.56 Q1855.77 2301.91 1854.01 2305.93 Q1852.24 2309.98 1850.52 2311.91 Q1848.8 2313.84 1848.1 2313.84 Q1847.28 2313.84 1847.28 2312.93 Q1847.28 2312.61 1847.86 2311.99 Q1853.88 2305.52 1853.92 2297.56 Q1853.92 2296.29 1853.76 2296.29 L1853.55 2296.46 Q1852.12 2297.65 1850.4 2297.65 Q1848.31 2297.65 1847.12 2296.29 Z" fill="#000000" fill-rule="evenodd" fill-opacity="1" /><path clip-path="url(#clip330)" d="M 0 0 M1882.25 2249.73 L1882.25 2247.11 Q1892.34 2247.11 1897.54 2241.74 Q1898.98 2241.74 1899.22 2242.06 Q1899.47 2242.39 1899.47 2243.91 L1899.47 2291.01 Q1899.47 2293.51 1900.7 2294.28 Q1901.93 2295.06 1907.3 2295.06 L1909.96 2295.06 L1909.96 2297.65 Q1907.01 2297.4 1896.35 2297.4 Q1885.7 2297.4 1882.79 2297.65 L1882.79 2295.06 L1885.45 2295.06 Q1890.74 2295.06 1892.01 2294.33 Q1893.28 2293.55 1893.28 2291.01 L1893.28 2247.52 Q1888.89 2249.73 1882.25 2249.73 Z" fill="#000000" fill-rule="evenodd" fill-opacity="1" /><path clip-path="url(#clip330)" d="M 0 0 M1923.82 2317.81 Q1923.82 2317.4 1924.88 2316.38 Q1938.41 2302.61 1938.41 2276.66 Q1938.41 2250.63 1925.41 2237.47 Q1923.82 2235.96 1923.82 2235.51 Q1923.82 2234.69 1924.64 2234.69 Q1925.21 2234.69 1927.22 2236.37 Q1929.27 2238.05 1932.34 2241.9 Q1935.46 2245.75 1937.75 2250.47 Q1943.29 2261.9 1943.29 2276.66 Q1943.29 2290.84 1938 2302.28 Q1935.74 2307.07 1932.59 2311.09 Q1929.43 2315.11 1927.34 2316.87 Q1925.25 2318.63 1924.64 2318.63 Q1923.82 2318.63 1923.82 2317.81 Z" fill="#000000" fill-rule="evenodd" fill-opacity="1" /><path clip-path="url(#clip330)" d="M 0 0 M2073.64 2985.11 Q2073.64 2970.93 2078.93 2959.49 Q2081.18 2954.7 2084.34 2950.68 Q2087.49 2946.66 2089.58 2944.9 Q2091.68 2943.14 2092.25 2943.14 Q2093.07 2943.14 2093.11 2943.96 Q2093.11 2944.37 2092 2945.39 Q2078.48 2959.17 2078.52 2985.11 Q2078.52 3011.14 2091.68 3024.38 Q2093.11 3025.81 2093.11 3026.26 Q2093.11 3027.08 2092.25 3027.08 Q2091.68 3027.08 2089.67 3025.4 Q2087.66 3023.72 2084.54 3019.87 Q2081.43 3016.02 2079.17 3011.3 Q2073.64 2999.87 2073.64 2985.11 Z" fill="#000000" fill-rule="evenodd" fill-opacity="1" /><path clip-path="url(#clip330)" d="M 0 0 M2105.87 2958.18 L2105.87 2955.56 Q2115.95 2955.56 2121.16 2950.19 Q2122.59 2950.19 2122.84 2950.52 Q2123.08 2950.84 2123.08 2952.36 L2123.08 2999.46 Q2123.08 3001.96 2124.31 3002.74 Q2125.54 3003.52 2130.91 3003.52 L2133.58 3003.52 L2133.58 3006.1 Q2130.62 3005.85 2119.97 3005.85 Q2109.31 3005.85 2106.4 3006.1 L2106.4 3003.52 L2109.06 3003.52 Q2114.35 3003.52 2115.62 3002.78 Q2116.89 3002 2116.89 2999.46 L2116.89 2955.97 Q2112.51 2958.18 2105.87 2958.18 Z" fill="#000000" fill-rule="evenodd" fill-opacity="1" /><path clip-path="url(#clip330)" d="M 0 0 M2148.62 3004.75 Q2147.43 3003.39 2147.43 3001.63 Q2147.43 2999.87 2148.58 2998.56 Q2149.77 2997.2 2151.9 2997.2 Q2154.4 2997.2 2155.83 2999.62 Q2157.27 3002 2157.27 3006.02 Q2157.27 3010.36 2155.5 3014.38 Q2153.74 3018.44 2152.02 3020.36 Q2150.3 3022.29 2149.6 3022.29 Q2148.78 3022.29 2148.78 3021.39 Q2148.78 3021.06 2149.36 3020.44 Q2155.38 3013.97 2155.42 3006.02 Q2155.42 3004.75 2155.26 3004.75 L2155.05 3004.91 Q2153.62 3006.1 2151.9 3006.1 Q2149.81 3006.1 2148.62 3004.75 Z" fill="#000000" fill-rule="evenodd" fill-opacity="1" /><path clip-path="url(#clip330)" d="M 0 0 M2183.75 2958.18 L2183.75 2955.56 Q2193.84 2955.56 2199.04 2950.19 Q2200.48 2950.19 2200.72 2950.52 Q2200.97 2950.84 2200.97 2952.36 L2200.97 2999.46 Q2200.97 3001.96 2202.2 3002.74 Q2203.43 3003.52 2208.8 3003.52 L2211.46 3003.52 L2211.46 3006.1 Q2208.51 3005.85 2197.85 3005.85 Q2187.2 3005.85 2184.29 3006.1 L2184.29 3003.52 L2186.95 3003.52 Q2192.24 3003.52 2193.51 3002.78 Q2194.78 3002 2194.78 2999.46 L2194.78 2955.97 Q2190.39 2958.18 2183.75 2958.18 Z" fill="#000000" fill-rule="evenodd" fill-opacity="1" /><path clip-path="url(#clip330)" d="M 0 0 M2225.32 3026.26 Q2225.32 3025.85 2226.38 3024.83 Q2239.91 3011.06 2239.91 2985.11 Q2239.91 2959.08 2226.91 2945.93 Q2225.32 2944.41 2225.32 2943.96 Q2225.32 2943.14 2226.13 2943.14 Q2226.71 2943.14 2228.72 2944.82 Q2230.77 2946.5 2233.84 2950.35 Q2236.96 2954.21 2239.25 2958.92 Q2244.79 2970.36 2244.79 2985.11 Q2244.79 2999.29 2239.5 3010.73 Q2237.24 3015.53 2234.09 3019.54 Q2230.93 3023.56 2228.84 3025.32 Q2226.75 3027.08 2226.13 3027.08 Q2225.32 3027.08 2225.32 3026.26 Z" fill="#000000" fill-rule="evenodd" fill-opacity="1" /><path clip-path="url(#clip330)" d="M 0 0 M1525.99 3346.89 Q1525.99 3332.71 1531.28 3321.27 Q1533.53 3316.47 1536.69 3312.46 Q1539.85 3308.44 1541.94 3306.68 Q1544.03 3304.92 1544.6 3304.92 Q1545.42 3304.92 1545.46 3305.74 Q1545.46 3306.15 1544.36 3307.17 Q1530.83 3320.94 1530.87 3346.89 Q1530.87 3372.92 1544.03 3386.16 Q1545.46 3387.59 1545.46 3388.04 Q1545.46 3388.86 1544.6 3388.86 Q1544.03 3388.86 1542.02 3387.18 Q1540.01 3385.5 1536.9 3381.65 Q1533.78 3377.79 1531.53 3373.08 Q1525.99 3361.64 1525.99 3346.89 Z" fill="#000000" fill-rule="evenodd" fill-opacity="1" /><path clip-path="url(#clip330)" d="M 0 0 M1558.22 3319.96 L1558.22 3317.34 Q1568.3 3317.34 1573.51 3311.97 Q1574.94 3311.97 1575.19 3312.29 Q1575.44 3312.62 1575.44 3314.14 L1575.44 3361.23 Q1575.44 3363.74 1576.66 3364.51 Q1577.89 3365.29 1583.26 3365.29 L1585.93 3365.29 L1585.93 3367.87 Q1582.98 3367.63 1572.32 3367.63 Q1561.66 3367.63 1558.75 3367.87 L1558.75 3365.29 L1561.42 3365.29 Q1566.7 3365.29 1567.98 3364.55 Q1569.25 3363.78 1569.25 3361.23 L1569.25 3317.75 Q1564.86 3319.96 1558.22 3319.96 Z" fill="#000000" fill-rule="evenodd" fill-opacity="1" /><path clip-path="url(#clip330)" d="M 0 0 M1600.97 3366.52 Q1599.78 3365.17 1599.78 3363.41 Q1599.78 3361.64 1600.93 3360.33 Q1602.12 3358.98 1604.25 3358.98 Q1606.75 3358.98 1608.19 3361.4 Q1609.62 3363.78 1609.62 3367.79 Q1609.62 3372.14 1607.86 3376.15 Q1606.09 3380.21 1604.37 3382.14 Q1602.65 3384.07 1601.95 3384.07 Q1601.13 3384.07 1601.13 3383.16 Q1601.13 3382.84 1601.71 3382.22 Q1607.73 3375.74 1607.78 3367.79 Q1607.78 3366.52 1607.61 3366.52 L1607.41 3366.69 Q1605.97 3367.87 1604.25 3367.87 Q1602.16 3367.87 1600.97 3366.52 Z" fill="#000000" fill-rule="evenodd" fill-opacity="1" /><path clip-path="url(#clip330)" d="M 0 0 M1636.11 3367.87 Q1636.11 3366.36 1636.23 3365.91 Q1636.39 3365.46 1637.05 3364.76 L1653.16 3346.81 Q1661.97 3336.89 1661.97 3328.24 Q1661.97 3322.62 1659.02 3318.61 Q1656.11 3314.59 1650.74 3314.59 Q1647.05 3314.59 1643.93 3316.84 Q1640.82 3319.1 1639.38 3323.11 Q1639.63 3323.03 1640.49 3323.03 Q1642.58 3323.03 1643.73 3324.34 Q1644.92 3325.66 1644.92 3327.42 Q1644.92 3329.67 1643.44 3330.78 Q1642.01 3331.85 1640.57 3331.85 Q1640 3331.85 1639.22 3331.72 Q1638.48 3331.6 1637.29 3330.45 Q1636.11 3329.26 1636.11 3327.17 Q1636.11 3321.31 1640.53 3316.64 Q1645 3311.97 1651.8 3311.97 Q1659.51 3311.97 1664.55 3316.56 Q1669.63 3321.11 1669.63 3328.24 Q1669.63 3330.74 1668.86 3333.03 Q1668.12 3335.29 1667.09 3337.05 Q1666.11 3338.81 1663.4 3341.64 Q1660.7 3344.47 1658.53 3346.48 Q1656.35 3348.49 1651.48 3352.75 L1642.58 3361.4 L1657.71 3361.4 Q1665.08 3361.4 1665.66 3360.74 Q1666.48 3359.55 1667.5 3353.28 L1669.63 3353.28 L1667.26 3367.87 L1636.11 3367.87 Z" fill="#000000" fill-rule="evenodd" fill-opacity="1" /><path clip-path="url(#clip330)" d="M 0 0 M1677.67 3388.04 Q1677.67 3387.63 1678.73 3386.61 Q1692.26 3372.83 1692.26 3346.89 Q1692.26 3320.86 1679.27 3307.7 Q1677.67 3306.19 1677.67 3305.74 Q1677.67 3304.92 1678.49 3304.92 Q1679.06 3304.92 1681.07 3306.6 Q1683.12 3308.28 1686.19 3312.13 Q1689.31 3315.98 1691.6 3320.7 Q1697.14 3332.13 1697.14 3346.89 Q1697.14 3361.07 1691.85 3372.51 Q1689.6 3377.3 1686.44 3381.32 Q1683.28 3385.34 1681.19 3387.1 Q1679.1 3388.86 1678.49 3388.86 Q1677.67 3388.86 1677.67 3388.04 Z" fill="#000000" fill-rule="evenodd" fill-opacity="1" /><path clip-path="url(#clip330)" d="M 0 0 M1190.07 2572.04 Q1190.07 2557.86 1195.35 2546.42 Q1197.61 2541.63 1200.76 2537.61 Q1203.92 2533.59 1206.01 2531.83 Q1208.1 2530.07 1208.67 2530.07 Q1209.49 2530.07 1209.53 2530.89 Q1209.53 2531.3 1208.43 2532.32 Q1194.9 2546.09 1194.94 2572.04 Q1194.94 2598.07 1208.1 2611.31 Q1209.53 2612.74 1209.53 2613.19 Q1209.53 2614.01 1208.67 2614.01 Q1208.1 2614.01 1206.09 2612.33 Q1204.08 2610.65 1200.97 2606.8 Q1197.85 2602.95 1195.6 2598.23 Q1190.07 2586.8 1190.07 2572.04 Z" fill="#000000" fill-rule="evenodd" fill-opacity="1" /><path clip-path="url(#clip330)" d="M 0 0 M1222.29 2593.03 Q1222.29 2591.51 1222.42 2591.06 Q1222.58 2590.61 1223.23 2589.91 L1239.34 2571.96 Q1248.16 2562.04 1248.16 2553.39 Q1248.16 2547.78 1245.21 2543.76 Q1242.29 2539.74 1236.93 2539.74 Q1233.24 2539.74 1230.12 2542 Q1227.01 2544.25 1225.57 2548.27 Q1225.82 2548.19 1226.68 2548.19 Q1228.77 2548.19 1229.92 2549.5 Q1231.1 2550.81 1231.1 2552.57 Q1231.1 2554.83 1229.63 2555.93 Q1228.19 2557 1226.76 2557 Q1226.19 2557 1225.41 2556.88 Q1224.67 2556.75 1223.48 2555.6 Q1222.29 2554.42 1222.29 2552.33 Q1222.29 2546.46 1226.72 2541.79 Q1231.19 2537.12 1237.99 2537.12 Q1245.7 2537.12 1250.74 2541.71 Q1255.82 2546.26 1255.82 2553.39 Q1255.82 2555.89 1255.04 2558.19 Q1254.3 2560.44 1253.28 2562.2 Q1252.3 2563.97 1249.59 2566.79 Q1246.89 2569.62 1244.71 2571.63 Q1242.54 2573.64 1237.66 2577.9 L1228.77 2586.55 L1243.89 2586.55 Q1251.27 2586.55 1251.85 2585.9 Q1252.67 2584.71 1253.69 2578.44 L1255.82 2578.44 L1253.44 2593.03 L1222.29 2593.03 Z" fill="#000000" fill-rule="evenodd" fill-opacity="1" /><path clip-path="url(#clip330)" d="M 0 0 M1265.04 2591.67 Q1263.85 2590.32 1263.85 2588.56 Q1263.85 2586.8 1265 2585.49 Q1266.19 2584.13 1268.32 2584.13 Q1270.82 2584.13 1272.26 2586.55 Q1273.69 2588.93 1273.69 2592.95 Q1273.69 2597.29 1271.93 2601.31 Q1270.17 2605.37 1268.45 2607.29 Q1266.72 2609.22 1266.03 2609.22 Q1265.21 2609.22 1265.21 2608.32 Q1265.21 2607.99 1265.78 2607.37 Q1271.81 2600.9 1271.85 2592.95 Q1271.85 2591.67 1271.68 2591.67 L1271.48 2591.84 Q1270.04 2593.03 1268.32 2593.03 Q1266.23 2593.03 1265.04 2591.67 Z" fill="#000000" fill-rule="evenodd" fill-opacity="1" /><path clip-path="url(#clip330)" d="M 0 0 M1300.18 2593.03 Q1300.18 2591.51 1300.3 2591.06 Q1300.46 2590.61 1301.12 2589.91 L1317.23 2571.96 Q1326.04 2562.04 1326.04 2553.39 Q1326.04 2547.78 1323.09 2543.76 Q1320.18 2539.74 1314.81 2539.74 Q1311.12 2539.74 1308.01 2542 Q1304.89 2544.25 1303.46 2548.27 Q1303.7 2548.19 1304.56 2548.19 Q1306.65 2548.19 1307.8 2549.5 Q1308.99 2550.81 1308.99 2552.57 Q1308.99 2554.83 1307.51 2555.93 Q1306.08 2557 1304.65 2557 Q1304.07 2557 1303.29 2556.88 Q1302.56 2556.75 1301.37 2555.6 Q1300.18 2554.42 1300.18 2552.33 Q1300.18 2546.46 1304.6 2541.79 Q1309.07 2537.12 1315.88 2537.12 Q1323.58 2537.12 1328.62 2541.71 Q1333.71 2546.26 1333.71 2553.39 Q1333.71 2555.89 1332.93 2558.19 Q1332.19 2560.44 1331.17 2562.2 Q1330.18 2563.97 1327.48 2566.79 Q1324.77 2569.62 1322.6 2571.63 Q1320.43 2573.64 1315.55 2577.9 L1306.65 2586.55 L1321.78 2586.55 Q1329.16 2586.55 1329.73 2585.9 Q1330.55 2584.71 1331.58 2578.44 L1333.71 2578.44 L1331.33 2593.03 L1300.18 2593.03 Z" fill="#000000" fill-rule="evenodd" fill-opacity="1" /><path clip-path="url(#clip330)" d="M 0 0 M1341.74 2613.19 Q1341.74 2612.78 1342.81 2611.76 Q1356.33 2597.99 1356.33 2572.04 Q1356.33 2546.01 1343.34 2532.86 Q1341.74 2531.34 1341.74 2530.89 Q1341.74 2530.07 1342.56 2530.07 Q1343.13 2530.07 1345.14 2531.75 Q1347.19 2533.43 1350.27 2537.28 Q1353.38 2541.14 1355.68 2545.85 Q1361.21 2557.28 1361.21 2572.04 Q1361.21 2586.22 1355.92 2597.66 Q1353.67 2602.46 1350.51 2606.47 Q1347.36 2610.49 1345.27 2612.25 Q1343.17 2614.01 1342.56 2614.01 Q1341.74 2614.01 1341.74 2613.19 Z" fill="#000000" fill-rule="evenodd" fill-opacity="1" /><path clip-path="url(#clip330)" d="M 0 0 M561.007 3137.69 Q561.007 3123.51 566.295 3112.07 Q568.549 3107.28 571.705 3103.26 Q574.862 3099.25 576.952 3097.48 Q579.042 3095.72 579.616 3095.72 Q580.436 3095.72 580.477 3096.54 Q580.477 3096.95 579.37 3097.97 Q565.844 3111.75 565.885 3137.69 Q565.885 3163.72 579.042 3176.96 Q580.477 3178.4 580.477 3178.85 Q580.477 3179.67 579.616 3179.67 Q579.042 3179.67 577.034 3177.99 Q575.026 3176.31 571.91 3172.45 Q568.795 3168.6 566.541 3163.89 Q561.007 3152.45 561.007 3137.69 Z" fill="#000000" fill-rule="evenodd" fill-opacity="1" /><path clip-path="url(#clip330)" d="M 0 0 M593.234 3110.76 L593.234 3108.14 Q603.318 3108.14 608.523 3102.77 Q609.958 3102.77 610.204 3103.1 Q610.45 3103.43 610.45 3104.94 L610.45 3152.04 Q610.45 3154.54 611.68 3155.32 Q612.909 3156.1 618.279 3156.1 L620.943 3156.1 L620.943 3158.68 Q617.992 3158.43 607.335 3158.43 Q596.677 3158.43 593.767 3158.68 L593.767 3156.1 L596.432 3156.1 Q601.719 3156.1 602.99 3155.36 Q604.26 3154.58 604.26 3152.04 L604.26 3108.55 Q599.875 3110.76 593.234 3110.76 Z" fill="#000000" fill-rule="evenodd" fill-opacity="1" /><path clip-path="url(#clip330)" d="M 0 0 M635.986 3157.33 Q634.797 3155.97 634.797 3154.21 Q634.797 3152.45 635.945 3151.14 Q637.133 3149.78 639.265 3149.78 Q641.765 3149.78 643.2 3152.2 Q644.634 3154.58 644.634 3158.6 Q644.634 3162.94 642.872 3166.96 Q641.109 3171.02 639.388 3172.94 Q637.666 3174.87 636.969 3174.87 Q636.15 3174.87 636.15 3173.97 Q636.15 3173.64 636.723 3173.03 Q642.749 3166.55 642.79 3158.6 Q642.79 3157.33 642.626 3157.33 L642.421 3157.49 Q640.986 3158.68 639.265 3158.68 Q637.174 3158.68 635.986 3157.33 Z" fill="#000000" fill-rule="evenodd" fill-opacity="1" /><path clip-path="url(#clip330)" d="M 0 0 M671.12 3147.37 Q671.12 3144.87 672.555 3143.68 Q673.989 3142.49 675.834 3142.49 Q677.76 3142.49 679.113 3143.76 Q680.506 3144.99 680.506 3147.16 Q680.506 3149.5 678.867 3150.81 Q677.268 3152.12 674.973 3151.79 Q676.981 3155.15 680.67 3156.67 Q684.4 3158.19 687.844 3158.19 Q691.451 3158.19 694.361 3155.07 Q697.312 3151.96 697.312 3144.33 Q697.312 3137.86 694.771 3134.13 Q692.27 3130.4 687.311 3130.4 L683.622 3130.4 Q682.351 3130.4 681.982 3130.27 Q681.613 3130.15 681.613 3129.45 Q681.613 3128.63 682.884 3128.47 Q684.154 3128.47 686.163 3128.22 Q691.041 3128.06 693.623 3123.84 Q695.959 3119.9 695.959 3114.29 Q695.959 3109.16 693.5 3107.03 Q691.082 3104.86 687.925 3104.86 Q684.974 3104.86 681.736 3106.09 Q678.498 3107.32 676.735 3110.07 Q681.941 3110.07 681.941 3114.29 Q681.941 3116.13 680.752 3117.36 Q679.605 3118.55 677.678 3118.55 Q675.834 3118.55 674.604 3117.4 Q673.374 3116.21 673.374 3114.21 Q673.374 3109.41 677.637 3106.09 Q681.941 3102.77 688.253 3102.77 Q694.484 3102.77 699.075 3106.05 Q703.706 3109.33 703.706 3114.37 Q703.706 3119.33 700.427 3123.39 Q697.148 3127.45 691.942 3129.13 Q698.337 3130.4 702.149 3134.74 Q705.961 3139.05 705.961 3144.33 Q705.961 3150.89 700.796 3155.73 Q695.631 3160.52 688.089 3160.52 Q681.121 3160.52 676.121 3156.75 Q671.12 3152.98 671.12 3147.37 Z" fill="#000000" fill-rule="evenodd" fill-opacity="1" /><path clip-path="url(#clip330)" d="M 0 0 M712.682 3178.85 Q712.682 3178.44 713.748 3177.41 Q727.275 3163.64 727.275 3137.69 Q727.275 3111.66 714.281 3098.51 Q712.682 3096.99 712.682 3096.54 Q712.682 3095.72 713.502 3095.72 Q714.076 3095.72 716.084 3097.4 Q718.134 3099.08 721.208 3102.93 Q724.323 3106.79 726.619 3111.5 Q732.152 3122.94 732.152 3137.69 Q732.152 3151.88 726.865 3163.31 Q724.61 3168.11 721.454 3172.12 Q718.298 3176.14 716.207 3177.9 Q714.117 3179.67 713.502 3179.67 Q712.682 3179.67 712.682 3178.85 Z" fill="#000000" fill-rule="evenodd" fill-opacity="1" /><path clip-path="url(#clip330)" d="M 0 0 M2332.43 1830.85 Q2332.43 1816.66 2337.72 1805.23 Q2339.97 1800.43 2343.13 1796.42 Q2346.29 1792.4 2348.38 1790.64 Q2350.47 1788.87 2351.04 1788.87 Q2351.86 1788.87 2351.9 1789.69 Q2351.9 1790.1 2350.79 1791.13 Q2337.27 1804.9 2337.31 1830.85 Q2337.31 1856.87 2350.47 1870.11 Q2351.9 1871.55 2351.9 1872 Q2351.9 1872.82 2351.04 1872.82 Q2350.47 1872.82 2348.46 1871.14 Q2346.45 1869.46 2343.33 1865.61 Q2340.22 1861.75 2337.96 1857.04 Q2332.43 1845.6 2332.43 1830.85 Z" fill="#000000" fill-rule="evenodd" fill-opacity="1" /><path clip-path="url(#clip330)" d="M 0 0 M2364.66 1840.52 Q2364.66 1838.02 2366.09 1836.83 Q2367.53 1835.64 2369.37 1835.64 Q2371.3 1835.64 2372.65 1836.91 Q2374.04 1838.14 2374.04 1840.32 Q2374.04 1842.65 2372.4 1843.96 Q2370.81 1845.27 2368.51 1844.95 Q2370.52 1848.31 2374.21 1849.82 Q2377.94 1851.34 2381.38 1851.34 Q2384.99 1851.34 2387.9 1848.23 Q2390.85 1845.11 2390.85 1837.49 Q2390.85 1831.01 2388.31 1827.28 Q2385.81 1823.55 2380.85 1823.55 L2377.16 1823.55 Q2375.89 1823.55 2375.52 1823.43 Q2375.15 1823.3 2375.15 1822.61 Q2375.15 1821.79 2376.42 1821.62 Q2377.69 1821.62 2379.7 1821.38 Q2384.58 1821.21 2387.16 1816.99 Q2389.5 1813.06 2389.5 1807.44 Q2389.5 1802.32 2387.04 1800.19 Q2384.62 1798.01 2381.46 1798.01 Q2378.51 1798.01 2375.27 1799.24 Q2372.04 1800.47 2370.27 1803.22 Q2375.48 1803.22 2375.48 1807.44 Q2375.48 1809.29 2374.29 1810.52 Q2373.14 1811.7 2371.22 1811.7 Q2369.37 1811.7 2368.14 1810.56 Q2366.91 1809.37 2366.91 1807.36 Q2366.91 1802.56 2371.18 1799.24 Q2375.48 1795.92 2381.79 1795.92 Q2388.02 1795.92 2392.61 1799.2 Q2397.24 1802.48 2397.24 1807.52 Q2397.24 1812.48 2393.97 1816.54 Q2390.69 1820.6 2385.48 1822.28 Q2391.87 1823.55 2395.69 1827.9 Q2399.5 1832.2 2399.5 1837.49 Q2399.5 1844.05 2394.33 1848.88 Q2389.17 1853.68 2381.63 1853.68 Q2374.66 1853.68 2369.66 1849.91 Q2364.66 1846.14 2364.66 1840.52 Z" fill="#000000" fill-rule="evenodd" fill-opacity="1" /><path clip-path="url(#clip330)" d="M 0 0 M2407.41 1850.48 Q2406.22 1849.13 2406.22 1847.37 Q2406.22 1845.6 2407.37 1844.29 Q2408.56 1842.94 2410.69 1842.94 Q2413.19 1842.94 2414.62 1845.36 Q2416.06 1847.73 2416.06 1851.75 Q2416.06 1856.1 2414.3 1860.11 Q2412.53 1864.17 2410.81 1866.1 Q2409.09 1868.02 2408.39 1868.02 Q2407.57 1868.02 2407.57 1867.12 Q2407.57 1866.79 2408.15 1866.18 Q2414.17 1859.7 2414.21 1851.75 Q2414.21 1850.48 2414.05 1850.48 L2413.84 1850.64 Q2412.41 1851.83 2410.69 1851.83 Q2408.6 1851.83 2407.41 1850.48 Z" fill="#000000" fill-rule="evenodd" fill-opacity="1" /><path clip-path="url(#clip330)" d="M 0 0 M2442.54 1851.83 Q2442.54 1850.32 2442.67 1849.87 Q2442.83 1849.41 2443.49 1848.72 L2459.59 1830.76 Q2468.41 1820.85 2468.41 1812.2 Q2468.41 1806.58 2465.46 1802.56 Q2462.55 1798.55 2457.18 1798.55 Q2453.49 1798.55 2450.37 1800.8 Q2447.26 1803.06 2445.82 1807.07 Q2446.07 1806.99 2446.93 1806.99 Q2449.02 1806.99 2450.17 1808.3 Q2451.36 1809.61 2451.36 1811.38 Q2451.36 1813.63 2449.88 1814.74 Q2448.45 1815.8 2447.01 1815.8 Q2446.44 1815.8 2445.66 1815.68 Q2444.92 1815.56 2443.73 1814.41 Q2442.54 1813.22 2442.54 1811.13 Q2442.54 1805.27 2446.97 1800.6 Q2451.44 1795.92 2458.24 1795.92 Q2465.95 1795.92 2470.99 1800.51 Q2476.07 1805.06 2476.07 1812.2 Q2476.07 1814.7 2475.29 1816.99 Q2474.56 1819.25 2473.53 1821.01 Q2472.55 1822.77 2469.84 1825.6 Q2467.14 1828.43 2464.96 1830.44 Q2462.79 1832.45 2457.91 1836.71 L2449.02 1845.36 L2464.14 1845.36 Q2471.52 1845.36 2472.1 1844.7 Q2472.92 1843.51 2473.94 1837.24 L2476.07 1837.24 L2473.7 1851.83 L2442.54 1851.83 Z" fill="#000000" fill-rule="evenodd" fill-opacity="1" /><path clip-path="url(#clip330)" d="M 0 0 M2484.11 1872 Q2484.11 1871.59 2485.17 1870.57 Q2498.7 1856.79 2498.7 1830.85 Q2498.7 1804.82 2485.7 1791.66 Q2484.11 1790.14 2484.11 1789.69 Q2484.11 1788.87 2484.93 1788.87 Q2485.5 1788.87 2487.51 1790.55 Q2489.56 1792.23 2492.63 1796.09 Q2495.75 1799.94 2498.04 1804.65 Q2503.58 1816.09 2503.58 1830.85 Q2503.58 1845.03 2498.29 1856.47 Q2496.03 1861.26 2492.88 1865.28 Q2489.72 1869.29 2487.63 1871.06 Q2485.54 1872.82 2484.93 1872.82 Q2484.11 1872.82 2484.11 1872 Z" fill="#000000" fill-rule="evenodd" fill-opacity="1" /><path clip-path="url(#clip330)" d="M 0 0 M2793.91 2333.59 Q2793.91 2319.41 2799.2 2307.97 Q2801.46 2303.18 2804.61 2299.16 Q2807.77 2295.14 2809.86 2293.38 Q2811.95 2291.62 2812.52 2291.62 Q2813.34 2291.62 2813.38 2292.44 Q2813.38 2292.85 2812.28 2293.87 Q2798.75 2307.64 2798.79 2333.59 Q2798.79 2359.62 2811.95 2372.86 Q2813.38 2374.29 2813.38 2374.74 Q2813.38 2375.56 2812.52 2375.56 Q2811.95 2375.56 2809.94 2373.88 Q2807.93 2372.2 2804.82 2368.35 Q2801.7 2364.5 2799.45 2359.78 Q2793.91 2348.35 2793.91 2333.59 Z" fill="#000000" fill-rule="evenodd" fill-opacity="1" /><path clip-path="url(#clip330)" d="M 0 0 M2826.14 2354.58 Q2826.14 2353.06 2826.26 2352.61 Q2826.43 2352.16 2827.08 2351.46 L2843.19 2333.51 Q2852.01 2323.59 2852.01 2314.94 Q2852.01 2309.33 2849.05 2305.31 Q2846.14 2301.29 2840.78 2301.29 Q2837.09 2301.29 2833.97 2303.55 Q2830.86 2305.8 2829.42 2309.82 Q2829.67 2309.74 2830.53 2309.74 Q2832.62 2309.74 2833.77 2311.05 Q2834.95 2312.36 2834.95 2314.12 Q2834.95 2316.38 2833.48 2317.48 Q2832.04 2318.55 2830.61 2318.55 Q2830.04 2318.55 2829.26 2318.42 Q2828.52 2318.3 2827.33 2317.15 Q2826.14 2315.97 2826.14 2313.87 Q2826.14 2308.01 2830.57 2303.34 Q2835.04 2298.67 2841.84 2298.67 Q2849.55 2298.67 2854.59 2303.26 Q2859.67 2307.81 2859.67 2314.94 Q2859.67 2317.44 2858.89 2319.74 Q2858.15 2321.99 2857.13 2323.75 Q2856.15 2325.52 2853.44 2328.34 Q2850.74 2331.17 2848.56 2333.18 Q2846.39 2335.19 2841.51 2339.45 L2832.62 2348.1 L2847.74 2348.1 Q2855.12 2348.1 2855.7 2347.45 Q2856.52 2346.26 2857.54 2339.99 L2859.67 2339.99 L2857.29 2354.58 L2826.14 2354.58 Z" fill="#000000" fill-rule="evenodd" fill-opacity="1" /><path clip-path="url(#clip330)" d="M 0 0 M2868.89 2353.22 Q2867.7 2351.87 2867.7 2350.11 Q2867.7 2348.35 2868.85 2347.04 Q2870.04 2345.68 2872.17 2345.68 Q2874.67 2345.68 2876.11 2348.1 Q2877.54 2350.48 2877.54 2354.5 Q2877.54 2358.84 2875.78 2362.86 Q2874.02 2366.92 2872.3 2368.84 Q2870.57 2370.77 2869.88 2370.77 Q2869.06 2370.77 2869.06 2369.87 Q2869.06 2369.54 2869.63 2368.92 Q2875.66 2362.45 2875.7 2354.5 Q2875.7 2353.22 2875.53 2353.22 L2875.33 2353.39 Q2873.89 2354.58 2872.17 2354.58 Q2870.08 2354.58 2868.89 2353.22 Z" fill="#000000" fill-rule="evenodd" fill-opacity="1" /><path clip-path="url(#clip330)" d="M 0 0 M2904.03 2343.26 Q2904.03 2340.76 2905.46 2339.58 Q2906.9 2338.39 2908.74 2338.39 Q2910.67 2338.39 2912.02 2339.66 Q2913.41 2340.89 2913.41 2343.06 Q2913.41 2345.4 2911.77 2346.71 Q2910.18 2348.02 2907.88 2347.69 Q2909.89 2351.05 2913.58 2352.57 Q2917.31 2354.09 2920.75 2354.09 Q2924.36 2354.09 2927.27 2350.97 Q2930.22 2347.86 2930.22 2340.23 Q2930.22 2333.75 2927.68 2330.02 Q2925.18 2326.29 2920.22 2326.29 L2916.53 2326.29 Q2915.26 2326.29 2914.89 2326.17 Q2914.52 2326.05 2914.52 2325.35 Q2914.52 2324.53 2915.79 2324.37 Q2917.06 2324.37 2919.07 2324.12 Q2923.95 2323.96 2926.53 2319.74 Q2928.87 2315.8 2928.87 2310.19 Q2928.87 2305.06 2926.41 2302.93 Q2923.99 2300.76 2920.83 2300.76 Q2917.88 2300.76 2914.64 2301.99 Q2911.41 2303.22 2909.64 2305.96 Q2914.85 2305.96 2914.85 2310.19 Q2914.85 2312.03 2913.66 2313.26 Q2912.51 2314.45 2910.59 2314.45 Q2908.74 2314.45 2907.51 2313.3 Q2906.28 2312.11 2906.28 2310.1 Q2906.28 2305.31 2910.54 2301.99 Q2914.85 2298.67 2921.16 2298.67 Q2927.39 2298.67 2931.98 2301.95 Q2936.61 2305.23 2936.61 2310.27 Q2936.61 2315.23 2933.33 2319.29 Q2930.06 2323.34 2924.85 2325.02 Q2931.24 2326.29 2935.06 2330.64 Q2938.87 2334.94 2938.87 2340.23 Q2938.87 2346.79 2933.7 2351.63 Q2928.54 2356.42 2921 2356.42 Q2914.03 2356.42 2909.03 2352.65 Q2904.03 2348.88 2904.03 2343.26 Z" fill="#000000" fill-rule="evenodd" fill-opacity="1" /><path clip-path="url(#clip330)" d="M 0 0 M2945.59 2374.74 Q2945.59 2374.33 2946.66 2373.31 Q2960.18 2359.54 2960.18 2333.59 Q2960.18 2307.56 2947.19 2294.41 Q2945.59 2292.89 2945.59 2292.44 Q2945.59 2291.62 2946.41 2291.62 Q2946.98 2291.62 2948.99 2293.3 Q2951.04 2294.98 2954.12 2298.83 Q2957.23 2302.68 2959.53 2307.4 Q2965.06 2318.83 2965.06 2333.59 Q2965.06 2347.77 2959.77 2359.21 Q2957.52 2364 2954.36 2368.02 Q2951.21 2372.04 2949.12 2373.8 Q2947.02 2375.56 2946.41 2375.56 Q2945.59 2375.56 2945.59 2374.74 Z" fill="#000000" fill-rule="evenodd" fill-opacity="1" /><path clip-path="url(#clip330)" d="M 0 0 M3310.84 3092.25 Q3310.84 3078.07 3316.13 3066.63 Q3318.38 3061.84 3321.54 3057.82 Q3324.69 3053.8 3326.78 3052.04 Q3328.87 3050.28 3329.45 3050.28 Q3330.27 3050.28 3330.31 3051.1 Q3330.31 3051.51 3329.2 3052.53 Q3315.68 3066.3 3315.72 3092.25 Q3315.72 3118.28 3328.87 3131.52 Q3330.31 3132.95 3330.31 3133.4 Q3330.31 3134.22 3329.45 3134.22 Q3328.87 3134.22 3326.87 3132.54 Q3324.86 3130.86 3321.74 3127.01 Q3318.63 3123.16 3316.37 3118.44 Q3310.84 3107.01 3310.84 3092.25 Z" fill="#000000" fill-rule="evenodd" fill-opacity="1" /><path clip-path="url(#clip330)" d="M 0 0 M3343.07 3065.32 L3343.07 3062.7 Q3353.15 3062.7 3358.35 3057.33 Q3359.79 3057.33 3360.04 3057.66 Q3360.28 3057.98 3360.28 3059.5 L3360.28 3106.6 Q3360.28 3109.1 3361.51 3109.88 Q3362.74 3110.65 3368.11 3110.65 L3370.77 3110.65 L3370.77 3113.24 Q3367.82 3112.99 3357.17 3112.99 Q3346.51 3112.99 3343.6 3113.24 L3343.6 3110.65 L3346.26 3110.65 Q3351.55 3110.65 3352.82 3109.92 Q3354.09 3109.14 3354.09 3106.6 L3354.09 3063.11 Q3349.71 3065.32 3343.07 3065.32 Z" fill="#000000" fill-rule="evenodd" fill-opacity="1" /><path clip-path="url(#clip330)" d="M 0 0 M3385.82 3111.88 Q3384.63 3110.53 3384.63 3108.77 Q3384.63 3107.01 3385.78 3105.69 Q3386.96 3104.34 3389.1 3104.34 Q3391.6 3104.34 3393.03 3106.76 Q3394.47 3109.14 3394.47 3113.15 Q3394.47 3117.5 3392.7 3121.52 Q3390.94 3125.57 3389.22 3127.5 Q3387.5 3129.43 3386.8 3129.43 Q3385.98 3129.43 3385.98 3128.53 Q3385.98 3128.2 3386.55 3127.58 Q3392.58 3121.11 3392.62 3113.15 Q3392.62 3111.88 3392.46 3111.88 L3392.25 3112.05 Q3390.82 3113.24 3389.1 3113.24 Q3387.01 3113.24 3385.82 3111.88 Z" fill="#000000" fill-rule="evenodd" fill-opacity="1" /><path clip-path="url(#clip330)" d="M 0 0 M3420.95 3099.38 L3420.95 3096.8 L3446.73 3057.41 Q3447.39 3056.38 3448.41 3056.43 Q3449.36 3056.43 3449.56 3056.79 Q3449.77 3057.16 3449.77 3058.6 L3449.77 3096.8 L3458.17 3096.8 L3458.17 3099.38 L3449.77 3099.38 L3449.77 3106.68 Q3449.77 3109.1 3450.75 3109.88 Q3451.78 3110.65 3456.12 3110.65 L3457.88 3110.65 L3457.88 3113.24 Q3454.44 3112.99 3446.49 3112.99 Q3438.58 3112.99 3435.13 3113.24 L3435.13 3110.65 L3436.9 3110.65 Q3441.24 3110.65 3442.27 3109.92 Q3443.29 3109.14 3443.29 3106.68 L3443.29 3099.38 L3420.95 3099.38 M3423.33 3096.8 L3443.78 3096.8 L3443.78 3065.48 L3423.33 3096.8 Z" fill="#000000" fill-rule="evenodd" fill-opacity="1" /><path clip-path="url(#clip330)" d="M 0 0 M3462.51 3133.4 Q3462.51 3132.99 3463.58 3131.97 Q3477.11 3118.2 3477.11 3092.25 Q3477.11 3066.22 3464.11 3053.06 Q3462.51 3051.55 3462.51 3051.1 Q3462.51 3050.28 3463.33 3050.28 Q3463.91 3050.28 3465.92 3051.96 Q3467.97 3053.64 3471.04 3057.49 Q3474.15 3061.34 3476.45 3066.06 Q3481.98 3077.49 3481.98 3092.25 Q3481.98 3106.43 3476.7 3117.87 Q3474.44 3122.66 3471.29 3126.68 Q3468.13 3130.7 3466.04 3132.46 Q3463.95 3134.22 3463.33 3134.22 Q3462.51 3134.22 3462.51 3133.4 Z" fill="#000000" fill-rule="evenodd" fill-opacity="1" /></svg>
